<svg width="55" height="55" fill="none" xmlns="http://www.w3.org/2000/svg"><g clip-path="url(#prefix__clip0_16_2561)"><mask id="prefix__a" style="mask-type:luminance" maskUnits="userSpaceOnUse" x="0" y="0" width="55" height="55"><path d="M55 0H0v55h55V0z" fill="#fff"/></mask><g mask="url(#prefix__a)"><mask id="prefix__b" style="mask-type:luminance" maskUnits="userSpaceOnUse" x="0" y="0" width="55" height="55"><path d="M55 .104H.104v54.792H55V.104z" fill="#fff"/></mask><g mask="url(#prefix__b)"><mask id="prefix__c" style="mask-type:luminance" maskUnits="userSpaceOnUse" x="0" y="0" width="55" height="55"><path d="M55 .104H.104v54.792H55V.104z" fill="#fff"/></mask><g mask="url(#prefix__c)"><mask id="prefix__d" style="mask-type:luminance" maskUnits="userSpaceOnUse" x="0" y="0" width="55" height="55"><path d="M55 .104H.104v54.792H55V.104z" fill="#fff"/></mask><g mask="url(#prefix__d)"><path d="M28.124 4.67H26.98v22.26H4.68v1.14H26.98v22.26h1.144V28.07h22.301v-1.14H28.124V4.67z" fill="#fff"/></g></g></g></g></g><defs><clipPath id="prefix__clip0_16_2561"><path fill="#fff" d="M0 0h55v55H0z"/></clipPath></defs></svg>