<svg width="73" height="73" fill="none" xmlns="http://www.w3.org/2000/svg"><g clip-path="url(#prefix__clip0_16_2605)"><mask id="prefix__a" style="mask-type:luminance" maskUnits="userSpaceOnUse" x="0" y="0" width="73" height="73"><path d="M73 0H0v73h73V0z" fill="#fff"/></mask><g mask="url(#prefix__a)"><mask id="prefix__b" style="mask-type:luminance" maskUnits="userSpaceOnUse" x="0" y="0" width="73" height="73"><path d="M72.862 0H0v72.862h72.862V0z" fill="#fff"/></mask><g mask="url(#prefix__b)"><mask id="prefix__c" style="mask-type:luminance" maskUnits="userSpaceOnUse" x="0" y="0" width="73" height="73"><path d="M72.862 0H0v72.862h72.862V0z" fill="#fff"/></mask><g mask="url(#prefix__c)"><mask id="prefix__d" style="mask-type:luminance" maskUnits="userSpaceOnUse" x="0" y="0" width="73" height="73"><path d="M72.862 0H0v72.862h72.862V0z" fill="#fff"/></mask><g mask="url(#prefix__d)" fill="#fff"><path d="M27.73 51.718a3.447 3.447 0 103.447-3.446h-.002a3.447 3.447 0 00-3.446 3.446zm5.374 0a1.929 1.929 0 11-1.93-1.928h.002a1.93 1.93 0 011.928 1.928zM37.271 58.178a9.37 9.37 0 00-3.333-1.64 9.655 9.655 0 00-2.816-.425c-.954.015-1.9.158-2.816.425a11.003 11.003 0 00-3.333 1.64 1.798 1.798 0 00-.683 1.374v3.443h13.662v-3.446a1.798 1.798 0 00-.68-1.371zm-.835 3.3h-10.63V59.58a.28.28 0 01.091-.203 9.482 9.482 0 012.832-1.386 9.112 9.112 0 012.4-.363c.8.002 1.596.123 2.36.358l.06.017a7.782 7.782 0 012.778 1.362c.058.044.097.11.106.183l.003 1.93zM42.806 51.718a3.446 3.446 0 103.448-3.446h-.001a3.447 3.447 0 00-3.447 3.446zm5.375 0a1.929 1.929 0 11-1.929-1.928 1.93 1.93 0 011.927 1.928h.002zM52.452 58.178a9.377 9.377 0 00-3.332-1.64 9.655 9.655 0 00-2.816-.425c-.954.015-1.901.158-2.816.425a10.996 10.996 0 00-3.333 1.64 1.798 1.798 0 00-.683 1.374v3.443h13.662v-3.446a1.798 1.798 0 00-.682-1.371zm-.835 3.3H40.992V59.58a.28.28 0 01.092-.203 9.468 9.468 0 012.831-1.386 9.119 9.119 0 012.4-.363c.801.002 1.597.123 2.362.358l.058.017a7.771 7.771 0 012.778 1.362c.059.044.097.11.107.183l-.003 1.93zM57.986 51.718a3.447 3.447 0 103.447-3.446 3.447 3.447 0 00-3.447 3.446zm5.374 0a1.929 1.929 0 11-1.93-1.928h.002a1.93 1.93 0 011.928 1.928zM67.634 58.178a9.373 9.373 0 00-3.333-1.64 9.65 9.65 0 00-2.816-.425c-.953.015-1.9.158-2.816.425a10.988 10.988 0 00-3.332 1.64 1.793 1.793 0 00-.683 1.374v3.443h13.661v-3.446a1.798 1.798 0 00-.681-1.371zm-.835 3.3H56.173V59.58a.28.28 0 01.092-.203 9.482 9.482 0 012.832-1.386 9.11 9.11 0 012.4-.363c.8.002 1.596.123 2.361.358l.059.017a7.783 7.783 0 012.778 1.362c.059.044.097.11.106.183l-.002 1.93zM18.215 9.867c0-.839.68-1.518 1.518-1.518h38.708c.839 0 1.518.68 1.518 1.518v25.805c0 .838-.68 1.518-1.518 1.518H32.76l-.92 1.518h26.601a3.036 3.036 0 003.036-3.036V9.867a3.036 3.036 0 00-3.036-3.036H19.733a3.036 3.036 0 00-3.035 3.036v3.06a6.777 6.777 0 011.517.28v-3.34z"/><path d="M25.73 35.772a.759.759 0 00.733-.351l3.258-5.196a1.207 1.207 0 011.721-.338 1.29 1.29 0 01.252 1.735l-3.976 6.568a1.472 1.472 0 01-1.95.535.76.76 0 10-.713 1.34 2.99 2.99 0 003.96-1.09l3.97-6.554a2.824 2.824 0 00-.05-3.142l9.625-9.805a.759.759 0 00-1.083-1.063L31.73 28.34a2.707 2.707 0 00-1.518-.144 2.744 2.744 0 00-1.779 1.22l-2.401 3.832-1.402-4.241-.05-.117c-1.129-2.593-3.82-3.084-8.381-3.084-4.563 0-7.25.491-8.389 3.092 0 0-.03.063-.045.107-.02.051-.036.105-.048.16l-2.65 14.484a2.505 2.505 0 002.05 3.047l.227.036c.04.006.08.01.12.01a.759.759 0 00.114-1.506l-.228-.036a.977.977 0 01-.664-.425 1.006 1.006 0 01-.133-.812l2.642-14.44.008-.022c.619-1.412 1.916-2.177 6.996-2.177s6.375.765 6.989 2.164l1.911 5.768c.092.28.337.481.63.517z"/><path d="M21.251 32.955c-.419 0-.759.34-.759.759v30.8h-3.415V45.65h-1.518v18.862h-3.415v-30.8a.759.759 0 10-1.518 0v32.318H22.01V33.714c0-.42-.34-.76-.759-.76zM16.2 24.287a4.554 4.554 0 100-9.107 4.554 4.554 0 000 9.107zm0-7.59a3.036 3.036 0 110 6.072 3.036 3.036 0 010-6.071z"/></g></g></g></g></g><defs><clipPath id="prefix__clip0_16_2605"><path fill="#fff" d="M0 0h73v73H0z"/></clipPath></defs></svg>