<svg width="227" height="226" xmlns="http://www.w3.org/2000/svg" xmlns:xlink="http://www.w3.org/1999/xlink" xml:space="preserve" overflow="hidden"><g transform="translate(-782 -392)"><g><g><g><g><path d="M896 429.667C914.202 429.667 928.958 444.423 928.958 462.625 928.958 480.827 914.202 495.583 896 495.583 877.798 495.583 863.042 480.827 863.042 462.625 863.06 444.43 877.805 429.685 896 429.667M896 424.958C875.197 424.958 858.333 441.822 858.333 462.625 858.333 483.428 875.197 500.292 896 500.292 916.803 500.292 933.667 483.428 933.667 462.625 933.667 441.822 916.803 424.958 896 424.958Z" fill="#FFFFFF" fill-rule="nonzero" fill-opacity="1"/><path d="M971.333 585.042 966.625 585.042 966.625 548.552C966.513 543.552 964.157 538.867 960.21 535.795 949.885 527.873 938.064 522.122 925.458 518.89 915.913 515.953 905.986 514.445 896 514.417 886.017 514.59 876.102 516.094 866.516 518.89 854.042 522.543 842.273 528.274 831.703 535.84 827.796 538.915 825.473 543.581 825.375 548.552L825.375 585.042 820.667 585.042 820.667 548.552C820.783 542.122 823.789 536.086 828.85 532.118 839.894 524.189 852.201 518.186 865.247 514.363 875.245 511.449 885.588 509.884 896 509.708 906.434 509.734 916.807 511.304 926.781 514.367 939.986 517.77 952.366 523.813 963.171 532.132 968.222 536.1 971.219 542.13 971.333 548.552Z" fill="#FFFFFF" fill-rule="nonzero" fill-opacity="1"/></g></g></g></g></g></svg>