<svg xmlns="http://www.w3.org/2000/svg" width="7763" height="6450" shape-rendering="geometricPrecision" text-rendering="geometricPrecision" image-rendering="optimizeQuality" fill-rule="evenodd" clip-rule="evenodd"><path fill="#fefffe" d="M6420.5-.5h1340v1310c-445.67.17-891.33 0-1337-.5a11.45 11.45 0 00-2-2.5c-1-435.666-1.33-871.333-1-1307zm92 61h1157v1157h-1157V60.5z" opacity=".968"/><path fill="#fefffe" d="M3.5 1.5h1340v1338c-446 .33-892 0-1338-1a223615.023 223615.023 0 01-2-1337zm92 92h1156v1154H95.5V93.5z" opacity=".964"/><path fill="#fefffe" d="M3212.5 1.5h1340v1338c-446 .33-892 0-1338-1-2-445.527-2.67-891.194-2-1337zm91 92h1157v1154h-1157V93.5zM3212.5 2554.5h1340v1340c-446 .33-892 0-1338-1-2-446.19-2.67-892.53-2-1339zm91 92h1157v1156h-1157v-1156zM6420.5 2554.5h1340v1340c-446 .33-892 0-1338-1-2-446.19-2.67-892.53-2-1339zm92 92h1157v1156h-1157v-1156zM3.5 2586.5h1340v1338c-446 .33-892 0-1338-1-1.999-445.53-2.665-891.19-2-1337zm92 92h1156v1155H95.5v-1155z" opacity=".967"/><path fill="#fefffe" d="M1343.5 6449.5H3.5v-1310h1340v1310zm-1248-1218h1156v1157H95.5v-1157z" opacity=".969"/><path fill="#fefffe" d="M4552.5 6449.5h-1340v-1310c446.33-.17 892.67 0 1339 .5 1 436.43 1.33 872.93 1 1309.5zm-1249-1218h1157v1157h-1157v-1157zM7760.5 6449.5h-1340v-1310h1340v1310zm-1248-1218h1157v1157h-1157v-1157z" opacity=".972"/></svg>