<svg width="70" height="70" fill="none" xmlns="http://www.w3.org/2000/svg"><g clip-path="url(#prefix__clip0_16_2651)"><mask id="prefix__a" style="mask-type:luminance" maskUnits="userSpaceOnUse" x="0" y="0" width="70" height="70"><path d="M70 0H0v70h70V0z" fill="#fff"/></mask><g mask="url(#prefix__a)"><mask id="prefix__b" style="mask-type:luminance" maskUnits="userSpaceOnUse" x="0" y="0" width="70" height="70"><path d="M69.867.132H0V70h69.867V.132z" fill="#fff"/></mask><g mask="url(#prefix__b)"><mask id="prefix__c" style="mask-type:luminance" maskUnits="userSpaceOnUse" x="0" y="0" width="70" height="70"><path d="M69.867.132H0V70h69.867V.132z" fill="#fff"/></mask><g mask="url(#prefix__c)"><mask id="prefix__d" style="mask-type:luminance" maskUnits="userSpaceOnUse" x="0" y="0" width="70" height="70"><path d="M69.867.132H0V70h69.867V.132z" fill="#fff"/></mask><g mask="url(#prefix__d)" fill="#fff"><path d="M10.189 59.811h49.49v-49.49h-49.49v49.49zm1.456-48.034h46.578v5.822H11.645v-5.822zm0 7.278h46.578v39.3H11.645v-39.3z"/><path d="M23.29 30.7H16.01v23.289h23.29V46.71h14.555V23.42H23.29V30.7zm0 21.833h-5.823v-5.822h5.822v5.822zm0-7.278h-5.823v-5.822h5.822v5.822zm0-7.278h-5.823v-5.822h5.822v5.822zm23.288-13.1h5.823V30.7h-5.823v-5.822zm0 7.278h5.823v5.822h-5.823v-5.822zm0 7.278h5.823v5.822h-5.823v-5.822zM39.3 24.877h5.823V30.7H39.3v-5.822zm0 7.278h5.823v5.822H39.3v-5.822zm0 7.278h5.823v5.822H39.3v-5.822zm-7.277-14.556h5.822V30.7h-5.822v-5.822zm0 7.278h5.822v5.822h-5.822v-5.822zm0 7.278h5.822v5.822h-5.822v-5.822zm0 7.278h5.822v5.822h-5.822v-5.822zm-7.278-21.834h5.822V30.7h-5.822v-5.822zm0 7.278h5.822v5.822h-5.822v-5.822zm0 7.278h5.822v5.822h-5.822v-5.822zm0 7.278h5.822v5.822h-5.822v-5.822z"/></g></g></g></g></g><defs><clipPath id="prefix__clip0_16_2651"><path fill="#fff" d="M0 0h70v70H0z"/></clipPath></defs></svg>