<svg width="159" height="159" xmlns="http://www.w3.org/2000/svg" xmlns:xlink="http://www.w3.org/1999/xlink" xml:space="preserve" overflow="hidden"><g transform="translate(-538 -163)"><path d="M667.188 191.166C648.298 172.542 617.887 172.758 599.263 191.647 581.276 209.891 580.774 239.041 598.122 257.893L591.23 264.785C586.768 261.307 580.749 261.204 577.185 264.775L553.9 288.097C551.946 290.097 550.991 292.869 551.3 295.649 551.996 302.005 557.26 306.883 563.65 307.094 566.132 307.138 568.527 306.183 570.297 304.444L593.572 281.129C595.527 279.129 596.481 276.357 596.172 273.578 595.945 271.217 595.038 268.974 593.561 267.118L600.454 260.227C619.964 278.2 650.35 276.953 668.323 257.443 685.693 238.588 685.193 209.415 667.188 191.166ZM591.229 278.788 567.947 302.11C565.33 304.73 560.578 304.24 557.347 301.022 555.791 299.519 554.814 297.516 554.589 295.364 554.373 293.559 554.977 291.751 556.234 290.437L579.517 267.115C580.668 265.998 582.22 265.391 583.823 265.431 586.203 265.497 588.462 266.492 590.117 268.203 591.673 269.707 592.648 271.711 592.873 273.863 593.089 275.668 592.486 277.475 591.229 278.788ZM664.836 256.744C647.371 274.207 619.057 274.205 601.594 256.741 584.131 239.276 584.132 210.962 601.597 193.499 619.061 176.036 647.376 176.037 664.839 193.502 673.224 201.888 677.935 213.263 677.935 225.123 677.929 236.982 673.218 248.355 664.836 256.744Z" fill="#FFFFFF"/><path d="M652.705 229.566C652.395 229.256 651.974 229.081 651.534 229.081L647.294 229.081C647.104 227.746 646.86 226.401 646.554 225.041L652.49 223.786C653.121 223.653 653.617 223.166 653.762 222.537L656.606 210.16C656.822 209.271 656.278 208.375 655.389 208.159 654.5 207.942 653.604 208.487 653.387 209.375 653.384 209.39 653.381 209.404 653.378 209.418L650.771 220.763 645.716 221.833C645.577 221.356 645.461 220.871 645.308 220.402 644.893 219.134 644.127 218.009 643.097 217.159 643.435 216.739 643.693 216.259 643.858 215.745 645.328 211.087 643.58 206.014 639.551 203.252 640.216 200.786 641.904 198.721 644.189 197.579 644.991 197.139 645.285 196.133 644.845 195.331 644.405 194.529 643.399 194.235 642.597 194.674 642.592 194.677 642.587 194.68 642.582 194.682 639.706 196.157 637.535 198.716 636.55 201.794 635.855 201.565 635.138 201.407 634.41 201.322 632.879 201.163 631.332 201.32 629.864 201.783 628.877 198.709 626.708 196.154 623.835 194.682 623.033 194.243 622.026 194.537 621.587 195.339 621.15 196.135 621.437 197.135 622.229 197.579 624.513 198.72 626.2 200.782 626.866 203.247 626.472 203.514 626.095 203.806 625.74 204.123 623.391 206.24 622.05 209.253 622.048 212.414 622.047 213.548 622.221 214.674 622.563 215.755 622.727 216.266 622.984 216.743 623.32 217.161 622.291 218.009 621.525 219.131 621.109 220.397 620.957 220.866 620.841 221.351 620.702 221.828L615.648 220.758 613.041 209.413C612.848 208.519 611.967 207.951 611.073 208.144 610.179 208.337 609.61 209.218 609.804 210.113 609.807 210.127 609.81 210.141 609.813 210.155L612.657 222.532C612.802 223.16 613.297 223.647 613.927 223.781L619.865 225.036C619.559 226.396 619.315 227.741 619.125 229.076L614.885 229.076C614.446 229.076 614.024 229.251 613.714 229.561L605.572 237.702C604.925 238.349 604.924 239.398 605.571 240.045 606.218 240.692 607.267 240.692 607.914 240.045L615.584 232.397 618.785 232.397C618.731 233.215 618.668 234.042 618.668 234.812 618.671 235.901 618.797 236.987 619.044 238.048L614.454 239.322C613.934 239.466 613.516 239.856 613.336 240.365L609.265 251.899C608.936 252.753 609.361 253.711 610.215 254.04 611.068 254.37 612.027 253.944 612.356 253.091 612.367 253.062 612.378 253.032 612.387 253.002L616.175 242.28 620.15 241.175C623.648 248.388 632.332 251.399 639.545 247.901 642.479 246.478 644.848 244.109 646.271 241.175L650.254 242.281 654.039 253.001C654.343 253.863 655.289 254.316 656.152 254.011 657.014 253.706 657.467 252.76 657.162 251.898L653.091 240.363C652.911 239.854 652.493 239.464 651.972 239.32L647.382 238.046C647.629 236.985 647.755 235.9 647.758 234.81 647.758 234.04 647.697 233.213 647.642 232.395L650.844 232.395 658.5 240.052C659.148 240.699 660.196 240.698 660.843 240.051 661.49 239.404 661.49 238.355 660.842 237.708ZM626.752 215.511C626.285 215.511 625.873 215.208 625.735 214.763 625.495 214.005 625.373 213.214 625.374 212.419 625.375 210.196 626.319 208.077 627.971 206.589 629.403 205.286 631.271 204.566 633.208 204.572 633.496 204.571 633.784 204.586 634.071 204.617 637.617 205.021 640.45 207.756 640.977 211.286 641.147 212.447 641.052 213.631 640.699 214.75L640.699 214.75C640.562 215.198 640.149 215.505 639.68 215.506L626.752 215.506ZM634.867 245.907 634.867 232.094C634.867 231.179 634.126 230.438 633.211 230.438 632.296 230.438 631.555 231.179 631.555 232.094L631.555 245.907C626.057 245.085 621.986 240.369 621.975 234.81 622.065 230.26 622.838 225.748 624.267 221.428 624.771 219.872 626.222 218.82 627.857 218.826L638.564 218.826C640.199 218.82 641.65 219.872 642.153 221.428 643.583 225.748 644.356 230.26 644.446 234.81 644.435 240.366 640.367 245.082 634.872 245.907Z" fill="#FFFFFF"/></g></svg>