<svg width="96" height="96" xmlns="http://www.w3.org/2000/svg" xmlns:xlink="http://www.w3.org/1999/xlink" xml:space="preserve" overflow="hidden"><g transform="translate(-592 -312)"><g><path d="M607 337 605 337 605 383.02 607 383.02 662 383 675 383 675 381 675 339 675 337 607 337ZM673 381 662 381 607 381.02 607 339 673 339Z" fill="#FFFFFF" fill-rule="nonzero" fill-opacity="1"/><path d="M676 332.005 604 332.005C601.794 332.012 600.007 333.799 600 336.005L600 384.02C600.007 386.226 601.794 388.013 604 388.02L676 388.02C678.206 388.013 679.993 386.226 680 384.02L680 336.007C679.994 333.8 678.207 332.012 676 332.005ZM678 384.02C678 385.125 677.105 386.02 676 386.02L604 386.02C602.895 386.02 602 385.125 602 384.02L602 336.007C602 334.902 602.895 334.007 604 334.007L676 334.007C677.105 334.007 678 334.902 678 336.007Z" fill="#FFFFFF" fill-rule="nonzero" fill-opacity="1"/></g></g></svg>