<svg width="524" height="524" xmlns="http://www.w3.org/2000/svg" overflow="hidden"><g fill="#FFF"><path d="M247.301 329.411c21.056-67.233 65.816-120.208 122.577-145.137-56.761-24.931-101.521-77.927-122.577-145.138-21.063 67.211-65.817 120.207-122.578 145.138 56.761 24.929 101.515 77.927 122.578 145.137zm0-259.059a240.074 240.074 0 0098.482 113.922 240.04 240.04 0 00-98.482 113.92 240.113 240.113 0 00-98.483-113.92 240.126 240.126 0 0098.483-113.922zM285.545 386.62c38.811 17.047 69.416 53.287 83.816 99.244 14.399-45.957 45.002-82.197 83.819-99.244-38.817-17.052-69.42-53.297-83.819-99.244-14.4 45.947-45.005 82.192-83.816 99.244zm144.478 0a167.387 167.387 0 00-60.662 69.618 167.33 167.33 0 00-60.668-69.618 167.405 167.405 0 0060.668-69.641 167.46 167.46 0 0060.662 69.641zM136.522 417.766a101.18 101.18 0 0153.81-63.708 101.176 101.176 0 01-53.81-63.741s-.332 1.144-.506 1.716c-.323 1.057-.66 2.108-1.008 3.154a101.164 101.164 0 01-52.29 58.838 101.156 101.156 0 0153.804 63.741zm0-99.512a112.095 112.095 0 0032.394 35.804 112.109 112.109 0 00-32.383 35.765 112.113 112.113 0 00-32.392-35.798 112.102 112.102 0 0032.375-35.771z"/></g></svg>