<svg width="159" height="159" xmlns="http://www.w3.org/2000/svg" xmlns:xlink="http://www.w3.org/1999/xlink" xml:space="preserve" overflow="hidden"><g transform="translate(-574 -407)"><path d="M717.817 433.735 706.169 422.045C703.583 419.456 699.389 419.453 696.8 422.039 696.797 422.041 696.795 422.043 696.793 422.045L597.252 521.586 587.27 552.75 618.331 542.657 618.331 542.657 717.812 443.095C720.394 440.51 720.397 436.323 717.817 433.735ZM685.088 438.426 701.447 454.786 697.911 458.326 681.549 441.963ZM616.45 539.786 598.024 545.772 594.206 541.953 600.129 523.456C603.483 520.819 609.364 521.979 613.649 526.262 617.934 530.545 619.093 536.434 616.45 539.786ZM615.989 523.92C613.028 520.833 608.999 518.996 604.727 518.785L679.207 444.305 695.569 460.663 621.132 535.169C620.914 530.901 619.075 526.877 615.989 523.92ZM715.469 440.753 703.789 452.443 687.43 436.084 699.133 424.379C700.425 423.084 702.523 423.082 703.818 424.375 703.819 424.376 703.82 424.378 703.822 424.379L715.472 436.069C716.764 437.363 716.763 439.46 715.469 440.753Z" fill="#FFFFFF"/></g></svg>