<svg width="227" height="226" xmlns="http://www.w3.org/2000/svg" xmlns:xlink="http://www.w3.org/1999/xlink" xml:space="preserve" overflow="hidden"><g transform="translate(-289 -392)"><g><g><g><g><path d="M365.333 523.094C375.398 523.098 383.56 514.942 383.564 504.878 383.568 494.813 375.412 486.651 365.347 486.647 355.283 486.643 347.121 494.799 347.117 504.863 347.117 504.866 347.117 504.868 347.117 504.871 347.114 514.932 355.269 523.092 365.331 523.094 365.332 523.094 365.333 523.094 365.333 523.094ZM365.333 491.358C372.798 491.354 378.852 497.401 378.856 504.866 378.86 512.33 372.812 518.384 365.347 518.388 357.883 518.392 351.829 512.344 351.825 504.88 351.825 504.877 351.825 504.874 351.825 504.871 351.832 497.412 357.875 491.367 365.333 491.358Z" fill="#FFFFFF" fill-rule="nonzero" fill-opacity="1"/><path d="M398.607 537.546C393.255 533.417 387.121 530.415 380.577 528.723 375.637 527.209 370.5 526.434 365.333 526.423 360.183 526.507 355.067 527.28 350.121 528.721 343.646 530.601 337.543 533.583 332.081 537.535 329.346 539.687 327.726 542.954 327.667 546.433L327.667 563.854 403 563.854 403 546.433C402.945 542.962 401.332 539.699 398.607 537.546ZM398.292 559.146 332.375 559.146 332.375 546.433C332.42 544.418 333.358 542.527 334.936 541.273 339.93 537.694 345.49 534.982 351.385 533.25 355.92 531.927 360.61 531.215 365.333 531.131 370.052 531.147 374.743 531.861 379.254 533.25 385.198 534.771 390.773 537.479 395.643 541.212 397.265 542.466 398.238 544.383 398.292 546.433Z" fill="#FFFFFF" fill-rule="nonzero" fill-opacity="1"/><path d="M421.833 502.646 478.333 502.646 478.333 507.354 421.833 507.354Z" fill="#FFFFFF" fill-rule="nonzero" fill-opacity="1"/><path d="M421.833 521.479 478.333 521.479 478.333 526.188 421.833 526.188Z" fill="#FFFFFF" fill-rule="nonzero" fill-opacity="1"/><path d="M421.833 540.312 478.333 540.312 478.333 545.021 421.833 545.021Z" fill="#FFFFFF" fill-rule="nonzero" fill-opacity="1"/><path d="M421.833 559.146 478.333 559.146 478.333 563.854 421.833 563.854Z" fill="#FFFFFF" fill-rule="nonzero" fill-opacity="1"/><path d="M487.75 453.208 419.479 453.208 419.479 434.375C419.479 429.174 415.263 424.958 410.062 424.958L395.938 424.958C390.737 424.958 386.521 429.174 386.521 434.375L386.521 453.208 318.25 453.208C313.049 453.208 308.833 457.424 308.833 462.625L308.833 575.625C308.833 580.826 313.049 585.042 318.25 585.042L487.75 585.042C492.951 585.042 497.167 580.826 497.167 575.625L497.167 462.625C497.167 457.424 492.951 453.208 487.75 453.208ZM391.229 434.375C391.229 431.775 393.337 429.667 395.938 429.667L410.062 429.667C412.663 429.667 414.771 431.775 414.771 434.375L414.771 460.271C414.771 462.871 412.663 464.979 410.062 464.979L395.938 464.979C393.337 464.979 391.229 462.871 391.229 460.271ZM492.458 575.625C492.458 578.225 490.35 580.333 487.75 580.333L318.25 580.333C315.65 580.333 313.542 578.225 313.542 575.625L313.542 462.625C313.542 460.025 315.65 457.917 318.25 457.917L386.521 457.917 386.521 460.271C386.521 465.471 390.737 469.688 395.938 469.688L410.062 469.688C415.263 469.688 419.479 465.471 419.479 460.271L419.479 457.917 487.75 457.917C490.35 457.917 492.458 460.025 492.458 462.625Z" fill="#FFFFFF" fill-rule="nonzero" fill-opacity="1"/></g></g></g></g></g></svg>