<svg width="83" height="83" fill="none" xmlns="http://www.w3.org/2000/svg"><g clip-path="url(#prefix__clip0_16_2689)"><mask id="prefix__a" style="mask-type:luminance" maskUnits="userSpaceOnUse" x="0" y="0" width="83" height="83"><path d="M83 0H0v83h83V0z" fill="#fff"/></mask><g mask="url(#prefix__a)"><mask id="prefix__b" style="mask-type:luminance" maskUnits="userSpaceOnUse" x="0" y="0" width="83" height="83"><path d="M83 .157H.157V83H83V.157z" fill="#fff"/></mask><g mask="url(#prefix__b)"><mask id="prefix__c" style="mask-type:luminance" maskUnits="userSpaceOnUse" x="0" y="0" width="83" height="83"><path d="M83 .157H.157V83H83V.157z" fill="#fff"/></mask><g mask="url(#prefix__c)"><mask id="prefix__d" style="mask-type:luminance" maskUnits="userSpaceOnUse" x="0" y="0" width="83" height="83"><path d="M83 .157H.157V83H83V.157z" fill="#fff"/></mask><g mask="url(#prefix__d)" fill="#fff"><path d="M64.878 71.782H7.924V14.827h45.108l-1.726-1.726H6.198v60.407h60.406V49.345l-1.726 1.726v20.71z"/><path d="M61.167 26.046A48.677 48.677 0 0015.752 56.79l1.604.64a46.958 46.958 0 0143.813-29.66h12.825c.004 0 .008.004.008.01 0 .001 0 .004-.002.005L59.09 42.694l1.22 1.22 17.007-17.006L60.31 9.902l-1.22 1.22 14.908 14.909a.009.009 0 010 .012.01.01 0 01-.006.003H61.168z"/></g></g></g></g></g><defs><clipPath id="prefix__clip0_16_2689"><path fill="#fff" d="M0 0h83v83H0z"/></clipPath></defs></svg>