<svg width="342" height="344" xmlns="http://www.w3.org/2000/svg" overflow="hidden"><g fill="#FFF"><path d="M309.05 169.649c-2.728-3.107-67.627-76.024-138.05-76.024-70.423 0-135.322 72.917-138.05 76.024a3.56 3.56 0 000 4.702c2.728 3.107 67.627 76.024 138.05 76.024 70.423 0 135.322-72.917 138.05-76.024a3.56 3.56 0 000-4.702zM103.312 172c0-37.383 30.305-67.688 67.688-67.688s67.688 30.305 67.688 67.688-30.305 67.688-67.688 67.688c-37.366-.042-67.646-30.322-67.688-67.688zm-62.846 0c9.263-9.832 46.943-47.798 91.745-63.929.175-.064.189-.036.029.061-35.274 21.288-46.611 67.14-25.323 102.414a74.593 74.593 0 0025.323 25.322c.16.097.146.125-.029.061C87.409 219.798 49.715 181.832 40.466 172zm169.323 63.929c-.175.064-.189.036-.029-.061 35.274-21.288 46.611-67.14 25.323-102.414a74.593 74.593 0 00-25.323-25.322c-.16-.097-.146-.125.029-.061 44.801 16.131 82.496 54.097 91.745 63.929-9.249 9.832-46.944 47.798-91.745 63.929z"/><path d="M171 139.938c-17.708 0-32.062 14.354-32.062 32.062s14.354 32.062 32.062 32.062 32.062-14.354 32.062-32.062c-.021-17.699-14.363-32.041-32.062-32.062zm0 57c-13.773 0-24.938-11.165-24.938-24.938s11.165-24.938 24.938-24.938 24.938 11.165 24.938 24.938c-.016 13.766-11.172 24.922-24.938 24.938z"/></g></svg>