<svg width="64" height="64" fill="none" xmlns="http://www.w3.org/2000/svg"><g clip-path="url(#prefix__clip0_16_2727)"><mask id="prefix__a" style="mask-type:luminance" maskUnits="userSpaceOnUse" x="0" y="0" width="64" height="64"><path d="M64 0H0v64h64V0z" fill="#fff"/></mask><g mask="url(#prefix__a)"><mask id="prefix__b" style="mask-type:luminance" maskUnits="userSpaceOnUse" x="0" y="0" width="64" height="64"><path d="M64 .121H.121V64H64V.121z" fill="#fff"/></mask><g mask="url(#prefix__b)"><mask id="prefix__c" style="mask-type:luminance" maskUnits="userSpaceOnUse" x="0" y="0" width="64" height="64"><path d="M64 .121H.121V64H64V.121z" fill="#fff"/></mask><g mask="url(#prefix__c)"><mask id="prefix__d" style="mask-type:luminance" maskUnits="userSpaceOnUse" x="0" y="0" width="64" height="64"><path d="M64 .121H.121V64H64V.121z" fill="#fff"/></mask><g mask="url(#prefix__d)" fill="#fff"><path d="M32.06 10.768a9.316 9.316 0 019.316 9.315 9.316 9.316 0 11-18.631 0 9.325 9.325 0 019.316-9.315zm0-1.331c-5.88 0-10.646 4.766-10.646 10.646 0 5.88 4.767 10.647 10.647 10.647s10.646-4.767 10.646-10.647S37.94 9.437 32.061 9.437zM53.354 54.684h-1.331V44.371a4.703 4.703 0 00-1.814-3.606 27.257 27.257 0 00-9.822-4.779 28.587 28.587 0 00-8.326-1.264 31.726 31.726 0 00-8.334 1.264 32.688 32.688 0 00-9.84 4.792 4.69 4.69 0 00-1.789 3.593v10.313h-1.33V44.371a6.042 6.042 0 012.313-4.646 34.076 34.076 0 0110.288-5.018 33.067 33.067 0 018.692-1.316c2.949.008 5.88.451 8.7 1.317a28.532 28.532 0 0110.286 5.021 6.039 6.039 0 012.307 4.642v10.313z"/></g></g></g></g></g><defs><clipPath id="prefix__clip0_16_2727"><path fill="#fff" d="M0 0h64v64H0z"/></clipPath></defs></svg>