<svg width="63" height="63" fill="none" xmlns="http://www.w3.org/2000/svg"><g clip-path="url(#prefix__clip0_16_2764)"><mask id="prefix__a" style="mask-type:luminance" maskUnits="userSpaceOnUse" x="0" y="0" width="63" height="63"><path d="M63 0H0v63h63V0z" fill="#fff"/></mask><g mask="url(#prefix__a)"><mask id="prefix__b" style="mask-type:luminance" maskUnits="userSpaceOnUse" x="0" y="0" width="63" height="63"><path d="M62.88.12H0V63h62.88V.12z" fill="#fff"/></mask><g mask="url(#prefix__b)"><mask id="prefix__c" style="mask-type:luminance" maskUnits="userSpaceOnUse" x="0" y="0" width="63" height="63"><path d="M62.88.12H0V63h62.88V.12z" fill="#fff"/></mask><g mask="url(#prefix__c)"><mask id="prefix__d" style="mask-type:luminance" maskUnits="userSpaceOnUse" x="0" y="0" width="63" height="63"><path d="M62.88.12H0V63h62.88V.12z" fill="#fff"/></mask><g mask="url(#prefix__d)"><path d="M40.147 14.066L22.654 31.56l17.493 17.493.926-.926L24.506 31.56l16.567-16.567-.926-.927z" fill="#fff"/></g></g></g></g></g><defs><clipPath id="prefix__clip0_16_2764"><path fill="#fff" d="M0 0h63v63H0z"/></clipPath></defs></svg>