<svg width="78" height="78" fill="none" xmlns="http://www.w3.org/2000/svg"><g clip-path="url(#prefix__clip0_16_2782)"><mask id="prefix__a" style="mask-type:luminance" maskUnits="userSpaceOnUse" x="0" y="0" width="78" height="78"><path d="M78 0H0v78h78V0z" fill="#fff"/></mask><g mask="url(#prefix__a)"><mask id="prefix__b" style="mask-type:luminance" maskUnits="userSpaceOnUse" x="0" y="0" width="78" height="78"><path d="M78 .147H.148v77.706H78V.147z" fill="#fff"/></mask><g mask="url(#prefix__b)"><mask id="prefix__c" style="mask-type:luminance" maskUnits="userSpaceOnUse" x="0" y="0" width="78" height="78"><path d="M78 .147H.148v77.706H78V.147z" fill="#fff"/></mask><g mask="url(#prefix__c)"><mask id="prefix__d" style="mask-type:luminance" maskUnits="userSpaceOnUse" x="0" y="0" width="78" height="78"><path d="M78 .147H.148v77.706H78V.147z" fill="#fff"/></mask><g mask="url(#prefix__d)" fill="#fff"><path d="M9.068 18.764H69.08v1.62H9.07v-1.62zM9.068 38.19H69.08v1.62H9.07v-1.62zM9.068 57.617H69.08v1.62H9.07v-1.62z"/></g></g></g></g></g><defs><clipPath id="prefix__clip0_16_2782"><path fill="#fff" d="M0 0h78v78H0z"/></clipPath></defs></svg>