<svg width="268" height="268" fill="none" xmlns="http://www.w3.org/2000/svg"><g clip-path="url(#prefix__clip0_16_2820)"><mask id="prefix__a" style="mask-type:luminance" maskUnits="userSpaceOnUse" x="6" y="0" width="269" height="268"><path d="M274.091 0h-268v268h268V0z" fill="#fff"/></mask><g mask="url(#prefix__a)"><mask id="prefix__b" style="mask-type:luminance" maskUnits="userSpaceOnUse" x="6" y="0" width="268" height="269"><path d="M273.583.508H6.091V268h267.492V.508z" fill="#fff"/></mask><g mask="url(#prefix__b)"><mask id="prefix__c" style="mask-type:luminance" maskUnits="userSpaceOnUse" x="6" y="0" width="268" height="269"><path d="M273.583.508H6.091V268h267.492V.508z" fill="#fff"/></mask><g mask="url(#prefix__c)"><mask id="prefix__d" style="mask-type:luminance" maskUnits="userSpaceOnUse" x="6" y="0" width="268" height="269"><path d="M273.583.508H6.091V268h267.492V.508z" fill="#fff"/></mask><g mask="url(#prefix__d)"><path d="M145.073 36.49a102.681 102.681 0 0114.907 4.827c51.253 21.2 75.615 79.935 54.415 131.188-21.2 51.253-79.935 75.616-131.188 54.416a102.235 102.235 0 01-14.088-7.262c41.653-3.355 77.881-29.847 93.706-68.522 15.913-38.537 9.071-82.726-17.752-114.646zm-15.824-8.118c44.213 38.412 48.915 105.395 10.502 149.608a106.049 106.049 0 01-87.406 36.243 108.056 108.056 0 0028.7 17.833c54.215 22.089 116.074-3.954 138.163-58.17 21.916-53.79-3.538-115.2-57.08-137.712a108.623 108.623 0 00-32.879-7.802z" fill="#fff"/></g></g></g></g></g><defs><clipPath id="prefix__clip0_16_2820"><path fill="#fff" d="M0 0h268v268H0z"/></clipPath></defs></svg>