<svg width="61" height="61" fill="none" xmlns="http://www.w3.org/2000/svg"><g clip-path="url(#prefix__clip0_16_2856)"><mask id="prefix__a" style="mask-type:luminance" maskUnits="userSpaceOnUse" x="0" y="0" width="61" height="61"><path d="M61 0H0v61h61V0z" fill="#fff"/></mask><g mask="url(#prefix__a)"><mask id="prefix__b" style="mask-type:luminance" maskUnits="userSpaceOnUse" x="0" y="0" width="61" height="61"><path d="M60.885 0H0v60.885h60.885V0z" fill="#fff"/></mask><g mask="url(#prefix__b)"><mask id="prefix__c" style="mask-type:luminance" maskUnits="userSpaceOnUse" x="0" y="0" width="61" height="61"><path d="M60.885 0H0v60.885h60.885V0z" fill="#fff"/></mask><g mask="url(#prefix__c)"><mask id="prefix__d" style="mask-type:luminance" maskUnits="userSpaceOnUse" x="0" y="0" width="61" height="61"><path d="M60.885 0H0v60.885h60.885V0z" fill="#fff"/></mask><g mask="url(#prefix__d)"><path d="M51.809 46.565c-3.57-1.79-9.444-6.206-9.951-23.099a11.41 11.41 0 00-7.61-10.753v-.663a3.805 3.805 0 00-7.611 0v.663a11.41 11.41 0 00-7.61 10.753c-.508 16.893-6.38 21.31-9.951 23.1-1.453.722-.406 2.268.437 2.268H25.37a5.074 5.074 0 1010.147 0h15.855c.844 0 1.89-1.546.438-2.269zM27.905 12.05a2.537 2.537 0 015.074 0v.292a11.15 11.15 0 00-5.074 0v-.292zm2.537 40.59a3.81 3.81 0 01-3.805-3.806h7.61a3.81 3.81 0 01-3.805 3.806zM9.928 47.566a.006.006 0 010-.011c6.592-3.474 9.986-11.346 10.367-24.051v-.038a10.046 10.046 0 016.904-9.64c5.338-1.772 11.1 1.119 12.872 6.456.341 1.027.516 2.102.519 3.184v.038c.38 12.703 3.773 20.575 10.368 24.05.004 0 .006.003.006.006a.006.006 0 01-.005.006H9.928z" fill="#fff"/></g></g></g></g></g><defs><clipPath id="prefix__clip0_16_2856"><path fill="#fff" d="M0 0h61v61H0z"/></clipPath></defs></svg>