<svg width="226" height="227" xmlns="http://www.w3.org/2000/svg" xmlns:xlink="http://www.w3.org/1999/xlink" xml:space="preserve" overflow="hidden"><g transform="translate(-932 -101)"><g><g><g><g><path d="M1103.85 240.896 1103.85 184.396 1075.6 184.396 1075.6 127.896 1014.4 127.896 1014.4 184.396 986.146 184.396 986.146 240.896 957.896 240.896 957.896 302.104 1132.1 302.104 1132.1 240.896ZM1099.15 189.104 1099.15 240.896 1047.35 240.896 1047.35 189.104 1099.15 189.104ZM1019.1 132.604 1070.9 132.604 1070.9 184.396 1019.1 184.396ZM990.854 189.104 1042.65 189.104 1042.65 240.896 990.854 240.896ZM1014.4 297.396 962.604 297.396 962.604 245.604 1014.4 245.604ZM1070.9 297.396 1019.1 297.396 1019.1 245.604 1070.9 245.604ZM1127.4 297.396 1075.6 297.396 1075.6 245.604 1127.4 245.604Z" fill="#FFFFFF" fill-rule="nonzero" fill-opacity="1"/><path d="M1026.17 139.667 1037.94 139.667 1037.94 149.083 1026.17 149.083Z" fill="#FFFFFF" fill-rule="nonzero" fill-opacity="1"/><path d="M997.917 196.167 1009.69 196.167 1009.69 205.583 997.917 205.583Z" fill="#FFFFFF" fill-rule="nonzero" fill-opacity="1"/><path d="M969.667 252.667 981.438 252.667 981.438 262.083 969.667 262.083Z" fill="#FFFFFF" fill-rule="nonzero" fill-opacity="1"/><path d="M1026.17 252.667 1037.94 252.667 1037.94 262.083 1026.17 262.083Z" fill="#FFFFFF" fill-rule="nonzero" fill-opacity="1"/><path d="M1082.67 252.667 1094.44 252.667 1094.44 262.083 1082.67 262.083Z" fill="#FFFFFF" fill-rule="nonzero" fill-opacity="1"/><path d="M1054.42 196.167 1066.19 196.167 1066.19 205.583 1054.42 205.583Z" fill="#FFFFFF" fill-rule="nonzero" fill-opacity="1"/></g></g></g></g></g></svg>