<svg width="73" height="73" fill="none" xmlns="http://www.w3.org/2000/svg"><g clip-path="url(#prefix__clip0_16_2901)"><mask id="prefix__a" style="mask-type:luminance" maskUnits="userSpaceOnUse" x="0" y="0" width="73" height="73"><path d="M73 0H0v73h73V0z" fill="#fff"/></mask><g mask="url(#prefix__a)"><mask id="prefix__b" style="mask-type:luminance" maskUnits="userSpaceOnUse" x="0" y="0" width="73" height="73"><path d="M73 .138H.138V73H73V.138z" fill="#fff"/></mask><g mask="url(#prefix__b)"><mask id="prefix__c" style="mask-type:luminance" maskUnits="userSpaceOnUse" x="0" y="0" width="73" height="73"><path d="M73 .138H.138V73H73V.138z" fill="#fff"/></mask><g mask="url(#prefix__c)"><mask id="prefix__d" style="mask-type:luminance" maskUnits="userSpaceOnUse" x="0" y="0" width="73" height="73"><path d="M73 .138H.138V73H73V.138z" fill="#fff"/></mask><g mask="url(#prefix__d)" fill="#fff"><path d="M25.184 11.523H11.523v13.662h13.661V11.522zm-1.518 12.144H13.041V13.04h10.625v10.626zM11.523 61.615h13.661V47.954H11.523v13.661zm1.518-12.143h10.625v10.625H13.041V49.472zM49.472 11.523v13.662h13.661V11.522H49.472zm12.143 12.144H50.99V13.04h10.625v10.626z"/><path d="M19.113 32.774h13.661V13.041H43.4v-1.518H31.256v19.733H19.113v1.518zM40.364 19.113h1.518v6.072h-1.518v-6.072zM50.99 31.256H40.364v9.108h-9.108V50.99h6.831v-1.518h-5.313v-7.59h9.108v-9.108h7.59v9.108h13.661v-1.518H50.99v-9.108zM13.04 29.738h-1.517v12.144h13.661v-1.518H13.041V29.738z"/><path d="M44.918 60.097h-15.18v1.518h16.698V47.954h-1.518v12.143zM57.062 31.256h6.071v1.518h-6.071v-1.518zM54.026 61.615h9.107v-1.518h-7.59V50.99h7.59v-1.518h-9.107v12.143z"/></g></g></g></g></g><defs><clipPath id="prefix__clip0_16_2901"><path fill="#fff" d="M0 0h73v73H0z"/></clipPath></defs></svg>