<svg width="98" height="97" fill="none" xmlns="http://www.w3.org/2000/svg"><g clip-path="url(#prefix__clip0_18_3214)"><mask id="prefix__a" style="mask-type:luminance" maskUnits="userSpaceOnUse" x="0" y="0" width="98" height="97"><path d="M98 0H0v97h98V0z" fill="#fff"/></mask><g mask="url(#prefix__a)"><mask id="prefix__b" style="mask-type:luminance" maskUnits="userSpaceOnUse" x="1" y="1" width="96" height="96"><path d="M97 1H1v96h96V1z" fill="#fff"/></mask><g mask="url(#prefix__b)"><mask id="prefix__c" style="mask-type:luminance" maskUnits="userSpaceOnUse" x="1" y="1" width="96" height="96"><path d="M97 1H1v96h96V1z" fill="#fff"/></mask><g mask="url(#prefix__c)"><mask id="prefix__d" style="mask-type:luminance" maskUnits="userSpaceOnUse" x="1" y="1" width="96" height="96"><path d="M97 1H1v96h96V1z" fill="#fff"/></mask><g mask="url(#prefix__d)"><path d="M54.2 88.414L36.493 70.707a1.709 1.709 0 00-2.066-.311 6.276 6.276 0 00-3.327 5.278 7.23 7.23 0 01-4.431 7.009 9.637 9.637 0 01-10.461-1.961l-.715-.715a9.9 9.9 0 01-2.023-10.752 7.08 7.08 0 016.86-4.355 6.335 6.335 0 005.275-3.327c.378-.68.25-1.528-.312-2.066L7.589 41.8 20.39 28.9a3.707 3.707 0 014.272-.738 8.284 8.284 0 014.538 7.164 5.079 5.079 0 003.168 4.974 7.979 7.979 0 008.54-1.625l.685-.685a7.61 7.61 0 001.562-8.25 5.227 5.227 0 00-5.125-3.24 8.28 8.28 0 01-7.172-4.537 3.707 3.707 0 01.735-4.27L43.8 5.589l17.7 17.7c.54.561 1.39.689 2.07.311a6.298 6.298 0 003.33-5.274 7.238 7.238 0 014.43-7.009 9.637 9.637 0 0110.46 1.961l.72.715a9.9 9.9 0 012.02 10.752 7.066 7.066 0 01-6.86 4.355 6.272 6.272 0 00-5.27 3.327c-.38.679-.25 1.528.31 2.066L90.41 52.2l-12.1 12.107a3.702 3.702 0 01-4.27.735 8.273 8.273 0 01-4.54-7.168 5.084 5.084 0 00-3.17-4.974 7.973 7.973 0 00-8.537 1.625l-.686.685a7.61 7.61 0 00-1.562 8.25 5.238 5.238 0 005.125 3.24 8.133 8.133 0 017.18 4.5c.7 1.444.4 3.176-.75 4.3L54.2 88.414zM35.322 68.192a3.597 3.597 0 012.585 1.1L54.2 85.586l11.49-11.493c.57-.546.71-1.408.32-2.1a6.133 6.133 0 00-5.28-3.293 7.244 7.244 0 01-7.013-4.431 9.636 9.636 0 011.961-10.461l.715-.715A9.906 9.906 0 0167.15 51.07a7.085 7.085 0 014.35 6.86 6.28 6.28 0 003.33 5.275c.68.377 1.53.249 2.06-.312L87.59 52.2l-16.3-16.293a3.7 3.7 0 01-.73-4.27 8.246 8.246 0 017.17-4.537 5.076 5.076 0 004.97-3.168 7.985 7.985 0 00-1.62-8.54l-.69-.685a7.61 7.61 0 00-8.25-1.562 5.23 5.23 0 00-3.24 5.125 8.277 8.277 0 01-4.54 7.172 3.702 3.702 0 01-4.27-.735L43.8 8.411 33 19.11a1.71 1.71 0 00-.308 2.063 6.256 6.256 0 005.282 3.327 7.242 7.242 0 017.009 4.431 9.636 9.636 0 01-1.961 10.461l-.715.715a9.9 9.9 0 01-10.751 2.023 7.082 7.082 0 01-4.356-6.86A6.28 6.28 0 0023.873 30a1.712 1.712 0 00-2.066.312L10.411 41.8l16.3 16.3a3.7 3.7 0 01.735 4.27 8.3 8.3 0 01-7.172 4.53 5.1 5.1 0 00-4.974 3.168 7.979 7.979 0 001.625 8.54l.685.685a7.61 7.61 0 008.25 1.562 5.221 5.221 0 003.24-5.125 8.284 8.284 0 014.536-7.172 4.277 4.277 0 011.686-.366z" fill="#fff"/></g></g></g></g></g><defs><clipPath id="prefix__clip0_18_3214"><path fill="#fff" d="M0 0h98v97H0z"/></clipPath></defs></svg>