<svg width="88" height="88" fill="none" xmlns="http://www.w3.org/2000/svg"><g clip-path="url(#prefix__clip0_16_2946)"><mask id="prefix__a" style="mask-type:luminance" maskUnits="userSpaceOnUse" x="0" y="0" width="88" height="88"><path d="M88 0H0v88h88V0z" fill="#fff"/></mask><g mask="url(#prefix__a)"><mask id="prefix__b" style="mask-type:luminance" maskUnits="userSpaceOnUse" x="0" y="0" width="88" height="88"><path d="M88 .167H.167V88H88V.167z" fill="#fff"/></mask><g mask="url(#prefix__b)"><mask id="prefix__c" style="mask-type:luminance" maskUnits="userSpaceOnUse" x="0" y="0" width="88" height="88"><path d="M88 .167H.167V88H88V.167z" fill="#fff"/></mask><g mask="url(#prefix__c)"><mask id="prefix__d" style="mask-type:luminance" maskUnits="userSpaceOnUse" x="0" y="0" width="88" height="88"><path d="M88 .167H.167V88H88V.167z" fill="#fff"/></mask><g mask="url(#prefix__d)"><path d="M30.628 20.942l23.14 23.141-23.14 23.142 1.293 1.293 24.435-24.435-24.435-24.435-1.293 1.294z" fill="#fff"/></g></g></g></g></g><defs><clipPath id="prefix__clip0_16_2946"><path fill="#fff" d="M0 0h88v88H0z"/></clipPath></defs></svg>