<svg width="214" height="212" xmlns="http://www.w3.org/2000/svg" xmlns:xlink="http://www.w3.org/1999/xlink" xml:space="preserve" overflow="hidden"><g transform="translate(-570 -373)"><g><g><g><g><path d="M158.25 189.021 158.25 19.7812 52.75 19.7812 52.75 189.021 21.9792 189.021 21.9792 193.417 57.1458 193.417 57.1458 24.1771 153.854 24.1771 153.854 193.417 189.021 193.417 189.021 189.021Z" fill="#FFFFFF" fill-rule="nonzero" fill-opacity="1" transform="matrix(1.00474 0 0 1 571 374)"/><path d="M65.9375 193.636 134.073 184.185 134.073 41.9802 65.9375 32.5292 65.9375 193.636ZM70.3333 37.5844 129.677 45.7167 129.677 180.449 70.3333 188.581 70.3333 37.5844Z" fill="#FFFFFF" fill-rule="nonzero" fill-opacity="1" transform="matrix(1.00474 0 0 1 571 374)"/><path d="M122.424 107.698C120.006 107.918 118.028 109.676 117.589 112.094L107.698 112.094 107.698 116.49 117.589 116.49C118.028 118.907 120.006 120.666 122.424 120.885 125.281 120.885 127.479 118.028 127.479 114.292 127.479 110.555 125.281 107.698 122.424 107.698ZM122.424 112.094C122.644 112.094 123.083 113.193 123.083 114.292 123.083 115.171 122.644 116.49 122.424 116.49 121.984 116.49 121.545 115.171 121.765 114.292 121.545 113.193 122.204 112.094 122.424 112.094Z" fill="#FFFFFF" fill-rule="nonzero" fill-opacity="1" transform="matrix(1.00474 0 0 1 571 374)"/></g></g></g></g></g></svg>