<svg width="92" height="92" fill="none" xmlns="http://www.w3.org/2000/svg"><g clip-path="url(#prefix__clip0_16_2982)"><mask id="prefix__a" style="mask-type:luminance" maskUnits="userSpaceOnUse" x="0" y="0" width="92" height="92"><path d="M92 0H0v92h92V0z" fill="#fff"/></mask><g mask="url(#prefix__a)"><mask id="prefix__b" style="mask-type:luminance" maskUnits="userSpaceOnUse" x="0" y="0" width="92" height="92"><path d="M92 .174H.174V92H92V.174z" fill="#fff"/></mask><g mask="url(#prefix__b)"><mask id="prefix__c" style="mask-type:luminance" maskUnits="userSpaceOnUse" x="0" y="0" width="92" height="92"><path d="M92 .174H.174V92H92V.174z" fill="#fff"/></mask><g mask="url(#prefix__c)"><mask id="prefix__d" style="mask-type:luminance" maskUnits="userSpaceOnUse" x="0" y="0" width="92" height="92"><path d="M92 .174H.174V92H92V.174z" fill="#fff"/></mask><g mask="url(#prefix__d)" fill="#fff"><path d="M22.748 59.208l-2.391 7.174 5.452 5.452 7.174-2.392a27.543 27.543 0 006.026 2.487l3.348 6.696h7.652l3.348-6.696a25.033 25.033 0 005.93-2.487l7.174 2.392 5.452-5.452-2.391-7.174a27.61 27.61 0 002.487-6.026l6.695-3.348v-7.652l-6.79-3.253A25.09 25.09 0 0069.425 33l2.391-7.174-5.452-5.452-7.174 2.391a27.557 27.557 0 00-6.026-2.487l-3.252-6.712h-7.652l-3.348 6.696a25.039 25.039 0 00-5.93 2.487l-7.174-2.391-5.452 5.452 2.391 7.174a27.61 27.61 0 00-2.487 6.026l-6.695 3.252v7.652l6.695 3.348c.57 2.08 1.406 4.08 2.487 5.947zm-7.27-15.738l5.62-2.73.78-.383.23-.837a25.809 25.809 0 012.317-5.61l.403-.733-.264-.794-2.019-6.054 3.781-3.782 6.052 2.018.818.273.746-.432a23.085 23.085 0 015.475-2.296l.826-.225.382-.765 2.82-5.642h5.273l2.726 5.625.382.78.838.229a25.845 25.845 0 015.608 2.319l.734.403.794-.265 6.052-2.018 3.78 3.782-2.017 6.054-.273.818.432.745a23.046 23.046 0 012.296 5.477l.23.844.79.378 5.701 2.733v5.268l-5.638 2.82-.766.382-.224.825a25.829 25.829 0 01-2.318 5.61l-.403.732.264.794 2.019 6.054-3.781 3.782-6.052-2.018-.818-.273-.746.432a23.079 23.079 0 01-5.476 2.296l-.825.225-.382.765-2.82 5.644H43.54l-2.819-5.644-.383-.765-.825-.225a25.841 25.841 0 01-5.607-2.319l-.734-.403-.794.265-6.052 2.018-3.78-3.782 2.018-6.052.272-.818-.431-.746a23.023 23.023 0 01-2.296-5.477l-.226-.824-.765-.383-5.64-2.82V43.47z"/><path d="M46.087 57.582c6.34 0 11.478-5.14 11.478-11.479 0-6.339-5.139-11.478-11.478-11.478-6.34 0-11.478 5.14-11.478 11.478.02 6.331 5.147 11.459 11.478 11.479zm0-21.05a9.565 9.565 0 11-9.565 9.565 9.578 9.578 0 019.565-9.566z"/></g></g></g></g></g><defs><clipPath id="prefix__clip0_16_2982"><path fill="#fff" d="M0 0h92v92H0z"/></clipPath></defs></svg>