<svg width="228" height="227" xmlns="http://www.w3.org/2000/svg" xmlns:xlink="http://www.w3.org/1999/xlink" xml:space="preserve" overflow="hidden"><g transform="translate(-472 -165)"><g><g><g><g><path d="M688.67 259.46 586.014 222.735 483.358 259.46 503.604 266.568 503.604 307.485C503.604 308.786 504.658 309.84 505.958 309.84 507.259 309.84 508.312 308.786 508.312 307.485L508.312 268.218 524.881 274.033 524.881 307.933C524.881 321.728 552.877 333.381 586.014 333.381 619.151 333.381 647.149 321.728 647.149 307.937L647.149 274.033ZM586.014 227.738 674.517 259.399C674.552 259.411 674.552 259.43 674.517 259.442L586.014 290.493 497.521 259.442C497.486 259.43 497.486 259.411 497.521 259.399ZM642.441 307.937C642.441 317.526 617.793 328.673 586.014 328.673 554.235 328.673 529.589 317.526 529.589 307.937L529.589 275.685 586.014 295.479 642.441 275.681Z" fill="#FFFFFF" fill-rule="nonzero" fill-opacity="1"/></g></g></g></g></g></svg>