<svg width="55" height="55" fill="none" xmlns="http://www.w3.org/2000/svg"><g clip-path="url(#prefix__clip0_16_3020)"><mask id="prefix__a" style="mask-type:luminance" maskUnits="userSpaceOnUse" x="0" y="0" width="55" height="55"><path d="M55 0H0v55h55V0z" fill="#fff"/></mask><g mask="url(#prefix__a)"><mask id="prefix__b" style="mask-type:luminance" maskUnits="userSpaceOnUse" x="0" y="0" width="55" height="55"><path d="M54.896.104H0V55h54.896V.104z" fill="#fff"/></mask><g mask="url(#prefix__b)"><mask id="prefix__c" style="mask-type:luminance" maskUnits="userSpaceOnUse" x="0" y="0" width="55" height="55"><path d="M54.896.104H0V55h54.896V.104z" fill="#fff"/></mask><g mask="url(#prefix__c)"><mask id="prefix__d" style="mask-type:luminance" maskUnits="userSpaceOnUse" x="0" y="0" width="55" height="55"><path d="M54.896.104H0V55h54.896V.104z" fill="#fff"/></mask><g mask="url(#prefix__d)" fill="#fff"><path d="M41.744 4.679h-30.88v45.724h30.88a2.867 2.867 0 002.87-2.86V7.539a2.867 2.867 0 00-2.87-2.86zM12.008 5.822h3.58V49.26h-3.58V5.822zM43.47 47.545a1.722 1.722 0 01-1.726 1.715H16.732V5.822h25.012a1.722 1.722 0 011.726 1.716v40.007z"/><path d="M22.302 19.547h16.01v1.143h-16.01v-1.143zM25.732 25.837h9.15v1.143h-9.15v-1.143z"/></g></g></g></g></g><defs><clipPath id="prefix__clip0_16_3020"><path fill="#fff" d="M0 0h55v55H0z"/></clipPath></defs></svg>