<svg width="267" height="267" fill="none" xmlns="http://www.w3.org/2000/svg"><g clip-path="url(#prefix__clip0_16_3066)"><mask id="prefix__a" style="mask-type:luminance" maskUnits="userSpaceOnUse" x="0" y="0" width="267" height="267"><path d="M267 0H0v267h267V0z" fill="#fff"/></mask><g mask="url(#prefix__a)"><mask id="prefix__b" style="mask-type:luminance" maskUnits="userSpaceOnUse" x="0" y="0" width="267" height="267"><path d="M267 .506H.506V267H267V.506z" fill="#fff"/></mask><g mask="url(#prefix__b)"><mask id="prefix__c" style="mask-type:luminance" maskUnits="userSpaceOnUse" x="0" y="0" width="267" height="267"><path d="M267 .506H.506V267H267V.506z" fill="#fff"/></mask><g mask="url(#prefix__c)"><mask id="prefix__d" style="mask-type:luminance" maskUnits="userSpaceOnUse" x="0" y="0" width="267" height="267"><path d="M267 .506H.506V267H267V.506z" fill="#fff"/></mask><g fill="#fff" mask="url(#prefix__d)"><path d="M133.753 94.89c-21.464 0-38.864 17.399-38.864 38.863s17.4 38.864 38.864 38.864c21.463 0 38.864-17.4 38.864-38.864-.023-21.455-17.41-38.841-38.864-38.864zm0 72.175c-18.398 0-33.312-14.914-33.312-33.312 0-18.398 14.914-33.312 33.312-33.312 18.398 0 33.312 14.914 33.312 33.312-.021 18.389-14.923 33.292-33.312 33.312zM130.977 53.25h5.552v30.535h-5.552V53.25zM130.977 183.72h5.552v30.536h-5.552V183.72zM183.72 130.977h30.536v5.552H183.72v-5.552zM53.25 130.977h30.535v5.552H53.25v-5.552zM167.123 96.457l21.592-21.592 3.926 3.926-21.592 21.592-3.926-3.926zM74.866 188.714l21.592-21.592 3.926 3.926-21.592 21.593-3.926-3.927zM167.123 171.048l3.926-3.925 21.591 21.592-3.926 3.926-21.591-21.593zM74.866 78.792l3.926-3.925 21.592 21.592-3.926 3.926-21.592-21.593z"/></g></g></g></g></g><defs><clipPath id="prefix__clip0_16_3066"><path fill="#fff" d="M0 0h267v267H0z"/></clipPath></defs></svg>