<svg width="67" height="67" fill="none" xmlns="http://www.w3.org/2000/svg"><g clip-path="url(#prefix__clip0_16_3115)"><mask id="prefix__a" style="mask-type:luminance" maskUnits="userSpaceOnUse" x="0" y="0" width="67" height="67"><path d="M67 0H0v67h67V0z" fill="#fff"/></mask><g mask="url(#prefix__a)"><mask id="prefix__b" style="mask-type:luminance" maskUnits="userSpaceOnUse" x="0" y="0" width="67" height="67"><path d="M67 .127H.127V67H67V.127z" fill="#fff"/></mask><g mask="url(#prefix__b)"><mask id="prefix__c" style="mask-type:luminance" maskUnits="userSpaceOnUse" x="0" y="0" width="67" height="67"><path d="M67 .127H.127V67H67V.127z" fill="#fff"/></mask><g mask="url(#prefix__c)"><mask id="prefix__d" style="mask-type:luminance" maskUnits="userSpaceOnUse" x="0" y="0" width="67" height="67"><path d="M67 .127H.127V67H67V.127z" fill="#fff"/></mask><g mask="url(#prefix__d)" fill="#fff"><path d="M33.563 24.515a1.393 1.393 0 100-2.786 1.393 1.393 0 000 2.786zM33.563 49.6a1.393 1.393 0 100 2.785 1.393 1.393 0 000-2.786zM47.495 34.966a1.393 1.393 0 100 2.787 1.393 1.393 0 000-2.787zM19.631 34.966a1.393 1.393 0 100 2.787 1.393 1.393 0 000-2.787zM34.26 26.598h-1.393v10.04l7.17 7.17.985-.985-6.762-6.761v-9.464z"/><path d="M48.51 19.602l2.96-2.96a.697.697 0 00-.984-.986l-3.065 3.065a22.864 22.864 0 00-13.16-4.645V9.88h6.965V8.486H25.9V9.88h6.966v4.197c-12.705.37-22.703 10.97-22.333 23.675.37 12.705 10.97 22.703 23.675 22.332 12.704-.37 22.703-10.97 22.332-23.674a23.014 23.014 0 00-8.031-16.807zM33.563 58.641c-11.926 0-21.594-9.668-21.594-21.594 0-11.927 9.668-21.595 21.594-21.595 11.927 0 21.595 9.668 21.595 21.595-.014 11.92-9.674 21.58-21.595 21.594z"/></g></g></g></g></g><defs><clipPath id="prefix__clip0_16_3115"><path fill="#fff" d="M0 0h67v67H0z"/></clipPath></defs></svg>