<svg width="76" height="76" fill="none" xmlns="http://www.w3.org/2000/svg"><g clip-path="url(#prefix__clip0_16_3156)"><mask id="prefix__a" style="mask-type:luminance" maskUnits="userSpaceOnUse" x="0" y="0" width="76" height="76"><path d="M76 0H0v76h76V0z" fill="#fff"/></mask><g mask="url(#prefix__a)"><mask id="prefix__b" style="mask-type:luminance" maskUnits="userSpaceOnUse" x="0" y="0" width="76" height="76"><path d="M76 0H.144v75.856H76V0z" fill="#fff"/></mask><g mask="url(#prefix__b)"><mask id="prefix__c" style="mask-type:luminance" maskUnits="userSpaceOnUse" x="0" y="0" width="76" height="76"><path d="M76 0H.144v75.856H76V0z" fill="#fff"/></mask><g mask="url(#prefix__c)"><mask id="prefix__d" style="mask-type:luminance" maskUnits="userSpaceOnUse" x="0" y="0" width="76" height="76"><path d="M76 0H.144v75.856H76V0z" fill="#fff"/></mask><g mask="url(#prefix__d)"><path d="M59.175 25.517a.79.79 0 00-1.117 1.117l10.49 10.49a.008.008 0 010 .012.008.008 0 01-.005.002H5.675a.79.79 0 000 1.58h62.867a.008.008 0 01.006.013l-10.49 10.49a.79.79 0 101.098 1.138l.019-.02 11.853-11.852a.79.79 0 000-1.118L59.175 25.517z" fill="#fff"/></g></g></g></g></g><defs><clipPath id="prefix__clip0_16_3156"><path fill="#fff" d="M0 0h76v76H0z"/></clipPath></defs></svg>