<svg width="45" height="45" fill="none" xmlns="http://www.w3.org/2000/svg"><g clip-path="url(#prefix__clip0_16_2543)"><mask id="prefix__a" style="mask-type:luminance" maskUnits="userSpaceOnUse" x="0" y="0" width="45" height="45"><path d="M45 0H0v45h45V0z" fill="#fff"/></mask><g mask="url(#prefix__a)"><mask id="prefix__b" style="mask-type:luminance" maskUnits="userSpaceOnUse" x="0" y="0" width="45" height="45"><path d="M45 0H.085v44.915H45V0z" fill="#fff"/></mask><g mask="url(#prefix__b)"><mask id="prefix__c" style="mask-type:luminance" maskUnits="userSpaceOnUse" x="0" y="0" width="45" height="45"><path d="M45 0H.085v44.915H45V0z" fill="#fff"/></mask><g mask="url(#prefix__c)"><mask id="prefix__d" style="mask-type:luminance" maskUnits="userSpaceOnUse" x="0" y="0" width="45" height="45"><path d="M45 0H.085v44.915H45V0z" fill="#fff"/></mask><g mask="url(#prefix__d)"><path d="M41.257 19.65H25.35V3.743h-5.615V19.65H3.828v5.615h15.907v15.907h5.615V25.265h15.907V19.65z" fill="#fff"/></g></g></g></g></g><defs><clipPath id="prefix__clip0_16_2543"><path fill="#fff" d="M0 0h45v45H0z"/></clipPath></defs></svg>