<svg width="73" height="73" fill="none" xmlns="http://www.w3.org/2000/svg"><g clip-path="url(#prefix__clip0_16_2579)"><mask id="prefix__a" style="mask-type:luminance" maskUnits="userSpaceOnUse" x="0" y="0" width="73" height="73"><path d="M73 0H0v73h73V0z" fill="#fff"/></mask><g mask="url(#prefix__a)"><mask id="prefix__b" style="mask-type:luminance" maskUnits="userSpaceOnUse" x="0" y="0" width="73" height="73"><path d="M73 0H.138v72.862H73V0z" fill="#fff"/></mask><g mask="url(#prefix__b)"><mask id="prefix__c" style="mask-type:luminance" maskUnits="userSpaceOnUse" x="0" y="0" width="73" height="73"><path d="M73 0H.138v72.862H73V0z" fill="#fff"/></mask><g mask="url(#prefix__c)"><mask id="prefix__d" style="mask-type:luminance" maskUnits="userSpaceOnUse" x="0" y="0" width="73" height="73"><path d="M73 0H.138v72.862H73V0z" fill="#fff"/></mask><g mask="url(#prefix__d)" fill="#fff"><path d="M34.755 51.717a3.446 3.446 0 11-6.891 0 3.446 3.446 0 016.891 0zM38.087 62.995V59.55a1.799 1.799 0 00-.683-1.373 9.37 9.37 0 00-3.332-1.64 9.652 9.652 0 00-2.816-.425c-.953.015-1.9.158-2.816.425a11.011 11.011 0 00-3.332 1.64 1.798 1.798 0 00-.683 1.373v3.446h13.662zM49.828 51.717a3.446 3.446 0 11-6.89 0 3.446 3.446 0 016.89 0zM53.267 62.995V59.55a1.798 1.798 0 00-.684-1.373 9.37 9.37 0 00-3.331-1.64 9.653 9.653 0 00-2.816-.425c-.954.015-1.9.158-2.816.425a11.01 11.01 0 00-3.332 1.64 1.799 1.799 0 00-.683 1.373v3.446h13.662zM65.008 51.717a3.446 3.446 0 11-6.891 0 3.446 3.446 0 016.891 0zM68.446 62.995V59.55a1.798 1.798 0 00-.683-1.373 9.37 9.37 0 00-3.332-1.64 9.655 9.655 0 00-2.816-.425c-.953.015-1.9.158-2.816.425a11.011 11.011 0 00-3.331 1.64 1.798 1.798 0 00-.684 1.373v3.446h13.662zM20.95 19.855a4.508 4.508 0 11-9.017 0 4.508 4.508 0 019.016 0z"/><path d="M43.028 18.117a1.146 1.146 0 00-1.61 0l-9.805 9.806a2.277 2.277 0 00-2.209.562c-.159.159-2.99 4.789-2.99 4.789l-.85-3.62a2.747 2.747 0 00-.676-1.245 13.557 13.557 0 00-4.736-2.475 20.66 20.66 0 00-3.711-.448c-1.26.02-2.51.209-3.719.562a11.926 11.926 0 00-4.728 2.475 2.672 2.672 0 00-.676 1.244S4.047 43.505 4.047 43.732a2.277 2.277 0 002.277 2.277 2.277 2.277 0 002.14-1.685l2.368-9.798V66.03h4.486V45.76h2.277V66.03h4.478v-31.65l.835 3.568a.857.857 0 00.447.57 5.184 5.184 0 003.036 1.07c.716.1 1.426-.223 1.822-.828l4.63-7.59a2.216 2.216 0 00.31-1.57l9.867-9.867c.447-.445.45-1.168.008-1.617z"/><path d="M58.58 7.59H21.39a3.036 3.036 0 00-3.036 3.036v2.732a6.526 6.526 0 013.036 1.822v-4.554h37.19v25.046H32.675l-1.852 3.036h27.755a3.036 3.036 0 003.036-3.036V10.626A3.036 3.036 0 0058.58 7.59z"/></g></g></g></g></g><defs><clipPath id="prefix__clip0_16_2579"><path fill="#fff" d="M0 0h73v73H0z"/></clipPath></defs></svg>