<svg width="64" height="64" fill="none" xmlns="http://www.w3.org/2000/svg"><g clip-path="url(#prefix__clip0_16_2632)"><mask id="prefix__a" style="mask-type:luminance" maskUnits="userSpaceOnUse" x="0" y="0" width="64" height="64"><path d="M64 0H0v64h64V0z" fill="#fff"/></mask><g mask="url(#prefix__a)"><mask id="prefix__b" style="mask-type:luminance" maskUnits="userSpaceOnUse" x="0" y="0" width="64" height="64"><path d="M64 .121H.121V64H64V.121z" fill="#fff"/></mask><g mask="url(#prefix__b)"><mask id="prefix__c" style="mask-type:luminance" maskUnits="userSpaceOnUse" x="0" y="0" width="64" height="64"><path d="M64 .121H.121V64H64V.121z" fill="#fff"/></mask><g mask="url(#prefix__c)"><mask id="prefix__d" style="mask-type:luminance" maskUnits="userSpaceOnUse" x="0" y="0" width="64" height="64"><path d="M64 .121H.121V64H64V.121z" fill="#fff"/></mask><g mask="url(#prefix__d)" fill="#fff"><path d="M50.692 21.414v5.323h-5.323v-5.323h5.323zM13.429 45.37h5.324v5.323h-5.324v-5.323zm13.308-23.955v5.323h-5.323v-5.323h5.323zm7.985 0v5.323H29.4v-5.323h5.323zm7.985 13.308h-5.323V29.4h5.323v5.323zm2.662 0V29.4h5.323v5.323h-5.323zm0 7.985v-5.323h5.323v5.323h-5.323zm-15.97 2.662h5.323v5.323H29.4v-5.323zm-2.662 0v5.323h-5.323v-5.323h5.323zm-5.323-7.985h5.323v5.323h-5.323v-5.323zm-2.662 0v5.323H13.43v-5.323h5.324zm0-7.985v5.323H13.43V29.4h5.324zm7.985 5.323h-5.323V29.4h5.323v5.323zm2.662 0V29.4h5.323v5.323H29.4zm5.323 7.985H29.4v-5.323h5.323v5.323zm2.662 0v-5.323h5.323v5.323h-5.323zm5.323-21.293v5.323h-5.323v-5.323h5.323zm-33.27-3.992v37.262h45.247V17.422H9.437zM9.437 9.437h45.247v5.323H9.437V9.437z"/></g></g></g></g></g><defs><clipPath id="prefix__clip0_16_2632"><path fill="#fff" d="M0 0h64v64H0z"/></clipPath></defs></svg>