<svg width="159" height="159" xmlns="http://www.w3.org/2000/svg" xmlns:xlink="http://www.w3.org/1999/xlink" xml:space="preserve" overflow="hidden"><g transform="translate(-706 -90)"><path d="M723.473 230.781C728.001 235.309 735.342 235.309 739.87 230.782 739.87 230.782 739.87 230.782 739.87 230.781L760.656 209.995C763.357 207.293 764.553 203.433 763.853 199.677L771.091 192.356C792.951 209.095 824.242 204.942 840.981 183.081 857.719 161.22 853.567 129.93 831.706 113.191 809.845 96.4526 778.554 100.605 761.816 122.466 748.122 140.351 748.122 165.196 761.816 183.081L754.495 190.402C750.739 189.702 746.879 190.898 744.177 193.598L723.473 214.302C718.923 218.806 718.885 226.147 723.39 230.697 723.417 230.725 723.445 230.753 723.473 230.781ZM761.484 152.938C761.484 130.984 779.281 113.188 801.234 113.188 823.188 113.188 840.984 130.984 840.984 152.938 840.984 174.891 823.188 192.688 801.234 192.688 779.307 192.624 761.548 174.864 761.484 152.938Z" fill="#FFFFFF"/><path d="M826.906 163.604 819.337 156.101C819.072 155.899 818.757 155.773 818.426 155.737L813.756 155.737C813.59 154.743 813.408 153.732 813.193 152.755L819.254 151.596C820.001 151.457 820.59 150.882 820.745 150.138L823.279 138.694C823.532 137.673 822.91 136.64 821.888 136.387 821.872 136.383 821.855 136.379 821.838 136.375 820.831 136.143 819.826 136.771 819.594 137.778 819.591 137.791 819.588 137.803 819.586 137.816L817.317 148.052 812.149 149.029C811.859 148.074 811.447 147.161 810.923 146.312L791.545 146.312C791.018 147.177 790.606 148.107 790.32 149.078L785.152 148.101 782.9 137.866C782.595 136.859 781.532 136.289 780.525 136.594 779.628 136.865 779.062 137.749 779.19 138.677L781.724 150.122C781.887 150.861 782.472 151.433 783.214 151.579L789.276 152.739C789.061 153.716 788.879 154.726 788.73 155.72L783.993 155.72C783.656 155.753 783.335 155.879 783.065 156.084L775.562 163.604C774.726 164.23 774.555 165.417 775.182 166.254 775.808 167.091 776.995 167.261 777.832 166.635L784.987 159.43 788.299 159.43C788.299 159.993 788.299 160.49 788.299 160.921 788.305 161.908 788.421 162.891 788.647 163.852L783.811 165.061C783.197 165.212 782.7 165.66 782.486 166.254L778.527 177.086C778.17 178.069 778.673 179.156 779.653 179.52 779.862 179.591 780.079 179.63 780.299 179.636 781.097 179.638 781.811 179.142 782.088 178.394L785.699 168.457 790.071 167.363C791.999 170.639 795.282 172.89 799.032 173.508L799.644 173.309 799.644 159.562C799.644 158.648 800.386 157.906 801.301 157.906 802.215 157.906 802.957 158.648 802.957 159.562L802.957 173.342 803.57 173.541C807.323 172.931 810.609 170.678 812.53 167.397L816.902 168.49 820.53 178.427C820.797 179.175 821.507 179.674 822.302 179.669 822.522 179.663 822.739 179.624 822.948 179.553 823.928 179.189 824.431 178.102 824.074 177.119L820.049 166.188C819.835 165.593 819.338 165.146 818.724 164.995L813.888 163.786C814.114 162.825 814.23 161.841 814.236 160.854 814.236 160.424 814.236 159.927 814.236 159.364L817.548 159.364 824.703 166.568C825.393 167.351 826.586 167.427 827.368 166.738 828.151 166.048 828.227 164.855 827.537 164.073 827.362 163.874 827.147 163.714 826.906 163.604Z" fill="#FFFFFF"/><path d="M811.073 125.51C811.682 125.206 811.939 124.472 811.652 123.854 811.336 123.257 810.61 123.01 809.996 123.291 808.4 124.102 807.051 125.326 806.087 126.835 805.387 127.941 804.83 129.132 804.431 130.379 802.42 129.584 800.182 129.584 798.17 130.379 797.785 129.127 797.227 127.934 796.514 126.835 795.554 125.323 794.204 124.098 792.605 123.291 791.992 123.001 791.259 123.25 790.949 123.854 790.65 124.467 790.902 125.206 791.512 125.51 792.653 126.115 793.617 127.005 794.311 128.094 794.998 129.164 795.507 130.339 795.818 131.572 792.868 133.944 791.196 137.559 791.297 141.344 791.302 141.898 791.341 142.451 791.413 143L811.056 143C811.128 142.451 811.167 141.898 811.172 141.344 811.25 137.583 809.58 133.998 806.65 131.638 806.962 130.405 807.471 129.23 808.157 128.16 808.875 127.032 809.881 126.117 811.073 125.51Z" fill="#FFFFFF"/></g></svg>