<svg width="500" height="501" xmlns="http://www.w3.org/2000/svg" xmlns:xlink="http://www.w3.org/1999/xlink" xml:space="preserve" overflow="hidden"><g transform="translate(-660 -109)"><g><g><g><g><path d="M1066.25 214.167 977.708 214.167 977.708 188.125C977.708 167.812 961.562 151.667 941.25 151.667L878.75 151.667C858.438 151.667 842.292 167.812 842.292 188.125L842.292 214.167 753.75 214.167C742.292 214.167 732.917 223.542 732.917 235L732.917 255.833 1087.08 255.833 1087.08 235C1087.08 223.542 1077.71 214.167 1066.25 214.167ZM873.542 188.125C873.542 185 875.625 182.917 878.75 182.917L941.25 182.917C944.375 182.917 946.458 185 946.458 188.125L946.458 214.167 873.542 214.167 873.542 188.125Z" fill="#FFFFFF" fill-rule="nonzero" fill-opacity="1"/><path d="M764.167 547.5C764.167 558.958 773.542 568.333 785 568.333L1035 568.333C1046.46 568.333 1055.83 558.958 1055.83 547.5L1055.83 276.667 764.167 276.667 764.167 547.5ZM977.708 307.917 1008.96 307.917 1008.96 537.083 977.708 537.083 977.708 307.917ZM894.375 307.917 925.625 307.917 925.625 537.083 894.375 537.083 894.375 307.917ZM811.042 307.917 842.292 307.917 842.292 537.083 811.042 537.083 811.042 307.917Z" fill="#FFFFFF" fill-rule="nonzero" fill-opacity="1"/></g></g></g></g></g></svg>