<svg width="98" height="96" xmlns="http://www.w3.org/2000/svg" xmlns:xlink="http://www.w3.org/1999/xlink" xml:space="preserve" overflow="hidden"><g transform="translate(-762 -408)"><g><g><g><g><path d="M845 478 777 478 777 434 845 434 845 478ZM816 482 806 482C805.4 482 805 481.6 805 481 805 480.4 805.4 480 806 480L816 480C816.6 480 817 480.4 817 481 817 481.6 816.6 482 816 482ZM811 430C811.6 430 812 430.4 812 431 812 431.6 811.6 432 811 432 810.4 432 810 431.6 810 431 810 430.4 810.4 430 811 430ZM847 428 775 428C772.8 428 771 429.8 771 432L771 480C771 482.2 772.8 484 775 484L847 484C849.2 484 851 482.2 851 480L851 432C851 429.8 849.2 428 847 428Z" fill="#FFFFFF" fill-rule="nonzero" fill-opacity="1"/></g></g></g></g></g></svg>