<svg width="454" height="451" xmlns="http://www.w3.org/2000/svg" overflow="hidden"><g fill="#FFF"><path d="M213.938 33.813c18.096 57.828 56.56 103.43 105.339 124.879-48.779 21.45-87.243 67.03-105.339 124.879-18.099-57.83-56.56-103.43-105.339-124.88 48.779-21.449 87.24-67.05 105.339-124.878zM318.833 247.403c12.374 39.534 38.675 70.72 72.027 85.391-33.352 14.668-59.653 45.849-72.027 85.392-12.374-39.543-38.677-70.724-72.029-85.392 33.352-14.672 59.655-45.857 72.029-85.391zM118.74 249.934a87.022 87.022 0 0046.242 54.843 87.02 87.02 0 00-46.242 54.816 87.011 87.011 0 00-46.237-54.844 87.025 87.025 0 0046.237-54.82z"/></g></svg>