<svg width="96" height="96" xmlns="http://www.w3.org/2000/svg" xmlns:xlink="http://www.w3.org/1999/xlink" xml:space="preserve" overflow="hidden"><g transform="translate(-1019 -428)"><path d="M1069 458 1065 458C1062.8 458 1061 456.2 1061 454L1061 446C1061 443.8 1062.8 442 1065 442L1069 442C1071.2 442 1073 443.8 1073 446L1073 454C1073 456.2 1071.2 458 1069 458Z" fill="#FFFFFF"/><path d="M1099 478 1075 478 1075 474 1099 474 1099 478ZM1099 490 1075 490 1075 486 1099 486 1099 490ZM1099 502 1075 502 1075 498 1099 498 1099 502ZM1067 502 1035 502 1035 494C1035 492.8 1035.6 491.6 1036.6 490.8 1038.8 489.2 1041.6 487.8 1044.4 487 1046.6 486.4 1048.8 486 1051 486 1053.4 486 1055.6 486.4 1057.6 487 1060.4 487.8 1063.2 489 1065.4 490.8 1066.4 491.6 1067 492.8 1067 494L1067 502ZM1051 468C1055.4 468 1059 471.6 1059 476 1059 480.4 1055.4 484 1051 484 1046.6 484 1043 480.4 1043 476 1043 471.6 1046.6 468 1051 468ZM1103 454 1077 454C1077 458.4 1073.4 462 1069 462L1065 462C1060.6 462 1057 458.4 1057 454L1031 454C1028.8 454 1027 455.8 1027 458L1027 506C1027 508.2 1028.8 510 1031 510L1103 510C1105.2 510 1107 508.2 1107 506L1107 458C1107 455.8 1105.2 454 1103 454Z" fill="#FFFFFF"/></g></svg>