<svg width="76" height="76" fill="none" xmlns="http://www.w3.org/2000/svg"><mask id="prefix__a" style="mask-type:luminance" maskUnits="userSpaceOnUse" x="0" y="0" width="76" height="76"><path d="M76 0H0v76h76V0z" fill="#fff"/></mask><g mask="url(#prefix__a)"><mask id="prefix__b" style="mask-type:luminance" maskUnits="userSpaceOnUse" x="0" y="0" width="76" height="76"><path d="M75.856.144H0V76h75.856V.144z" fill="#fff"/></mask><g mask="url(#prefix__b)"><mask id="prefix__c" style="mask-type:luminance" maskUnits="userSpaceOnUse" x="0" y="0" width="76" height="76"><path d="M75.856.144H0V76h75.856V.144z" fill="#fff"/></mask><g mask="url(#prefix__c)"><mask id="prefix__d" style="mask-type:luminance" maskUnits="userSpaceOnUse" x="0" y="0" width="76" height="76"><path d="M75.856.144H0V76h75.856V.144z" fill="#fff"/></mask><g mask="url(#prefix__d)" fill="#fff"><path d="M71.589 26.22L48.99 7.254v11.063c-34.61.316-35.083 35.557-35.083 35.557S21.255 35.147 48.99 34.91v10.272l22.6-18.962z"/><path d="M57.998 43.998v20.15H9.008v-48.99h35.241v-4.742H4.267v58.472l58.472-.237V39.968L58 43.998z"/></g></g></g></g></svg>