<svg width="162" height="163" xmlns="http://www.w3.org/2000/svg" xmlns:xlink="http://www.w3.org/1999/xlink" xml:space="preserve" overflow="hidden"><g transform="translate(-372 -394)"><path d="M104.456 105.3C117.619 92.6438 118.294 71.7188 105.806 58.2188 119.137 65.1375 130.106 75.7688 136.519 82.8562 129.769 89.4375 118.294 99.225 104.456 105.3ZM38.1375 70.5375C43.7062 65.8125 49.6125 61.7625 56.025 58.3875 43.7062 71.8875 44.3812 92.6438 57.5437 105.3 43.7062 99.225 32.0625 89.4375 25.4813 82.8562 29.3625 78.4688 33.5812 74.4187 38.1375 70.5375L38.1375 70.5375ZM81 108C66.15 108 54 95.85 54 81 54 66.15 66.15 54 81 54 95.85 54 108 66.15 108 81 108 95.85 95.85 108 81 108ZM146.644 78.1312C136.856 66.6562 111.206 40.5 81 40.5 50.7938 40.5 25.1437 66.6562 15.3563 78.1312 12.825 81.1687 12.9937 85.3875 15.6938 88.2562 25.65 98.7188 51.1312 121.5 81 121.5 110.869 121.5 136.35 98.7188 146.475 88.2562 149.006 85.5563 149.175 81.1687 146.644 78.1312Z" fill="#FFFFFF" transform="matrix(1 0 0 1.00617 372 394)"/><path d="M97.875 81C97.875 90.3198 90.3198 97.875 81 97.875 71.6802 97.875 64.125 90.3198 64.125 81 64.125 71.6802 71.6802 64.125 81 64.125 90.3198 64.125 97.875 71.6802 97.875 81Z" fill="#FFFFFF" transform="matrix(1 0 0 1.00617 372 394)"/></g></svg>