<svg width="86" height="86" fill="none" xmlns="http://www.w3.org/2000/svg"><g clip-path="url(#prefix__clip0_16_2708)"><mask id="prefix__a" style="mask-type:luminance" maskUnits="userSpaceOnUse" x="0" y="0" width="86" height="86"><path d="M86 0H0v86h86V0z" fill="#fff"/></mask><g mask="url(#prefix__a)"><mask id="prefix__b" style="mask-type:luminance" maskUnits="userSpaceOnUse" x="0" y="0" width="86" height="86"><path d="M86 .163H.163V86H86V.163z" fill="#fff"/></mask><g mask="url(#prefix__b)"><mask id="prefix__c" style="mask-type:luminance" maskUnits="userSpaceOnUse" x="0" y="0" width="86" height="86"><path d="M86 .163H.163V86H86V.163z" fill="#fff"/></mask><g mask="url(#prefix__c)"><mask id="prefix__d" style="mask-type:luminance" maskUnits="userSpaceOnUse" x="0" y="0" width="86" height="86"><path d="M86 .163H.163V86H86V.163z" fill="#fff"/></mask><g mask="url(#prefix__d)" fill="#fff"><path d="M57.388 26.987c0 7.901-6.405 14.306-14.306 14.306-7.902 0-14.307-6.405-14.307-14.306 0-7.901 6.405-14.306 14.306-14.306 7.902 0 14.307 6.405 14.307 14.306zM71.694 73.482V59.176c0-2.146-1.073-4.292-2.861-5.723-3.935-3.218-8.942-5.364-13.949-6.795-3.577-1.073-7.51-1.788-11.803-1.788-3.934 0-7.868.715-11.802 1.788-5.007 1.43-10.014 3.934-13.949 6.795-1.788 1.431-2.86 3.577-2.86 5.723v14.306h57.224z"/></g></g></g></g></g><defs><clipPath id="prefix__clip0_16_2708"><path fill="#fff" d="M0 0h86v86H0z"/></clipPath></defs></svg>