<svg width="83" height="83" fill="none" xmlns="http://www.w3.org/2000/svg"><g clip-path="url(#prefix__clip0_16_2746)"><mask id="prefix__a" style="mask-type:luminance" maskUnits="userSpaceOnUse" x="0" y="0" width="83" height="83"><path d="M83 0H0v83h83V0z" fill="#fff"/></mask><g mask="url(#prefix__a)"><mask id="prefix__b" style="mask-type:luminance" maskUnits="userSpaceOnUse" x="0" y="0" width="83" height="83"><path d="M82.843 0H.157v83h82.686V0z" fill="#fff"/></mask><g mask="url(#prefix__b)"><mask id="prefix__c" style="mask-type:luminance" maskUnits="userSpaceOnUse" x="0" y="0" width="83" height="83"><path d="M82.843 0H.157v83h82.686V0z" fill="#fff"/></mask><g mask="url(#prefix__c)"><mask id="prefix__d" style="mask-type:luminance" maskUnits="userSpaceOnUse" x="0" y="0" width="83" height="83"><path d="M82.843 0H.157v83h82.686V0z" fill="#fff"/></mask><g mask="url(#prefix__d)"><path d="M51.79 65.874l-24.332-24.43L51.79 17.018l3.655 3.668-20.68 20.758 20.68 20.762-3.655 3.668z" fill="#fff"/></g></g></g></g></g><defs><clipPath id="prefix__clip0_16_2746"><path fill="#fff" d="M0 0h83v83H0z"/></clipPath></defs></svg>