<svg width="384" height="362" fill="none" xmlns="http://www.w3.org/2000/svg"><g clip-path="url(#prefix__clip0_16_2802)"><mask id="prefix__a" style="mask-type:luminance" maskUnits="userSpaceOnUse" x="0" y="0" width="384" height="384"><path d="M384 0H0v384h384V0z" fill="#fff"/></mask><g mask="url(#prefix__a)"><mask id="prefix__b" style="mask-type:luminance" maskUnits="userSpaceOnUse" x="0" y="0" width="384" height="384"><path d="M384 0H.727v384H384V0z" fill="#fff"/></mask><g mask="url(#prefix__b)"><mask id="prefix__c" style="mask-type:luminance" maskUnits="userSpaceOnUse" x="0" y="0" width="384" height="384"><path d="M384 0H.727v384H384V0z" fill="#fff"/></mask><g mask="url(#prefix__c)"><mask id="prefix__d" style="mask-type:luminance" maskUnits="userSpaceOnUse" x="0" y="0" width="384" height="384"><path d="M384 0H.727v384H384V0z" fill="#fff"/></mask><g mask="url(#prefix__d)"><path d="M224.303 51.2a155.4 155.4 0 00-47.11-11.2c47.909 41.6 66.274 110.8 40.722 173.201-25.551 62.399-87.833 98-150.913 93.6 11.977 10.4 25.95 19.2 41.122 25.599 77.453 32.001 166.084-4.799 198.024-82.399 31.939-77.601-4.392-166.401-81.845-198.8z" fill="#fff"/></g></g></g></g></g><defs><clipPath id="prefix__clip0_16_2802"><path fill="#fff" d="M0 0h384v384H0z"/></clipPath></defs></svg>