<svg width="42" height="42" fill="none" xmlns="http://www.w3.org/2000/svg"><g clip-path="url(#prefix__clip0_16_2838)"><mask id="prefix__a" style="mask-type:luminance" maskUnits="userSpaceOnUse" x="0" y="0" width="42" height="42"><path d="M42 0H0v42h42V0z" fill="#fff"/></mask><g mask="url(#prefix__a)"><mask id="prefix__b" style="mask-type:luminance" maskUnits="userSpaceOnUse" x="0" y="0" width="42" height="42"><path d="M42 .08H.08V42H42V.08z" fill="#fff"/></mask><g mask="url(#prefix__b)"><mask id="prefix__c" style="mask-type:luminance" maskUnits="userSpaceOnUse" x="0" y="0" width="42" height="42"><path d="M42 .08H.08V42H42V.08z" fill="#fff"/></mask><g mask="url(#prefix__c)"><mask id="prefix__d" style="mask-type:luminance" maskUnits="userSpaceOnUse" x="0" y="0" width="42" height="42"><path d="M42 .08H.08V42H42V.08z" fill="#fff"/></mask><g mask="url(#prefix__d)"><path d="M35.533 32.04c-2.459-1.232-6.148-4.367-6.498-15.996-.126-4.275-2.777-6.113-4.995-6.9a3.122 3.122 0 10-6 0c-2.218.787-4.869 2.62-4.996 6.9-.349 11.616-4.039 14.76-6.497 15.991-1 .498-.498 1.668.083 1.668h11.135a3.293 3.293 0 006.55 0H35.45c.58 0 1.083-1.166.083-1.663zM19.664 8.293a1.375 1.375 0 112.751 0 1.413 1.413 0 01-.065.406 8.389 8.389 0 00-1.31-.148c-.44.018-.878.067-1.31.148a1.359 1.359 0 01-.066-.406z" fill="#fff"/></g></g></g></g></g><defs><clipPath id="prefix__clip0_16_2838"><path fill="#fff" d="M0 0h42v42H0z"/></clipPath></defs></svg>