<svg width="96" height="96" xmlns="http://www.w3.org/2000/svg" xmlns:xlink="http://www.w3.org/1999/xlink" xml:space="preserve" overflow="hidden"><g transform="translate(-721 -332)"><path d="M732 395 732 418 755 418 755 395ZM739 402 735 402 735 398 739 398Z" fill="#FFFFFF"/><path d="M758 395 758 418 781 418 781 395ZM765 402 761 402 761 398 765 398Z" fill="#FFFFFF"/><path d="M745 369 745 392 768 392 768 369ZM752 376 748 376 748 372 752 372Z" fill="#FFFFFF"/><path d="M771 369 771 392 794 392 794 369ZM778 376 774 376 774 372 778 372Z" fill="#FFFFFF"/><path d="M758 343 758 366 781 366 781 343ZM765 350 761 350 761 346 765 346Z" fill="#FFFFFF"/><path d="M784 395 784 418 806 418 806 395ZM791 402 787 402 787 398 791 398Z" fill="#FFFFFF"/></g></svg>
