<svg width="72" height="72" fill="none" xmlns="http://www.w3.org/2000/svg"><g clip-path="url(#prefix__clip0_16_2874)"><mask id="prefix__a" style="mask-type:luminance" maskUnits="userSpaceOnUse" x="0" y="0" width="72" height="72"><path d="M72 0H0v72h72V0z" fill="#fff"/></mask><g mask="url(#prefix__a)"><mask id="prefix__b" style="mask-type:luminance" maskUnits="userSpaceOnUse" x="0" y="0" width="72" height="72"><path d="M72 0H.136v72H72V0z" fill="#fff"/></mask><g mask="url(#prefix__b)"><mask id="prefix__c" style="mask-type:luminance" maskUnits="userSpaceOnUse" x="0" y="0" width="72" height="72"><path d="M72 0H.136v72H72V0z" fill="#fff"/></mask><g mask="url(#prefix__c)"><mask id="prefix__d" style="mask-type:luminance" maskUnits="userSpaceOnUse" x="0" y="0" width="72" height="72"><path d="M72 0H.136v72H72V0z" fill="#fff"/></mask><g mask="url(#prefix__d)" fill="#fff"><path d="M20.348 14.25v6h-5.989v-6h5.989zm4.492-4.5H9.868v15H24.84v-15zM20.348 51.75v6h-5.989v-6h5.989zm4.492-4.5H9.868v15H24.84v-15zM57.777 14.25v6h-5.989v-6h5.989zm4.491-4.5H47.297v15h14.971v-15z"/><path d="M33.822 33.75H18.851v-4.5h10.48V9.75h13.474v4.5h-8.983v19.5z"/><path d="M38.314 18.75h4.491v6h-4.491v-6zM37.565 51.75h-8.234v-13.5h8.983v-9h13.474v9h10.48v4.5H47.297v-9h-4.492v9h-8.983v4.5h3.743v4.5zM24.84 42.75H9.868v-13.5h4.491v9h10.48v4.5z"/><path d="M47.297 62.25H29.33v-4.5h13.474v-10.5h4.492v15zM56.28 29.25h5.988v4.5H56.28v-4.5zM62.268 62.25h-10.48v-15h10.48v4.5H56.28v6h5.988v4.5z"/></g></g></g></g></g><defs><clipPath id="prefix__clip0_16_2874"><path fill="#fff" d="M0 0h72v72H0z"/></clipPath></defs></svg>