<svg width="97" height="97" fill="none" xmlns="http://www.w3.org/2000/svg"><g clip-path="url(#prefix__clip0_18_3196)"><mask id="prefix__a" style="mask-type:luminance" maskUnits="userSpaceOnUse" x="0" y="0" width="97" height="97"><path d="M97 0H0v97h97V0z" fill="#fff"/></mask><g mask="url(#prefix__a)"><mask id="prefix__b" style="mask-type:luminance" maskUnits="userSpaceOnUse" x="1" y="1" width="96" height="96"><path d="M97 1H1v96h96V1z" fill="#fff"/></mask><g mask="url(#prefix__b)"><mask id="prefix__c" style="mask-type:luminance" maskUnits="userSpaceOnUse" x="1" y="1" width="96" height="96"><path d="M97 1H1v96h96V1z" fill="#fff"/></mask><g mask="url(#prefix__c)"><mask id="prefix__d" style="mask-type:luminance" maskUnits="userSpaceOnUse" x="1" y="1" width="96" height="96"><path d="M97 1H1v96h96V1z" fill="#fff"/></mask><g mask="url(#prefix__d)"><path d="M60.7 67.7c-6.6.2-9-8.3-4.3-13.2l.7-.7c4.9-4.7 13.6-2.5 13.4 4.1-.1 3.8 4.4 8.4 7.1 5.7L89 52.2l-17-17c-2.7-2.7 1.9-7.2 5.7-7.1 6.6.2 8.8-8.5 4.1-13.4l-.7-.7c-4.9-4.7-13.4-2.3-13.2 4.3.1 3.8-4.4 8.4-7.1 5.7l-17-17-11.5 11.4c-2.7 2.7 1.9 7.2 5.7 7.1 6.6-.2 9 8.3 4.3 13.2l-.7.7c-4.9 4.7-13.6 2.5-13.4-4.1.1-3.8-4.4-8.4-7.1-5.7L9 41.8l17 17c2.7 2.7-1.9 7.2-5.7 7.1-6.6-.2-8.8 8.5-4.1 13.4l.7.7c4.9 4.7 13.4 2.3 13.2-4.3-.1-3.8 4.4-8.4 7.1-5.7l17 17 12.2-12.2c2.7-2.7-1.8-7.2-5.7-7.1z" fill="#fff"/></g></g></g></g></g><defs><clipPath id="prefix__clip0_18_3196"><path fill="#fff" d="M0 0h97v97H0z"/></clipPath></defs></svg>