<svg width="82" height="82" fill="none" xmlns="http://www.w3.org/2000/svg"><g clip-path="url(#prefix__clip0_16_2928)"><mask id="prefix__a" style="mask-type:luminance" maskUnits="userSpaceOnUse" x="0" y="0" width="82" height="82"><path d="M82 0H0v82h82V0z" fill="#fff"/></mask><g mask="url(#prefix__a)"><mask id="prefix__b" style="mask-type:luminance" maskUnits="userSpaceOnUse" x="0" y="0" width="82" height="82"><path d="M82 0H.155v81.845H82V0z" fill="#fff"/></mask><g mask="url(#prefix__b)"><mask id="prefix__c" style="mask-type:luminance" maskUnits="userSpaceOnUse" x="0" y="0" width="82" height="82"><path d="M82 0H.155v81.845H82V0z" fill="#fff"/></mask><g mask="url(#prefix__c)"><mask id="prefix__d" style="mask-type:luminance" maskUnits="userSpaceOnUse" x="0" y="0" width="82" height="82"><path d="M82 0H.155v81.845H82V0z" fill="#fff"/></mask><g mask="url(#prefix__d)"><path d="M30.898 64.953l-3.617-3.616 20.468-20.468L27.28 20.395l3.617-3.617 24.086 24.09-24.085 24.085z" fill="#fff"/></g></g></g></g></g><defs><clipPath id="prefix__clip0_16_2928"><path fill="#fff" d="M0 0h82v82H0z"/></clipPath></defs></svg>