<svg width="96" height="96" xmlns="http://www.w3.org/2000/svg" xmlns:xlink="http://www.w3.org/1999/xlink" xml:space="preserve" overflow="hidden"><g transform="translate(-964 -163)"><path d="M1038.01 244.999 1038.01 170.999 986.005 170.999 986.005 244.999 974.005 244.999 974.005 250.999 986.005 250.999 988.004 250.999 992.005 250.999 992.005 176.999 1032.01 176.999 1032.01 250.999 1036.01 250.999 1038.01 250.999 1050.01 250.999 1050.01 244.999 1038.01 244.999Z" fill="#FFFFFF"/><path d="M995.005 251 1024.01 247 1024.01 184 995.005 180ZM1013 215 1017.45 215C1017.65 213.916 1018.55 213.099 1019.65 213 1020.95 213 1022 214.343 1022 216 1022 217.657 1020.95 219 1019.65 219 1018.55 218.901 1017.65 218.084 1017.45 217L1013 217Z" fill="#FFFFFF"/></g></svg>