<svg width="77" height="77" fill="none" xmlns="http://www.w3.org/2000/svg"><g clip-path="url(#prefix__clip0_16_2964)"><mask id="prefix__a" style="mask-type:luminance" maskUnits="userSpaceOnUse" x="0" y="0" width="77" height="77"><path d="M77 0H0v77h77V0z" fill="#fff"/></mask><g mask="url(#prefix__a)"><mask id="prefix__b" style="mask-type:luminance" maskUnits="userSpaceOnUse" x="0" y="0" width="77" height="77"><path d="M77 .146H0V77h77V.146z" fill="#fff"/></mask><g mask="url(#prefix__b)"><mask id="prefix__c" style="mask-type:luminance" maskUnits="userSpaceOnUse" x="0" y="0" width="77" height="77"><path d="M77 .146H0V77h77V.146z" fill="#fff"/></mask><g mask="url(#prefix__c)"><mask id="prefix__d" style="mask-type:luminance" maskUnits="userSpaceOnUse" x="0" y="0" width="77" height="77"><path d="M77 .146H0V77h77V.146z" fill="#fff"/></mask><g mask="url(#prefix__d)"><path d="M38.5 48.18c-5.294 0-9.625-4.323-9.625-9.607 0-5.284 4.331-9.607 9.625-9.607s9.625 4.323 9.625 9.607c0 5.284-4.331 9.607-9.625 9.607zm21.656-15.611a20.968 20.968 0 00-2.085-4.964l2.005-6.004-4.572-4.563-6.015 2.001c-1.605-.88-3.289-1.601-5.054-2.081l-2.727-5.604h-6.416l-2.808 5.604c-1.764.48-3.449 1.2-4.973 2.081l-6.015-2.001-4.572 4.563 2.005 6.004c-.882 1.601-1.604 3.282-2.085 5.044l-5.615 2.722v6.404l5.615 2.802a20.96 20.96 0 002.085 4.964l-2.005 6.004 4.572 4.563 6.016-2.001c1.604.88 3.288 1.6 5.053 2.081l2.807 5.604h6.416l2.808-5.604a21.05 21.05 0 004.973-2.081l6.015 2.001 4.572-4.563-2.005-6.004c.882-1.601 1.604-3.283 2.085-5.044l5.615-2.802v-6.404l-5.695-2.722z" fill="#fff"/></g></g></g></g></g><defs><clipPath id="prefix__clip0_16_2964"><path fill="#fff" d="M0 0h77v77H0z"/></clipPath></defs></svg>