<svg width="69" height="69" fill="none" xmlns="http://www.w3.org/2000/svg"><g clip-path="url(#prefix__clip0_16_3001)"><mask id="prefix__a" style="mask-type:luminance" maskUnits="userSpaceOnUse" x="0" y="0" width="69" height="69"><path d="M69 0H0v69h69V0z" fill="#fff"/></mask><g mask="url(#prefix__a)"><mask id="prefix__b" style="mask-type:luminance" maskUnits="userSpaceOnUse" x="0" y="0" width="69" height="69"><path d="M69 .13H.13V69H69V.13z" fill="#fff"/></mask><g mask="url(#prefix__b)"><mask id="prefix__c" style="mask-type:luminance" maskUnits="userSpaceOnUse" x="0" y="0" width="69" height="69"><path d="M69 .13H.13V69H69V.13z" fill="#fff"/></mask><g mask="url(#prefix__c)"><mask id="prefix__d" style="mask-type:luminance" maskUnits="userSpaceOnUse" x="0" y="0" width="69" height="69"><path d="M69 .13H.13V69H69V.13z" fill="#fff"/></mask><g mask="url(#prefix__d)" fill="#fff"><path d="M14.479 6.013h4.304v57.248h-4.305V6.013zM48.196 27.392H28.109v-4.305h20.087v4.305zm-4.305 7.173h-11.12v-2.87h11.12v2.87zM51.783 5.87l-30.13.143v57.248h30.13a2.878 2.878 0 002.87-2.87V8.74a2.878 2.878 0 00-2.87-2.87z"/></g></g></g></g></g><defs><clipPath id="prefix__clip0_16_3001"><path fill="#fff" d="M0 0h69v69H0z"/></clipPath></defs></svg>