<svg width="219" height="218" fill="none" xmlns="http://www.w3.org/2000/svg"><g clip-path="url(#prefix__clip0_16_3040)"><mask id="prefix__a" style="mask-type:luminance" maskUnits="userSpaceOnUse" x="0" y="0" width="219" height="218"><path d="M219 0H0v218h219V0z" fill="#fff"/></mask><g mask="url(#prefix__a)"><mask id="prefix__b" style="mask-type:luminance" maskUnits="userSpaceOnUse" x="0" y="0" width="219" height="218"><path d="M218.287.71H.713v216.58h217.574V.71z" fill="#fff"/></mask><g mask="url(#prefix__b)"><mask id="prefix__c" style="mask-type:luminance" maskUnits="userSpaceOnUse" x="0" y="0" width="219" height="218"><path d="M218.287.71H.713v216.58h217.574V.71z" fill="#fff"/></mask><g mask="url(#prefix__c)"><mask id="prefix__d" style="mask-type:luminance" maskUnits="userSpaceOnUse" x="0" y="0" width="219" height="218"><path d="M218.287.71H.713v216.58h217.574V.71z" fill="#fff"/></mask><g fill="#fff" mask="url(#prefix__d)"><path d="M64.505 108.941c.008-1.719.115-3.436.32-5.143H37.789v10.152h27.016a44.534 44.534 0 01-.3-5.009zM81.553 73.925l-19.169-19.07-7.212 7.176 19.16 19.073a45.347 45.347 0 017.22-7.179zM109.45 64.202a45.19 45.19 0 015.1.309V37.542h-10.199v26.969a45.159 45.159 0 015.099-.309zM144.566 81.095l19.16-19.072-7.212-7.168-19.169 19.08a45.127 45.127 0 017.221 7.16zM74.276 136.711l-19.104 19.011 7.212 7.179 19.092-19.003a45.199 45.199 0 01-7.2-7.187zM109.45 153.681a45.252 45.252 0 01-5.099-.309v26.833h10.199v-26.833a45.284 45.284 0 01-5.1.309zM154.073 103.798c.423 3.37.429 6.779.02 10.152h27.025v-10.152h-27.045zM137.422 143.898l19.092 19.003 7.212-7.179-19.097-19.011a45.194 45.194 0 01-7.207 7.187zM145.33 108.941c0 19.727-16.065 35.718-35.882 35.718-19.817 0-35.882-15.991-35.882-35.718 0-19.726 16.065-35.717 35.882-35.717h.002c19.816 0 35.88 15.99 35.88 35.715v.002z"/></g></g></g></g></g><defs><clipPath id="prefix__clip0_16_3040"><path fill="#fff" d="M0 0h219v218H0z"/></clipPath></defs></svg>