<svg width="52" height="52" fill="none" xmlns="http://www.w3.org/2000/svg"><g clip-path="url(#prefix__clip0_16_3092)"><mask id="prefix__a" style="mask-type:luminance" maskUnits="userSpaceOnUse" x="0" y="0" width="52" height="52"><path d="M52 0H0v52h52V0z" fill="#fff"/></mask><g mask="url(#prefix__a)"><mask id="prefix__b" style="mask-type:luminance" maskUnits="userSpaceOnUse" x="0" y="0" width="52" height="52"><path d="M51.901.099H0V52h51.901V.099z" fill="#fff"/></mask><g mask="url(#prefix__b)"><mask id="prefix__c" style="mask-type:luminance" maskUnits="userSpaceOnUse" x="0" y="0" width="52" height="52"><path d="M51.901.099H0V52h51.901V.099z" fill="#fff"/></mask><g mask="url(#prefix__c)"><mask id="prefix__d" style="mask-type:luminance" maskUnits="userSpaceOnUse" x="0" y="0" width="52" height="52"><path d="M51.901.099H0V52h51.901V.099z" fill="#fff"/></mask><g mask="url(#prefix__d)" fill="#fff"><path d="M27.032 17.94a1.081 1.081 0 11-2.162 0 1.081 1.081 0 012.162 0zM27.032 39.565a1.081 1.081 0 11-2.162 0 1.081 1.081 0 012.162 0zM37.845 28.212a1.081 1.081 0 11-2.163 0 1.081 1.081 0 012.163 0zM16.22 28.212a1.081 1.081 0 11-2.163 0 1.081 1.081 0 012.162 0zM27.032 20.643h-2.163v7.569c0 .27.109.54.325.757l5.352 5.352 1.514-1.514-5.028-5.028v-7.136z"/><path d="M25.95 43.89a15.113 15.113 0 01-15.137-15.137c0-8.38 6.758-15.138 15.138-15.138 8.38 0 15.138 6.757 15.138 15.138 0 8.38-6.758 15.137-15.138 15.137zm12.814-28.33l1.622-1.621a1.616 1.616 0 00-.054-2.27c-.595-.596-1.622-.65-2.27-.055l-1.84 1.892c-2.594-1.73-5.568-2.81-8.65-3.027v-2.27h4.866V4.963H19.463v3.244h4.866v2.217A18.353 18.353 0 007.73 26.428c-1.081 8.596 3.947 16.76 12.11 19.625A18.44 18.44 0 0041.63 38.43c4.596-7.353 3.298-16.868-2.865-22.87z"/></g></g></g></g></g><defs><clipPath id="prefix__clip0_16_3092"><path fill="#fff" d="M0 0h52v52H0z"/></clipPath></defs></svg>