<svg width="89" height="89" fill="none" xmlns="http://www.w3.org/2000/svg"><g clip-path="url(#prefix__clip0_16_3138)"><mask id="prefix__a" style="mask-type:luminance" maskUnits="userSpaceOnUse" x="0" y="0" width="89" height="89"><path d="M89 0H0v89h89V0z" fill="#fff"/></mask><g mask="url(#prefix__a)"><mask id="prefix__b" style="mask-type:luminance" maskUnits="userSpaceOnUse" x="0" y="0" width="89" height="89"><path d="M88.831.169H0V89h88.831V.169z" fill="#fff"/></mask><g mask="url(#prefix__b)"><mask id="prefix__c" style="mask-type:luminance" maskUnits="userSpaceOnUse" x="0" y="0" width="89" height="89"><path d="M88.831.169H0V89h88.831V.169z" fill="#fff"/></mask><g mask="url(#prefix__c)"><mask id="prefix__d" style="mask-type:luminance" maskUnits="userSpaceOnUse" x="0" y="0" width="89" height="89"><path d="M88.831.169H0V89h88.831V.169z" fill="#fff"/></mask><g mask="url(#prefix__d)"><path d="M6.528 47.385h69.177l-8.231 8.231a2.748 2.748 0 103.886 3.886l12.946-12.949a2.683 2.683 0 000-3.886L71.358 29.722a2.684 2.684 0 00-3.887 0 2.684 2.684 0 000 3.886l8.23 8.236H6.529a2.776 2.776 0 100 5.551v-.01z" fill="#fff"/></g></g></g></g></g><defs><clipPath id="prefix__clip0_16_3138"><path fill="#fff" d="M0 0h89v89H0z"/></clipPath></defs></svg>