<svg width="1833" height="1687" xmlns="http://www.w3.org/2000/svg" xmlns:xlink="http://www.w3.org/1999/xlink" xml:space="preserve" overflow="hidden"><defs><filter id="fx0" x="-10%" y="-10%" width="120%" height="120%" filterUnits="userSpaceOnUse" primitiveUnits="userSpaceOnUse"><feComponentTransfer color-interpolation-filters="sRGB"><feFuncR type="discrete" tableValues="0.000000 0.000000"/><feFuncG type="discrete" tableValues="0.000000 0.000000"/><feFuncB type="discrete" tableValues="0.000000 0.000000"/><feFuncA type="linear" slope="0.709804" intercept="0.000000"/></feComponentTransfer><feGaussianBlur stdDeviation="14.807940 14.791800"/></filter><clipPath id="clip1"><rect x="0.201416" y="0.241135" width="366.597" height="336.518"/></clipPath></defs><g transform="translate(-1989 -641)"><g><g clip-path="url(#clip1)" filter="url(#fx0)" transform="matrix(4.99455 0 0 5 1989 644)"><g transform="translate(5.68434e-14 0)"><g transform="matrix(1 0 0 1 2.11298e-05 1.41263e-05)"><path d="M45.1252 58.3156C45.1252 51.0257 51.0413 45.116 58.3392 45.116L308.661 45.116C315.959 45.116 321.875 51.0257 321.875 58.3156L321.875 278.684C321.875 285.974 315.959 291.884 308.661 291.884L58.3392 291.884C51.0413 291.884 45.1252 285.974 45.1252 278.684Z" stroke="#565656" stroke-width="1" stroke-linecap="butt" stroke-linejoin="miter" stroke-miterlimit="8" stroke-opacity="0.772549" fill="#343434" fill-rule="evenodd" fill-opacity="0.65098"/></g></g></g><path d="M2253.5 966.762C2253.5 932.376 2281.38 904.5 2315.76 904.5L3495.24 904.5C3529.62 904.5 3557.5 932.376 3557.5 966.762L3557.5 2006.24C3557.5 2040.62 3529.62 2068.5 3495.24 2068.5L2315.76 2068.5C2281.38 2068.5 2253.5 2040.62 2253.5 2006.24Z" stroke="#565656" stroke-width="4.58333" stroke-linecap="butt" stroke-linejoin="miter" stroke-miterlimit="8" stroke-opacity="0.772549" fill="#343434" fill-rule="evenodd" fill-opacity="0.65098"/><g><g><g><path d="M93.1144 29.7214 99.4001 41.5431C100.769 43.6755 102.362 45.6552 104.152 47.4482 109.417 52.7131 114.428 58.2318 118.914 64.1427 129.571 78.1384 136.762 93.6796 141.9 110.507 144.98 120.783 146.652 131.313 146.779 141.97 147.298 173.819 136.376 201.17 114.29 223.902 110.711 227.506 106.846 230.813 102.733 233.792 100.542 233.792 99.5212 232.062 98.6216 230.58 96.8916 227.697 95.9228 224.543 95.4095 221.336 94.6368 217.484 94.1236 213.632 94.3831 209.647L94.3831 207.848C94.2562 207.462 92.3301 30.6268 93.0971 29.7272Z" fill="#599636" fill-rule="nonzero" fill-opacity="1" transform="matrix(1.00289 0 0 1 2695 1617)"/><path d="M93.1144 29.3408C92.8549 28.8218 92.5954 29.2139 92.3417 29.4677 92.4685 32.0338 91.5689 34.3463 90.1503 36.5318 88.6106 38.7232 86.5519 40.384 84.499 42.1832 73.0695 52.073 64.085 64.0158 56.8882 77.3714 47.3847 95.3519 42.3793 114.613 40.9722 134.905 40.3379 142.229 43.2789 168.041 45.5971 175.486 51.8827 195.265 63.1854 211.827 77.8904 226.209 81.4888 229.669 85.3409 232.887 89.3199 235.966 90.4733 235.966 90.6059 234.94 90.8596 234.167 91.3656 232.527 91.7511 230.852 92.013 229.156 93.1663 222.738 93.8122 216.314 94.5791 209.895L93.1663 29.3408Z" fill="#6CAC48" fill-rule="nonzero" fill-opacity="1" transform="matrix(1.00289 0 0 1 2695 1617)"/><path d="M99.4174 241.623C99.6769 238.671 101.147 236.232 102.629 233.792 101.09 233.158 99.9306 231.866 99.031 230.448 98.2696 229.092 97.6252 227.674 97.1049 226.209 95.3057 220.817 94.9136 215.166 94.4061 209.641L94.4061 206.297C93.7718 206.816 93.6334 211.175 93.6334 211.821 93.2592 217.645 92.4885 223.437 91.3267 229.156 90.9404 231.463 90.6924 233.781 89.2738 235.834 89.2738 236.093 89.2738 236.353 89.4007 236.733 91.7073 243.538 92.3532 250.475 92.7453 257.539L92.7453 260.106C92.7453 263.185 92.6185 262.545 95.1846 263.566 96.2111 263.952 97.376 264.085 98.3967 264.852 99.1694 264.852 99.2963 264.217 99.2963 263.698L98.9099 259.46 98.9099 247.638C98.783 245.585 99.1694 243.526 99.4289 241.6Z" fill="#C2BFBF" fill-rule="nonzero" fill-opacity="1" transform="matrix(1.00289 0 0 1 2695 1617)"/><path d="M196.932 187.913 196.932 200.144C196.919 200.628 196.948 201.112 197.018 201.591 197.18 203.044 198.068 203.927 199.371 204.33 200.592 204.652 201.833 204.895 203.085 205.057 203.806 205.138 204.048 205.461 204.134 206.233 204.215 208.973 203.973 209.295 201.314 209.128 195.124 208.766 188.919 208.766 182.728 209.128L182.14 209.128C180.208 209.215 180.047 209.048 180.047 207.116 180.047 206.793 180.128 206.395 180.128 206.066 180.128 205.478 180.531 205.184 181.096 205.184 182.394 205.028 183.593 204.705 184.804 204.463 186.494 204.059 187.457 203.016 187.619 201.32 187.855 199.475 187.855 197.543 187.855 195.686L187.936 174.119C187.988 172.845 187.301 171.654 186.171 171.062 184.716 170.254 183.177 169.606 181.581 169.131 181.096 168.969 180.612 168.9 180.214 168.646 179.038 168.081 179.003 167.037 180.128 166.397 180.531 166.155 181.016 165.994 181.494 165.907 186.379 165.187 191.178 163.973 195.819 162.286 196.782 161.963 197.03 162.055 197.111 163.012 197.197 163.6 197.111 164.31 197.03 164.858 196.874 165.907 196.874 166.951 196.874 167.925 196.874 168.329 196.955 168.733 197.353 168.969 197.751 169.206 198.16 168.969 198.529 168.739 200.185 167.436 201.933 166.254 203.759 165.204 206.412 163.756 209.238 162.464 212.294 162.066 216.008 161.582 219.214 162.545 222.04 164.961 223.206 166.006 224.233 167.196 225.096 168.502 225.904 169.678 225.978 169.707 227.028 168.906 230.084 166.645 233.302 164.638 236.768 163.191 240.389 161.657 244.092 161.421 247.788 162.707 251.571 164.073 254.149 166.726 255.677 170.347 256.974 173.248 257.528 176.235 257.528 179.361L257.528 200.922C257.528 202.37 258.116 203.275 259.546 203.984 261.074 204.573 262.764 204.867 264.373 205.195 265.417 205.426 265.417 205.426 265.417 206.487 265.261 209.14 265.019 209.301 262.441 209.14 255.982 208.778 249.507 208.778 243.048 209.14 241.756 209.221 241.756 209.221 241.681 207.929L241.681 207.525C241.6 205.351 241.6 205.351 243.699 204.878L245.787 204.313C247.244 203.97 248.276 202.673 248.284 201.176L248.515 195.138 248.359 179.372C248.298 177.964 247.999 176.576 247.477 175.266 245.458 170.353 241.041 168.589 236.774 169.073 233.55 169.396 230.736 170.682 228.078 172.533 227.512 172.937 227.115 173.415 227.195 174.223 227.922 179.378 227.432 184.528 227.518 189.677L227.518 200.865C227.518 202.877 228.326 203.84 230.257 204.325L233.971 205.132C234.536 205.213 234.853 205.455 234.853 206.101L234.853 206.689C234.767 208.938 234.617 209.042 232.356 209.019 225.949 208.739 219.532 208.739 213.125 209.019 210.945 209.099 210.766 208.857 210.87 206.666 210.951 205.368 211.1 205.299 212.311 205.051L214.964 204.573C217.323 204.088 218.188 203.206 218.349 200.709L218.58 195.317 218.424 179.142C218.263 177.123 217.836 175.197 216.734 173.346 215.126 170.365 212.611 168.842 209.169 168.675 205.709 168.444 202.652 169.725 199.746 171.328 197.728 172.504 196.845 173.9 197.007 176.235L197.007 187.993ZM348.549 188.403 348.549 199.752C348.561 200.557 348.613 201.362 348.705 202.162 348.773 203.262 349.561 204.183 350.637 204.423 352.026 204.827 353.458 205.068 354.904 205.143 355.711 205.224 355.867 205.547 355.948 206.193L355.948 206.758C355.867 209.572 355.544 209.895 352.811 209.74 346.699 209.377 340.572 209.377 334.461 209.74L332.108 209.82C331.624 209.82 331.52 209.59 331.382 209.255 331.147 208.141 331.147 206.99 331.382 205.876 331.462 205.391 331.785 205.288 332.264 205.149 333.44 204.994 334.444 204.746 335.562 204.561 337.581 204.077 338.302 203.264 338.377 201.182L338.613 194.423 338.613 174.626C338.613 173.173 338.048 172.291 336.768 171.645 335.294 170.87 333.756 170.224 332.172 169.713 331.697 169.575 331.239 169.386 330.805 169.148 329.755 168.421 329.629 167.383 330.644 166.576 331.102 166.198 331.666 165.97 332.258 165.924 337.408 165.117 342.396 163.998 347.223 162.061 347.788 161.83 348.03 161.98 348.272 162.464 348.514 162.949 348.595 163.514 348.503 164.073L348.272 167.85C348.272 168.335 348.036 169.033 348.428 169.217 348.912 169.54 349.235 168.813 349.639 168.629 352.015 166.636 354.64 164.959 357.447 163.641 359.938 162.464 362.51 161.709 365.411 161.876 370.803 162.199 374.666 164.933 377.157 169.684 378.455 172.181 379.003 174.915 379.251 177.735L379.481 183.622 379.568 201.407C379.649 202.773 380.133 203.656 381.5 204.146 382.915 204.616 384.368 204.965 385.842 205.19 387.14 205.351 387.209 205.593 387.295 206.804L387.295 207.202C387.134 209.936 386.967 210.016 384.233 209.849 378.229 209.527 372.211 209.527 366.207 209.849 365.399 209.93 364.598 209.849 363.854 209.93 363.369 209.93 363.046 209.849 362.966 209.365 362.81 208.321 362.643 207.277 362.885 206.147 362.966 205.663 363.208 205.42 363.767 205.34L367.481 204.751C368.645 204.528 369.527 203.571 369.655 202.393L369.816 200.144 369.736 183.322C369.736 181.391 369.649 179.459 369.251 177.527 368.283 173.404 365.146 170.463 360.89 170.048 357.182 169.644 353.826 170.613 350.752 172.619 349.336 173.454 348.498 175.003 348.572 176.645L348.572 188.801C348.572 188.564 348.572 188.564 348.653 188.564Z" fill="#C2BFBF" fill-rule="nonzero" fill-opacity="1" transform="matrix(1.00289 0 0 1 2695 1617)"/><path d="M584.239 165.625C583.356 159.748 581.182 154.524 577.399 149.939 574.105 145.884 569.841 142.726 565.001 140.759 559.938 138.671 554.54 138.019 549.068 137.864 546.813 137.783 516.077 138.267 513.822 137.864 513.251 137.783 512.853 137.944 512.524 138.429 512.121 139.017 511.717 139.64 511.475 140.274 510.512 142.454 510.512 142.293 512.841 142.61 514.773 142.933 516.624 143.094 518.475 143.659 520.165 144.224 521.376 145.187 521.774 147.039 521.935 147.921 522.097 176.241 522.097 189.447L521.774 198.869C521.693 199.59 521.613 200.311 521.37 200.957 521.047 201.926 520.488 202.721 519.525 203.137 518.463 203.636 517.317 203.935 516.146 204.019 513.966 204.255 513.649 204.342 512.922 206.758L512.691 207.64C512.53 208.69 512.605 208.851 513.655 208.851L537.713 209.082 547.136 208.926 553.652 208.119C561.057 206.752 567.659 203.69 573.288 198.783 576.504 195.944 579.13 192.499 581.015 188.645 583.264 184.141 584.233 179.222 584.475 174.24 584.879 171.426 584.706 168.531 584.244 165.63ZM572.567 177.048C572.244 182.204 571.2 187.192 568.547 191.696 565.168 197.572 560.336 201.672 553.658 203.114 550.763 203.708 547.868 204.002 544.829 203.604 542.649 203.367 540.562 203.119 538.549 202.393 534.928 201.101 533.642 198.864 533.561 195.329L533.48 146.808C533.48 143.907 534.778 143.273 536.86 143.186 540.024 142.962 543.202 143.014 546.357 143.342 549.701 143.666 552.982 144.46 556.103 145.701 558.419 146.667 560.564 147.999 562.458 149.645 566.717 153.274 569.793 158.094 571.292 163.485 572.584 167.914 572.821 172.418 572.584 176.921ZM651.12 184.943C651.12 184.458 651.12 184.061 651.04 183.576 650.313 179.147 647.978 175.768 644.362 173.196 642.026 171.501 639.374 170.376 636.635 169.575 636.15 169.413 635.752 169.246 635.268 169.171 635.349 168.767 635.591 168.687 635.833 168.606 637.442 167.799 638.97 166.916 640.337 165.711 642.834 163.618 644.46 161.04 645.325 157.903 645.809 156.213 645.809 154.524 645.648 152.748 645.381 148.549 643.219 144.699 639.772 142.287 636.064 139.548 631.721 138.423 627.218 138.342 618.527 138.181 609.762 138.342 601.077 138.342 598.58 138.342 596.089 138.498 593.506 138.106 593.027 138.019 592.329 137.87 591.977 138.429 591.389 139.478 590.68 140.516 590.443 141.727 590.363 142.293 590.53 142.61 591.17 142.69L596.723 143.498C598.903 143.821 600.431 145.032 600.587 146.958 600.743 148.294 600.82 149.638 600.818 150.983L600.662 166.028 600.581 195.801C600.581 197.566 600.345 199.261 600.016 201.026 599.857 202.176 599.037 203.124 597.923 203.448 596.314 203.927 594.786 204.411 593.096 204.411 592.166 204.32 591.297 204.885 591.003 205.772 590.678 206.496 590.436 207.254 590.282 208.033 590.121 208.996 590.363 209.324 591.332 209.209 592.052 209.122 618.608 209.774 623.596 209.29 626.577 208.967 629.484 208.563 632.448 207.681 637.511 206.078 642.188 203.736 645.884 199.792 648.946 196.568 650.717 192.711 650.872 188.201 651.109 187.157 651.109 186.113 651.109 184.983ZM612.092 151.963 612.322 145.528C612.322 144.322 612.812 143.763 614.018 143.515 615.949 143.111 617.881 143.284 619.813 143.359 621.745 143.515 623.59 143.757 625.522 144.322 629.057 145.372 631.802 147.385 633.417 150.758 634.149 152.293 634.533 153.971 634.541 155.671 634.622 157.92 634.455 160.1 633.572 162.263 632.206 165.244 630.037 167.176 626.895 167.741 623.752 168.306 614.825 168.064 613.458 168.064 612.247 168.064 612.161 167.908 612.161 166.697L612.161 159.12C611.972 156.764 611.945 154.398 612.08 152.038ZM638.238 195.259C637.01 198.733 634.294 201.476 630.833 202.739 628.901 203.46 626.97 203.915 624.951 203.783 622.449 203.702 619.957 203.783 617.466 203.304 614.087 202.577 612.559 199.354 612.316 197.024 611.913 192.918 612.155 188.732 612.08 185.675L612.08 175.053C612.08 173.761 612.242 173.363 613.608 173.363L621.18 173.444 626.329 174.038C629.951 174.845 633.249 176.212 635.827 179.02 637.92 181.281 639.051 184.009 639.287 186.99 639.524 189.804 639.374 192.543 638.324 195.196Z" fill="#C2BFBF" fill-rule="nonzero" fill-opacity="1" transform="matrix(1.00289 0 0 1 2695 1617)"/><path d="M433.769 171.016 435.862 171.339C438.111 171.42 440.77 170.613 441.571 167.476 442.012 165.977 442.012 164.384 441.571 162.885 441.093 162.885 440.85 163.283 440.608 163.45 439.457 164.389 438.059 164.975 436.583 165.14 433.688 165.463 430.793 165.296 427.979 164.252L424.029 162.891C421.278 161.99 418.384 161.611 415.494 161.772 411.388 162.095 407.525 163.462 403.903 165.394 400.04 167.481 397.312 170.618 396.014 174.892 395.331 177.378 395.166 179.979 395.53 182.532 396.337 188.414 399.394 192.509 404.866 194.689 405.189 194.769 405.431 194.919 405.749 195.011 406.469 195.415 406.556 195.819 405.904 196.378L403.892 197.745 399.065 200.72C397.854 201.447 397.698 202.018 398.096 203.298 398.576 204.802 399.469 206.141 400.674 207.162 401.778 208.107 403.028 208.867 404.376 209.411 405.258 209.814 405.258 210.005 404.457 210.708L399.867 214.007C398.333 215.183 396.805 216.36 395.519 217.871 393.706 219.811 392.981 222.528 393.587 225.113 394.185 227.907 395.648 230.441 397.768 232.356 399.861 234.294 402.407 235.675 405.172 236.376 409.67 237.673 414.341 237.742 418.931 236.86 425.528 235.649 431.295 232.737 435.828 227.766 438.97 224.468 440.822 220.61 440.983 215.991 441.347 210.477 437.671 205.509 432.293 204.244L427.945 203.437 414.67 202.26C413.222 202.179 411.769 201.937 410.564 201.211 409.036 200.248 408.632 198.396 409.601 197.191 410.251 196.313 411.246 195.754 412.334 195.657L414.912 195.427C420 194.907 424.776 192.728 428.504 189.227 430.496 187.385 431.92 185.012 432.61 182.388 433.55 178.922 433.606 175.276 432.771 171.783 432.535 170.901 432.61 170.82 433.734 170.976ZM414.047 211.095C414.526 211.181 415.01 211.095 415.489 211.095 418.874 211.256 422.334 211.498 425.638 212.392 426.712 212.712 427.759 213.117 428.769 213.603 431.993 215.368 433.198 218.43 432.794 221.728 432.31 225.35 430.297 227.922 427.16 229.617 425.067 230.794 422.731 231.307 420.315 231.549 419.433 231.63 418.626 231.549 417.743 231.549 414.929 231.63 412.19 231.313 409.532 230.182 407.724 229.484 406.101 228.381 404.786 226.959 401.971 224.145 400.668 218.995 404.872 214.808 407.444 212.45 410.35 210.783 414.041 211.1ZM423.216 185.987C421.526 190.254 417.824 191.54 414.128 190.975 410.748 190.496 408.246 188.645 406.648 185.583 404.561 181.477 403.996 177.221 405.201 172.787 406.083 169.488 408.096 166.991 411.636 166.426 416.14 165.619 420.471 167.233 422.743 171.737 423.919 173.917 424.433 176.57 424.433 180.347 424.352 181.881 424.029 183.968 423.222 185.981ZM321.832 180.508C321.105 176.166 319.497 172.222 316.521 168.923 312.092 164.016 306.464 161.859 300.103 161.842 294.55 161.761 289.325 163.37 284.649 166.27 280.054 169.021 276.687 173.427 275.237 178.582 273.871 183.253 273.94 188.005 275.001 192.745 277.815 205.461 287.636 210.927 299.377 210.126 302.837 209.895 306.135 208.759 309.272 207.231 313.943 205.051 317.323 201.591 319.652 197.007 321.498 193.224 322.305 189.199 322.224 184.608L321.82 180.508ZM310.408 198.379C309.232 202.079 305.977 204.732 302.116 205.138 298.581 205.622 295.277 204.734 292.301 202.641 290.153 201.063 288.413 198.995 287.226 196.609 283.934 189.845 283.363 182.769 285.052 175.526 285.593 173.282 286.766 171.241 288.431 169.644 291.413 166.91 294.867 166.27 298.737 167.078 302.444 167.885 305.253 169.892 307.571 172.954 309.889 176.016 310.95 179.545 311.59 183.259 311.913 185.104 311.913 187.036 311.994 188.247 311.994 192.111 311.665 195.311 310.46 198.385ZM497.664 181.16C497.07 176.489 495.328 172.227 492.024 168.687 487.681 163.941 482.047 161.928 475.773 161.847 470.381 161.767 465.393 163.295 460.803 165.953 455.653 169.01 452.113 173.352 450.746 179.228 449.115 185.638 449.799 192.418 452.678 198.373 455.33 204.013 459.84 207.635 465.797 209.244 472.394 211.008 478.674 210.207 484.787 207.225 489.964 204.813 494.003 200.486 496.055 195.156 497.346 191.938 497.819 188.478 497.9 184.453 497.987 183.726 497.819 182.434 497.669 181.154ZM486.557 197.335C485.259 201.683 482.532 204.498 477.947 205.143 474.568 205.628 471.35 204.821 468.45 202.894 465.953 201.199 464.182 198.944 462.896 196.292 461.493 193.53 460.621 190.529 460.324 187.446 459.84 183.663 459.84 179.966 460.722 176.178 460.891 175.43 461.135 174.702 461.449 174.003 463.698 168.369 468.692 165.798 474.568 167.083 478.512 167.972 481.488 170.151 483.737 173.444 485.917 176.668 486.966 180.208 487.451 184.043 487.681 185.577 487.774 187.186 487.681 188.553 487.681 191.69 487.451 194.585 486.511 197.399Z" fill="#BBBBBB" fill-rule="nonzero" fill-opacity="1" transform="matrix(1.00289 0 0 1 2695 1617)"/></g></g></g><g><g><g><path d="M221 230.32 221 103.198 227.906 103.198 227.906 123.194C228.721 122.307 229.475 121.366 230.161 120.375 235.928 108.427 248.094 100.887 261.376 101.035 277.122 100.567 289.919 106.386 297.438 120.375 302.223 129.066 304.857 138.774 305.118 148.687 305.379 158.601 303.261 168.434 298.942 177.364 291.935 193.041 274.631 200.835 256.106 197.972 250.341 197.483 244.79 195.56 239.961 192.378 235.131 189.197 231.177 184.857 228.459 179.758L228.459 230.314 221 230.32ZM227.906 148.166 229.454 163.093C232.182 180.083 242.244 190.122 258.039 192.009 265.457 193.227 273.069 191.838 279.576 188.081 286.084 184.322 291.084 178.428 293.726 171.401 299.869 156.782 299.417 140.233 292.51 125.957 289.691 119.658 284.895 114.447 278.847 111.11 272.798 107.774 265.826 106.493 258.984 107.462 252.562 107.928 246.445 110.381 241.482 114.476 236.52 118.573 232.959 124.111 231.294 130.321 229.823 136.198 228.692 142.154 227.906 148.161L227.906 148.166ZM446.133 165.443C445.085 174.393 440.817 182.66 434.123 188.704 427.429 194.749 418.764 198.159 409.739 198.303 380.777 199.76 367.186 180.558 365.026 158.399 363.524 146.365 365.48 134.154 370.666 123.189 374.277 115.667 380.191 109.487 387.555 105.546 394.917 101.605 403.346 100.106 411.618 101.267 419.483 101.935 426.938 105.055 432.929 110.185 438.92 115.317 443.143 122.199 445 129.858 446.471 136.835 447.554 143.888 448.244 150.985L372.181 150.985C370.772 171.075 381.584 187.227 396.91 191.122 415.999 195.81 432.315 187.552 438.238 169.432 439.552 164.781 441.95 164.125 446.182 165.443L446.133 165.443ZM372.125 144.553 440.161 144.553C439.735 123.15 426.387 107.594 408.281 107.418 387.838 107.087 373.015 122.019 372.125 144.553ZM460.194 165.912 466.862 165.912C467.107 170.818 468.703 175.559 471.473 179.618 474.244 183.676 478.082 186.894 482.564 188.915 488.194 191.444 494.322 192.673 500.493 192.511 506.663 192.349 512.719 190.799 518.207 187.977 521.198 186.632 523.704 184.402 525.386 181.591 527.067 178.778 527.844 175.517 527.61 172.25 527.782 169.099 526.92 165.978 525.156 163.36 523.391 160.742 520.82 158.77 517.83 157.743 510.493 155.017 502.692 153.517 495.217 151.123 487.439 148.912 479.832 146.135 472.46 142.815 460.415 136.946 459.669 114.086 473.304 106.849 480.286 102.916 488.145 100.791 496.16 100.667 504.176 100.544 512.096 102.427 519.195 106.143 528.002 110.997 532.869 120.801 531.422 130.746L525.703 130.746C525.703 130.47 525.184 130.228 525.184 129.946 524.477 111.742 509.15 106.05 492.697 107.65 487.725 108.201 483.012 109.702 478.593 111.919 475.935 113.13 473.721 115.136 472.256 117.66 470.791 120.183 470.148 123.097 470.415 126.002 470.421 128.908 471.328 131.742 473.011 134.112 474.695 136.482 477.073 138.275 479.819 139.241 487.001 141.873 494.625 143.56 502.057 145.624L520.013 150.312C524.095 151.649 527.672 154.192 530.275 157.604 532.878 161.017 534.381 165.136 534.588 169.42 536.025 179.046 531.107 188.506 522.41 192.892 506.709 201.762 480.846 199.418 469.326 188.203 463.432 182.284 460.144 174.247 460.21 165.907L460.194 165.912ZM619.203 130.752 612.949 130.752C612.949 129.907 612.617 129.097 612.524 128.451 612.424 123.771 610.716 119.266 607.684 115.694 604.654 112.122 600.485 109.698 595.876 108.83 587.185 106.341 577.912 106.787 569.5 110.099 566.175 111.049 563.245 113.049 561.152 115.799 559.058 118.55 557.913 121.903 557.887 125.356 557.768 128.748 558.826 132.077 560.881 134.78 562.938 137.483 565.865 139.394 569.169 140.189L597.755 147.515C600.847 148.256 603.891 149.18 606.872 150.285 615.988 153.594 622.176 162.045 622.452 171.704 622.589 176.432 621.29 181.09 618.726 185.067 616.162 189.045 612.453 192.156 608.087 193.99 601.452 196.999 594.261 198.591 586.974 198.664 579.687 198.737 572.465 197.289 565.771 194.415 560.266 192.044 555.62 188.047 552.46 182.962 549.298 177.875 547.774 171.944 548.091 165.968L554.202 165.968C556.5 177.027 564.108 186.239 574.545 190.597 584.982 194.955 596.899 193.885 606.391 187.751 609.239 186.273 611.602 184.009 613.203 181.231 614.803 178.453 615.572 175.275 615.419 172.073 615.56 168.92 614.668 165.807 612.878 163.206 611.086 160.605 608.495 158.658 605.496 157.66 598.159 154.935 590.357 153.484 582.882 151.04 575.06 148.863 567.407 146.117 559.986 142.827 548.23 137.051 547.29 114.38 560.693 107.148 567.762 103.049 575.773 100.847 583.947 100.756 592.12 100.665 600.178 102.688 607.335 106.628 611.43 109.068 614.725 112.644 616.82 116.92 618.916 121.197 619.721 125.988 619.137 130.713L619.203 130.752ZM209.635 196.008C207.173 196.938 204.456 196.935 201.995 196.002 199.536 195.068 197.503 193.267 196.282 190.939L171.971 157.373 168.446 152.684 140.236 190.989C139.086 193.217 137.163 194.95 134.826 195.866 132.49 196.782 129.9 196.816 127.539 195.964L163.883 147.284 130.07 103.297C135.086 101.488 140.678 103.452 143.468 107.986L168.662 141.966 194.005 108.118C195.164 105.929 197.088 104.241 199.411 103.375 201.735 102.51 204.295 102.527 206.607 103.424L193.486 120.806 175.712 143.903C175.218 144.342 174.824 144.881 174.553 145.484 174.283 146.086 174.143 146.739 174.143 147.399 174.143 148.06 174.283 148.713 174.553 149.316 174.824 149.918 175.218 150.457 175.712 150.897L209.564 196.008 209.635 196.008ZM363.948 102.828 363.948 109.448C359.193 109.137 354.424 109.824 349.952 111.466 345.479 113.108 341.401 115.669 337.98 118.982 334.56 122.295 331.873 126.287 330.093 130.701 328.314 135.115 327.481 139.853 327.649 144.609 327.649 160.069 327.649 175.529 327.649 190.989L327.649 196.246 320.926 196.246 320.926 103.242 327.556 103.242 327.556 122.301C335.688 108.4 348.241 103.242 363.992 102.867L363.948 102.828ZM40.5149 146.676 43.4762 132.076C51.609 103.203 84.759 91.189 107.566 109.072 120.92 119.543 124.252 134.376 123.6 151.089L48.3659 151.089C47.1503 180.943 68.7255 198.97 96.3229 189.769 105.417 186.46 112.262 178.913 114.516 169.536 115.976 164.847 118.384 164.042 122.793 165.399 122.058 171.115 120.035 176.589 116.874 181.411 113.714 186.234 109.5 190.278 104.55 193.24 96.3702 197.705 86.9857 199.475 77.7382 198.295 68.4906 197.115 59.8537 193.047 53.0621 186.67 46.3437 179.129 42.2884 169.597 41.4982 159.53 41.4982 157.875 40.9458 156.33 40.559 154.84 40.5222 152.057 40.5037 149.336 40.5037 146.676L40.5149 146.676ZM48.4597 144.658 116.495 144.658C116.069 123.018 102.389 107.666 84.1457 107.523 63.8359 107.246 49.3051 122.262 48.41 144.564L48.4597 144.658Z" fill="#FFFFFF" fill-rule="nonzero" fill-opacity="1" transform="matrix(1 0 0 1.00008 2373 1347)"/></g></g></g><g><g><g><path d="M560 110.265 558.908 110.265 558.908 104.519 556.943 104.519 556.943 103.582 561.966 103.582 561.966 104.519 560 104.519 560 110.265ZM566.347 110.265 564.41 104.685 564.374 104.685C564.425 105.513 564.452 106.29 564.452 107.016L564.452 110.265 563.459 110.265 563.459 103.583 564.999 103.583 566.854 108.899 566.883 108.899 568.794 103.583 570.338 103.583 570.338 110.265 569.287 110.265 569.287 106.961C569.287 106.629 569.295 106.196 569.312 105.663 569.329 105.129 569.343 104.806 569.355 104.694L569.32 104.694 567.313 110.265 566.347 110.265Z" fill="#FFFFFF" fill-rule="nonzero" fill-opacity="1" transform="matrix(1.00351 0 0 1 2750 1131.23)"/><path d="M78.5217 152.383C37.5353 152.383 4.18913 119.04 4.18913 78.0521 4.18913 37.0641 37.5353 3.72107 78.5217 3.72107 119.508 3.72107 152.854 37.0672 152.854 78.0536 152.854 119.04 119.508 152.383 78.5217 152.383Z" fill="#85EA2D" fill-rule="nonzero" fill-opacity="1" transform="matrix(1.00351 0 0 1 2750 1131.23)"/><path d="M78.5217 7.44059C117.52 7.44059 149.133 39.0533 149.133 78.0521 149.133 117.049 117.52 148.664 78.5217 148.664 39.5245 148.664 7.91021 117.049 7.91021 78.0521 7.91021 39.0549 39.5245 7.44059 78.5217 7.44059M78.5217 0C35.4836 0 0.46962 35.014 0.46962 78.0521 0.46962 121.09 35.4836 156.104 78.5217 156.104 121.56 156.104 156.575 121.09 156.575 78.0521 156.575 35.014 121.56 0 78.5217 0Z" fill="#FFFFFF" fill-rule="nonzero" fill-opacity="1" transform="matrix(1.00351 0 0 1 2750 1131.23)"/><path d="M49.6174 52.819C49.3772 55.49 49.7064 58.2516 49.5285 60.9523 49.3179 63.6545 48.9871 66.3256 48.4473 68.9967 47.6968 72.8082 45.3253 75.6899 42.0552 78.0911 48.4192 82.2334 49.1385 88.6552 49.5581 95.169 49.7688 98.681 49.6783 102.223 50.0387 105.703 50.3086 108.404 51.3586 109.095 54.1514 109.184 55.2919 109.214 56.4605 109.184 57.7835 109.184L57.7835 117.528C49.5301 118.939 42.7167 116.598 41.0348 109.606 40.4816 107.036 40.1403 104.426 40.0144 101.801 39.8334 99.0102 40.133 96.219 39.9239 93.4278 39.3232 85.7735 38.3325 83.1929 31.0105 82.8325L31.0105 73.3184C31.535 73.1989 32.0658 73.1088 32.6003 73.0485 36.6225 72.8379 38.3325 71.6069 39.2031 67.6455 39.6244 65.4254 39.8646 63.174 39.9536 60.893 40.2547 56.5416 40.1345 52.0997 40.8834 47.778 41.9335 41.5653 45.7762 38.5634 52.1699 38.203 53.9704 38.1125 55.8021 38.203 57.8724 38.203L57.8724 46.7279C57.0019 46.7888 56.2514 46.9074 55.4713 46.9074 50.279 46.7264 50.0075 48.4972 49.6174 52.819ZM59.6121 72.568 59.4919 72.568C56.4789 72.43 53.9188 74.7484 53.7582 77.7603 53.6084 80.7918 55.9487 83.3739 58.9505 83.5221L59.3109 83.5221C62.2831 83.7031 64.8325 81.4205 65.0135 78.4499L65.0135 78.1503C65.0743 75.1189 62.6435 72.6288 59.6121 72.568ZM78.4312 72.568C75.5199 72.4775 73.0875 74.7585 72.9986 77.6402 72.9986 77.8211 72.9986 77.9709 73.0298 78.1503 73.0298 81.4221 75.2499 83.5237 78.6122 83.5237 81.9135 83.5237 83.9855 81.3628 83.9855 77.9709 83.9543 74.6992 81.7622 72.5383 78.4312 72.568ZM97.7012 72.568C94.6341 72.5136 92.0929 74.9345 91.9987 78.0006 91.9909 81.0423 94.4504 83.5143 97.4921 83.5221 97.5015 83.5221 97.5108 83.5221 97.5202 83.5221L97.5811 83.5221C100.343 84.0026 103.134 81.3316 103.315 78.1207 103.463 75.1485 100.762 72.568 97.7012 72.568ZM124.143 73.0173C120.661 72.8675 118.92 71.6974 118.051 68.3944 117.511 66.2809 117.179 64.1196 117.06 61.9414 116.82 57.9193 116.85 53.8674 116.58 49.8452 115.949 40.3015 109.047 36.9705 99.0211 38.6196L99.0211 46.9042C100.611 46.9042 101.842 46.9042 103.073 46.9339 105.204 46.9635 106.825 47.7748 107.034 50.1463 107.245 52.3072 107.245 54.4977 107.456 56.6898 107.877 61.0428 108.116 65.4534 108.866 69.7456 109.527 73.2872 111.958 75.9286 114.988 78.0895 109.677 81.6608 108.116 86.7626 107.846 92.4964 107.696 96.4281 107.605 100.389 107.396 104.352 107.215 107.953 105.956 109.123 102.324 109.214 101.304 109.244 100.313 109.334 99.1725 109.395L99.1725 117.889C101.304 117.889 103.254 118.009 105.204 117.889 111.267 117.528 114.929 114.587 116.13 108.704 116.64 105.462 116.94 102.191 117.03 98.9197 117.24 95.9179 117.211 92.8864 117.511 89.9158 117.96 85.2633 120.092 83.3427 124.744 83.0431 125.195 82.9823 125.615 82.8933 126.036 82.7436L126.036 73.2279C125.254 73.1374 124.713 73.0485 124.143 73.0173Z" fill="#FFFFFF" fill-rule="nonzero" fill-opacity="1" transform="matrix(1.00351 0 0 1 2750 1131.23)"/><path d="M237.576 90.6819C237.576 96.9679 235.297 101.867 230.738 105.385 226.179 108.902 219.991 110.66 212.176 110.66 203.709 110.66 197.195 109.57 192.638 107.387L192.638 99.3753C195.568 100.614 198.76 101.591 202.213 102.307 205.664 103.023 209.084 103.38 212.471 103.38 218.007 103.38 222.175 102.33 224.976 100.229 227.777 98.1287 229.176 95.2064 229.176 91.4604 229.176 88.9859 228.68 86.9592 227.686 85.3787 226.692 83.7998 225.031 82.3426 222.703 81.0071 220.373 79.6715 216.833 78.1581 212.078 76.4638 205.434 74.0876 200.688 71.2699 197.839 68.0122 194.989 64.756 193.564 60.5061 193.564 55.2638 193.564 49.761 195.632 45.3799 199.768 42.1238 203.904 38.8677 209.374 37.2388 216.181 37.2388 223.28 37.2388 229.809 38.5416 235.769 41.1471L233.179 48.3771C227.285 45.9026 221.553 44.6654 215.985 44.6654 211.588 44.6654 208.151 45.6108 205.678 47.4987 203.203 49.3881 201.966 52.0108 201.966 55.3636 201.966 57.8381 202.422 59.8664 203.333 61.4437 204.244 63.0242 205.782 64.4721 207.949 65.792 210.115 67.1104 213.427 68.5676 217.89 70.1637 225.38 72.8347 230.533 75.7008 233.351 78.7619 236.167 81.8246 237.576 85.7969 237.576 90.6819ZM289.086 109.684 279.268 78.2736C278.65 76.353 277.492 71.9891 275.799 65.182L275.409 65.182C274.107 70.8814 272.968 75.278 271.989 78.3703L261.878 109.682 252.499 109.682 237.894 56.1453 246.394 56.1453C249.022 66.3874 251.652 76.629 254.283 86.8703 256.091 93.9037 257.124 98.642 257.384 101.084L257.774 101.084C258.132 99.2286 258.711 96.8259 259.508 93.8787 260.305 90.9315 260.998 88.5959 261.584 86.8687L271.403 56.1437 280.194 56.1437 289.769 86.8687C291.593 92.4698 292.831 97.1754 293.481 100.985L293.871 100.985C294.001 99.8137 294.352 98.0054 294.921 95.5637 295.491 93.122 298.886 79.9805 305.106 56.1437L313.508 56.1437 298.706 109.68 289.086 109.68ZM351.226 109.684 349.614 102.064 349.224 102.064C346.553 105.418 343.891 107.69 341.237 108.878 338.582 110.067 335.27 110.662 331.296 110.662 325.988 110.662 321.827 109.295 318.816 106.558 315.803 103.823 314.297 99.9323 314.297 94.885 314.297 84.0729 322.944 78.4062 340.236 77.8851L349.321 77.5918 349.321 74.2701C349.321 70.0701 348.417 66.9668 346.609 64.9651 344.802 62.9618 341.911 61.9602 337.939 61.9602 333.477 61.9602 328.43 63.3285 322.796 66.0635L320.304 59.8586C322.942 58.4263 325.832 57.303 328.976 56.4886 332.062 55.6826 335.238 55.2726 338.427 55.2685 344.81 55.2685 349.541 56.6851 352.617 59.5185 355.696 62.3518 357.234 66.8951 357.234 73.1468L357.234 109.685 351.226 109.685ZM332.907 103.969C337.955 103.969 341.921 102.585 344.802 99.8168 347.684 97.049 349.126 93.1735 349.126 88.1902L349.126 83.3536 341.017 83.6953C334.569 83.9231 329.92 84.9247 327.071 86.6987 324.22 88.4742 322.796 91.2342 322.796 94.9786 322.796 97.9087 323.683 100.141 325.459 101.67 327.231 103.204 329.715 103.969 332.907 103.969ZM412.825 56.1469 412.825 61.2752 402.909 62.4469C403.82 63.5875 404.634 65.0774 405.351 66.9169 406.067 68.7579 406.425 70.833 406.425 73.1452 406.425 78.3875 404.634 82.5719 401.052 85.6986 397.47 88.8252 392.552 90.3885 386.299 90.3885 384.703 90.3885 383.205 90.259 381.806 89.9985 378.353 91.8224 376.627 94.119 376.627 96.8852 376.627 98.3502 377.229 99.4346 378.436 100.134 379.64 100.834 381.709 101.184 384.639 101.184L394.116 101.184C399.912 101.184 404.366 102.405 407.475 104.847 410.585 107.289 412.14 110.838 412.14 115.495 412.14 121.422 409.763 125.941 405.009 129.05 400.255 132.16 393.317 133.715 384.2 133.715 377.198 133.715 371.8 132.412 368.007 129.807 364.213 127.201 362.317 123.522 362.317 118.767 362.317 115.511 363.358 112.693 365.442 110.317 367.527 107.941 370.457 106.328 374.235 105.48 372.869 104.863 371.72 103.9 370.792 102.597 369.864 101.296 369.399 99.7809 369.399 98.0538 369.399 96.1004 369.92 94.3904 370.962 92.9239 372.004 91.4588 373.649 90.0422 375.896 88.6739 373.128 87.5349 370.872 85.5956 369.13 82.8606 367.388 80.1256 366.517 76.9989 366.517 73.4807 366.517 67.619 368.276 63.1007 371.792 59.9257 375.309 56.7507 380.292 55.1624 386.74 55.1624 389.541 55.1624 392.065 55.4885 394.312 56.1391L412.825 56.1391ZM370.132 118.672C370.132 121.569 371.354 123.769 373.796 125.268 376.237 126.765 379.738 127.513 384.297 127.513 391.103 127.513 396.142 126.496 399.415 124.462 402.689 122.426 404.324 119.666 404.324 116.18 404.324 113.281 403.427 111.272 401.637 110.147 399.846 109.024 396.475 108.462 391.526 108.462L381.806 108.462C378.125 108.462 375.26 109.34 373.209 111.1 371.157 112.859 370.132 115.383 370.132 118.672ZM374.527 73.2919C374.527 77.0364 375.585 79.8697 377.702 81.7918 379.818 83.714 382.765 84.6735 386.544 84.6735 394.457 84.6735 398.414 80.8308 398.414 73.1452 398.414 65.1024 394.409 61.0802 386.397 61.0802 382.587 61.0802 379.657 62.1053 377.605 64.1585 375.554 66.2086 374.527 69.2541 374.527 73.2919ZM466.713 56.1469 466.713 61.2752 456.797 62.4469C457.708 63.5875 458.522 65.0774 459.238 66.9169 459.954 68.7579 460.313 70.833 460.313 73.1452 460.313 78.3875 458.522 82.5719 454.94 85.6986 451.358 88.8252 446.44 90.3885 440.187 90.3885 438.591 90.3885 437.093 90.259 435.693 89.9985 432.241 91.8224 430.515 94.119 430.515 96.8852 430.515 98.3502 431.117 99.4346 432.323 100.134 433.528 100.834 435.596 101.184 438.527 101.184L448.003 101.184C453.799 101.184 458.254 102.405 461.363 104.847 464.473 107.289 466.028 110.838 466.028 115.495 466.028 121.422 463.65 125.941 458.897 129.05 454.143 132.16 447.204 133.715 438.088 133.715 431.086 133.715 425.688 132.412 421.895 129.807 418.1 127.201 416.205 123.522 416.205 118.767 416.205 115.511 417.245 112.693 419.33 110.317 421.414 107.941 424.344 106.328 428.123 105.48 426.756 104.863 425.608 103.9 424.68 102.597 423.751 101.296 423.287 99.7809 423.287 98.0538 423.287 96.1004 423.808 94.3904 424.85 92.9239 425.892 91.4588 427.537 90.0422 429.783 88.6739 427.015 87.5349 424.759 85.5956 423.018 82.8606 421.275 80.1256 420.405 76.9989 420.405 73.4807 420.405 67.619 422.163 63.1007 425.68 59.9257 429.197 56.7507 434.18 55.1624 440.628 55.1624 443.429 55.1624 445.953 55.4885 448.2 56.1391L466.713 56.1391ZM424.02 118.672C424.02 121.569 425.241 123.769 427.683 125.268 430.125 126.765 433.626 127.513 438.185 127.513 444.99 127.513 450.03 126.496 453.303 124.462 456.577 122.426 458.212 119.666 458.212 116.18 458.212 113.281 457.314 111.272 455.525 110.147 453.734 109.024 450.362 108.462 445.413 108.462L435.693 108.462C432.013 108.462 429.148 109.34 427.097 111.1 425.045 112.859 424.02 115.383 424.02 118.672ZM428.415 73.2919C428.415 77.0364 429.473 79.8697 431.59 81.7918 433.706 83.714 436.653 84.6735 440.432 84.6735 448.345 84.6735 452.302 80.8308 452.302 73.1452 452.302 65.1024 448.297 61.0802 440.285 61.0802 436.475 61.0802 433.545 62.1053 431.493 64.1585 429.441 66.2086 428.415 69.2541 428.415 73.2919ZM494.237 110.66C486.323 110.66 480.078 108.251 475.503 103.43 470.927 98.6108 468.64 91.9191 468.64 83.3536 468.64 74.7242 470.765 67.8686 475.015 62.7886 479.265 57.7086 484.971 55.1686 492.137 55.1686 498.845 55.1686 504.153 57.3763 508.061 61.7885 511.97 66.2008 513.923 72.0219 513.923 79.2503L513.923 84.3802 477.043 84.3802C477.205 90.6647 478.794 95.4358 481.805 98.6919 484.818 101.948 489.058 103.577 494.53 103.577 500.293 103.577 505.993 102.372 511.627 99.9619L511.627 107.192C508.76 108.429 506.049 109.317 503.493 109.854 500.938 110.392 497.852 110.66 494.237 110.66ZM492.04 61.9586C487.741 61.9586 484.314 63.3581 481.757 66.1587 479.199 68.9592 477.694 72.8347 477.238 77.7853L505.228 77.7853C505.228 72.6725 504.089 68.7564 501.81 66.037 499.529 63.3191 496.273 61.9586 492.04 61.9586ZM547.471 55.1686C549.847 55.1686 551.981 55.3636 553.87 55.7537L552.747 63.277C550.532 62.7886 548.578 62.5452 546.885 62.5452 542.554 62.5452 538.85 64.3036 535.772 67.8203 532.694 71.337 531.156 75.718 531.156 80.9603L531.156 109.684 523.047 109.684 523.047 56.1469 529.74 56.1469 530.669 66.0619 531.059 66.0619C533.045 62.578 535.438 59.8913 538.24 58.0019 541.038 56.1141 544.115 55.1686 547.471 55.1686Z" fill="#FFFFFF" fill-rule="nonzero" fill-opacity="1" transform="matrix(1.00351 0 0 1 2750 1131.23)"/><path d="M399.188 150.774C399.188 150.774 393.836 150.164 391.621 150.164 388.41 150.164 386.767 151.311 386.767 153.566 386.767 156.012 388.143 156.585 392.615 157.808 398.119 159.337 400.105 160.789 400.105 165.261 400.105 170.995 396.514 173.478 391.354 173.478 387.953 173.478 382.793 172.446 382.793 172.446L383.213 169.044C383.213 169.044 388.372 169.732 391.086 169.732 394.334 169.732 395.824 168.28 395.824 165.528 395.824 163.311 394.64 162.546 390.625 161.591 384.97 160.14 382.523 158.419 382.523 153.871 382.523 148.596 386.001 146.418 391.237 146.418 394.562 146.418 399.531 147.334 399.531 147.334L399.188 150.774ZM410.281 146.877 417.657 146.877 423.505 167.324 429.353 146.877 436.767 146.877 436.767 173.057 432.487 173.057 432.487 150.431 432.262 150.431 425.724 171.987 421.29 171.987 414.749 150.431 414.523 150.431 414.523 173.057 410.281 173.057 410.281 146.877ZM502.473 146.877 521.582 146.877 521.582 150.661 514.206 150.661 514.206 173.057 509.926 173.057 509.926 150.661 502.473 150.661 502.473 146.877ZM540.042 146.877C545.241 146.877 548.031 148.826 548.031 153.68 548.031 156.851 547.037 158.418 544.935 159.565 547.19 160.443 548.68 162.048 548.68 165.642 548.68 170.993 545.431 173.057 540.348 173.057L530.104 173.057 530.104 146.877 540.042 146.877ZM534.348 150.547 534.348 158.039 539.966 158.039C542.565 158.039 543.711 156.739 543.711 154.177 543.711 151.656 542.411 150.547 539.813 150.547L534.348 150.547ZM534.348 161.63 534.348 169.389 540.12 169.389C542.757 169.389 544.324 168.548 544.324 165.414 544.324 162.432 542.107 161.63 540.044 161.63L534.348 161.63ZM559.197 146.877 575.709 146.877 575.709 150.584 563.439 150.584 563.439 157.998 573.415 157.998 573.415 161.63 563.439 161.63 563.439 169.313 575.709 169.313 575.709 173.057 559.197 173.057 559.197 146.877ZM590.921 146.877 599.366 146.877 605.863 173.057 601.583 173.057 599.65 165.375 590.637 165.375 588.703 173.057 584.461 173.057 590.921 146.877ZM591.484 161.63 598.828 161.63 596.118 150.431 594.206 150.431 591.484 161.63ZM619.549 165.298 619.549 173.057 615.306 173.057 615.306 146.877 625.245 146.877C631.016 146.877 634.112 150.183 634.112 155.992 634.112 159.699 632.622 163.044 629.832 164.342L634.15 173.056 629.487 173.056 625.704 165.297 619.549 165.297ZM625.245 150.547 619.55 150.547 619.55 161.632 625.323 161.632C628.534 161.632 629.755 158.746 629.755 156.032 629.754 153.049 628.303 150.547 625.245 150.547ZM452.478 146.877 460.923 146.877 467.42 173.057 463.14 173.057 461.207 165.375 452.194 165.375 450.261 173.057 446.019 173.057 452.478 146.877ZM453.041 161.63 460.385 161.63 457.675 150.431 455.764 150.431 453.041 161.63ZM481.106 165.298 481.106 173.057 476.864 173.057 476.864 146.877 486.801 146.877C492.572 146.877 495.667 150.183 495.667 155.992 495.667 159.699 494.177 163.044 491.388 164.342L495.706 173.056 491.043 173.056 487.259 165.297 481.106 165.297ZM486.801 150.547 481.106 150.547 481.106 161.632 486.877 161.632C490.088 161.632 491.31 158.746 491.31 156.032 491.31 153.049 489.859 150.547 486.801 150.547Z" fill="#FFFFFF" fill-rule="nonzero" fill-opacity="1" transform="matrix(1.00351 0 0 1 2750 1131.23)"/><path d="M203.771 167.944C203.771 169.637 203.158 170.957 201.93 171.903 200.702 172.848 199.038 173.322 196.934 173.322 194.655 173.322 192.903 173.029 191.675 172.443L191.675 170.285C192.506 170.632 193.37 170.896 194.253 171.074 195.161 171.265 196.086 171.363 197.014 171.364 198.504 171.364 199.626 171.082 200.381 170.516 201.135 169.951 201.512 169.165 201.512 168.157 201.512 167.489 201.378 166.944 201.111 166.518 200.844 166.092 200.397 165.702 199.771 165.342 199.145 164.982 198.19 164.576 196.911 164.119 195.123 163.479 193.845 162.721 193.078 161.844 192.312 160.967 191.928 159.825 191.928 158.413 191.928 156.933 192.485 155.753 193.597 154.876 194.71 153.999 196.182 153.561 198.016 153.561 199.927 153.561 201.684 153.912 203.288 154.613L202.59 156.558C201.003 155.892 199.462 155.56 197.963 155.56 196.78 155.56 195.855 155.814 195.189 156.321 194.522 156.83 194.19 157.535 194.19 158.437 194.19 159.104 194.313 159.649 194.558 160.075 194.803 160.501 195.218 160.889 195.8 161.245 196.382 161.601 197.275 161.992 198.476 162.421 200.492 163.141 201.879 163.911 202.637 164.735 203.392 165.562 203.771 166.631 203.771 167.944ZM209.764 158.65 209.764 167.997C209.764 169.172 210.031 170.048 210.566 170.628 211.1 171.207 211.937 171.495 213.076 171.495 214.583 171.495 215.687 171.084 216.384 170.26 217.08 169.438 217.429 168.09 217.429 166.224L217.429 158.65 219.612 158.65 219.612 173.059 217.81 173.059 217.495 171.127 217.376 171.127C216.927 171.839 216.281 172.405 215.516 172.758 214.722 173.134 213.817 173.322 212.802 173.322 211.048 173.322 209.736 172.906 208.864 172.073 207.992 171.241 207.555 169.907 207.555 168.076L207.555 158.649 209.764 158.649ZM231.231 173.322C230.293 173.322 229.437 173.149 228.661 172.803 227.881 172.453 227.208 171.902 226.709 171.207L226.552 171.207C226.656 172.048 226.709 172.845 226.709 173.599L226.709 179.529 224.528 179.529 224.528 158.65 226.302 158.65 226.605 160.622 226.709 160.622C227.271 159.833 227.923 159.264 228.669 158.912 229.415 158.561 230.268 158.387 231.232 158.387 233.144 158.387 234.618 159.04 235.657 160.346 236.696 161.652 237.216 163.484 237.216 165.841 237.216 168.208 236.688 170.046 235.631 171.357 234.573 172.667 233.106 173.322 231.231 173.322ZM230.916 160.242C229.443 160.242 228.379 160.649 227.72 161.463 227.062 162.278 226.725 163.576 226.708 165.355L226.708 165.841C226.708 167.866 227.045 169.314 227.72 170.186 228.396 171.059 229.477 171.494 230.969 171.494 232.214 171.494 233.189 170.992 233.894 169.982 234.599 168.974 234.953 167.586 234.953 165.815 234.953 164.017 234.599 162.64 233.894 161.68 233.189 160.721 232.195 160.242 230.916 160.242ZM248.134 173.322C247.196 173.322 246.34 173.149 245.564 172.803 244.784 172.453 244.111 171.902 243.613 171.207L243.455 171.207C243.559 172.048 243.613 172.845 243.613 173.599L243.613 179.529 241.431 179.529 241.431 158.65 243.205 158.65 243.508 160.622 243.613 160.622C244.174 159.833 244.826 159.264 245.572 158.912 246.318 158.561 247.171 158.387 248.136 158.387 250.047 158.387 251.521 159.04 252.56 160.346 253.599 161.652 254.119 163.484 254.119 165.841 254.119 168.208 253.592 170.046 252.534 171.357 251.476 172.667 250.009 173.322 248.134 173.322ZM247.819 160.242C246.346 160.242 245.282 160.649 244.624 161.463 243.965 162.278 243.628 163.576 243.611 165.355L243.611 165.841C243.611 167.866 243.948 169.314 244.624 170.186 245.299 171.059 246.38 171.494 247.872 171.494 249.117 171.494 250.092 170.992 250.797 169.982 251.502 168.974 251.857 167.586 251.857 165.815 251.857 164.017 251.502 162.64 250.797 161.68 250.092 160.721 249.098 160.242 247.819 160.242ZM270.871 165.841C270.871 168.191 270.279 170.024 269.095 171.343 267.913 172.662 266.278 173.322 264.192 173.322 262.903 173.322 261.759 173.02 260.759 172.414 259.761 171.809 258.988 170.943 258.445 169.812 257.901 168.681 257.631 167.358 257.631 165.841 257.631 163.492 258.218 161.662 259.392 160.351 260.567 159.04 262.198 158.385 264.284 158.385 266.299 158.385 267.9 159.056 269.089 160.396 270.278 161.74 270.871 163.554 270.871 165.841ZM259.892 165.841C259.892 167.682 260.26 169.083 260.996 170.048 261.733 171.012 262.815 171.494 264.245 171.494 265.674 171.494 266.758 171.013 267.498 170.054 268.239 169.096 268.608 167.69 268.608 165.841 268.608 164.008 268.237 162.618 267.498 161.666 266.758 160.714 265.664 160.24 264.217 160.24 262.787 160.24 261.711 160.708 260.982 161.646 260.254 162.584 259.892 163.983 259.892 165.841ZM281.656 158.387C282.296 158.387 282.87 158.438 283.379 158.544L283.076 160.569C282.559 160.448 282.03 160.382 281.499 160.373 280.332 160.373 279.336 160.847 278.508 161.793 277.679 162.738 277.266 163.918 277.266 165.33L277.266 173.06 275.085 173.06 275.085 158.652 276.885 158.652 277.135 161.32 277.24 161.32C277.775 160.382 278.417 159.66 279.173 159.15 279.903 158.648 280.77 158.381 281.656 158.387ZM292.323 171.522C292.709 171.522 293.082 171.492 293.441 171.436 293.729 171.393 294.014 171.334 294.296 171.258L294.296 172.928C294.058 173.042 293.71 173.137 293.25 173.21 292.84 173.281 292.425 173.318 292.008 173.322 289.22 173.322 287.827 171.854 287.827 168.918L287.827 160.346 285.763 160.346 285.763 159.293 287.827 158.387 288.747 155.31 290.01 155.31 290.01 158.65 294.191 158.65 294.191 160.346 290.01 160.346 290.01 168.828C290.01 169.695 290.216 170.36 290.628 170.825 291.039 171.29 291.606 171.522 292.323 171.522ZM303.519 173.322C301.39 173.322 299.709 172.673 298.478 171.377 297.246 170.079 296.631 168.278 296.631 165.972 296.631 163.651 297.202 161.805 298.347 160.437 299.491 159.07 301.028 158.387 302.956 158.387 304.761 158.387 306.191 158.981 307.242 160.168 308.294 161.357 308.819 162.924 308.819 164.869L308.819 166.25 298.893 166.25C298.937 167.943 299.365 169.225 300.176 170.104 300.987 170.981 302.128 171.419 303.601 171.419 305.151 171.419 306.687 171.094 308.202 170.445L308.202 172.391C307.498 172.703 306.765 172.943 306.013 173.107 305.191 173.263 304.356 173.335 303.519 173.322ZM302.928 160.214C301.77 160.214 300.848 160.591 300.16 161.346 299.472 162.098 299.067 163.142 298.943 164.475L306.478 164.475C306.478 163.098 306.172 162.044 305.557 161.314 304.944 160.58 304.067 160.214 302.928 160.214ZM322.885 171.127 322.766 171.127C321.758 172.591 320.251 173.322 318.243 173.322 316.358 173.322 314.893 172.678 313.845 171.389 312.798 170.102 312.274 168.269 312.274 165.894 312.274 163.52 312.8 161.674 313.851 160.359 314.903 159.044 316.366 158.387 318.242 158.387 320.196 158.387 321.694 159.097 322.738 160.516L322.908 160.516 322.816 159.477 322.763 158.466 322.763 152.601 324.946 152.601 324.946 173.059 323.17 173.059 322.885 171.127ZM318.521 171.495C320.011 171.495 321.09 171.09 321.761 170.28 322.432 169.47 322.768 168.161 322.768 166.355L322.768 165.894C322.768 163.852 322.428 162.396 321.749 161.523 321.069 160.651 319.984 160.214 318.494 160.214 317.215 160.214 316.235 160.711 315.556 161.707 314.876 162.702 314.538 164.106 314.538 165.921 314.538 167.762 314.875 169.15 315.55 170.088 316.224 171.027 317.215 171.495 318.521 171.495ZM344.356 158.413C346.25 158.413 347.72 159.061 348.768 160.353 349.815 161.646 350.339 163.474 350.339 165.843 350.339 168.21 349.812 170.048 348.754 171.358 347.698 172.669 346.231 173.324 344.356 173.324 343.418 173.324 342.562 173.151 341.786 172.804 341.006 172.454 340.333 171.904 339.835 171.208L339.677 171.208 339.217 173.062 337.654 173.062 337.654 152.601 339.835 152.601 339.835 157.572C339.835 158.686 339.8 159.685 339.73 160.569L339.835 160.569C340.849 159.132 342.357 158.413 344.356 158.413ZM344.039 160.242C342.549 160.242 341.476 160.668 340.819 161.523 340.162 162.378 339.833 163.818 339.833 165.843 339.833 167.868 340.17 169.316 340.846 170.188 341.521 171.06 342.602 171.495 344.094 171.495 345.436 171.495 346.434 171.009 347.091 170.03 347.748 169.054 348.077 167.65 348.077 165.818 348.077 163.941 347.748 162.543 347.091 161.624 346.434 160.705 345.415 160.242 344.039 160.242ZM352.229 158.65 354.569 158.65 357.724 166.868C358.415 168.743 358.846 170.098 359.013 170.931L359.117 170.931C359.231 170.484 359.47 169.72 359.833 168.636 360.197 167.554 361.387 164.225 363.403 158.652L365.743 158.652 359.551 175.061C358.936 176.682 358.22 177.831 357.401 178.512 356.582 179.192 355.576 179.53 354.383 179.53 353.717 179.53 353.059 179.456 352.411 179.306L352.411 177.557C352.893 177.663 353.432 177.716 354.029 177.716 355.527 177.716 356.597 176.875 357.237 175.192L358.039 173.141 352.229 158.65Z" fill="#FFFFFF" fill-rule="nonzero" fill-opacity="1" transform="matrix(1.00351 0 0 1 2750 1131.23)"/></g></g></g></g></g></svg>