<svg width="1834" height="1687" xmlns="http://www.w3.org/2000/svg" xmlns:xlink="http://www.w3.org/1999/xlink" xml:space="preserve" overflow="hidden"><defs><filter id="fx0" x="-10%" y="-10%" width="120%" height="120%" filterUnits="userSpaceOnUse" primitiveUnits="userSpaceOnUse"><feComponentTransfer color-interpolation-filters="sRGB"><feFuncR type="discrete" tableValues="0.000000 0.000000"/><feFuncG type="discrete" tableValues="0.000000 0.000000"/><feFuncB type="discrete" tableValues="0.000000 0.000000"/><feFuncA type="linear" slope="0.709804" intercept="0.000000"/></feComponentTransfer><feGaussianBlur stdDeviation="14.807940 14.791800"/></filter><clipPath id="clip1"><rect x="0.201347" y="0.241135" width="366.597" height="336.518"/></clipPath><clipPath id="clip2"><rect x="0" y="0" width="367" height="337"/></clipPath><clipPath id="clip3"><rect x="0" y="0" width="367" height="337"/></clipPath><clipPath id="clip4"><rect x="1091" y="1563" width="625" height="141"/></clipPath><clipPath id="clip5"><rect x="1091" y="1563" width="625" height="141"/></clipPath><clipPath id="clip6"><rect x="1091" y="1563" width="625" height="141"/></clipPath></defs><g transform="translate(-485 -641)"><g><g clip-path="url(#clip1)" filter="url(#fx0)" transform="matrix(4.99455 0 0 5 487 644)"><g clip-path="url(#clip2)"><g clip-path="url(#clip3)" transform="matrix(1 0 0 1 -7.45058e-07 1.41263e-05)"><path d="M45.1252 58.3156C45.1252 51.0257 51.0413 45.116 58.3392 45.116L308.661 45.116C315.959 45.116 321.875 51.0257 321.875 58.3156L321.875 278.684C321.875 285.974 315.959 291.884 308.661 291.884L58.3392 291.884C51.0413 291.884 45.1252 285.974 45.1252 278.684Z" stroke="#565656" stroke-width="1" stroke-linecap="butt" stroke-linejoin="miter" stroke-miterlimit="8" stroke-opacity="0.772549" fill="#343434" fill-rule="evenodd" fill-opacity="0.65098"/></g></g></g><path d="M751.5 966.762C751.5 932.376 779.376 904.5 813.762 904.5L1993.24 904.5C2027.62 904.5 2055.5 932.376 2055.5 966.762L2055.5 2006.24C2055.5 2040.62 2027.62 2068.5 1993.24 2068.5L813.762 2068.5C779.376 2068.5 751.5 2040.62 751.5 2006.24Z" stroke="#565656" stroke-width="4.58333" stroke-linecap="butt" stroke-linejoin="miter" stroke-miterlimit="8" stroke-opacity="0.772549" fill="#343434" fill-rule="evenodd" fill-opacity="0.65098"/><g><g><g><path d="M366.687 0.0462 462.766 0.0462 462.766 17.78 424.652 17.78 424.652 111.075 405.594 111.075 405.594 17.78 366.687 17.78 366.687 0.0462ZM208.673 0.0462 208.673 17.78 131.659 17.78 131.659 46.3078 193.594 46.3078 193.594 64.0416 131.659 64.0416 131.659 93.3409 208.673 93.3409 208.673 111.076 112.602 111.076 112.602 17.78 112.594 17.78 112.594 0.0462 208.673 0.0462ZM256.648 0.0924001 231.709 0.0924001 321.037 111.121 346.049 111.121 301.38 55.6444 345.978 0.1764 321.037 0.2156 288.893 40.138 256.648 0.0924001ZM282.24 79.401 269.751 63.8722 231.637 111.206 256.648 111.206 282.24 79.401Z" fill="#FFFFFF" fill-rule="nonzero" fill-opacity="1" transform="matrix(1.00072 0 0 1 1127 1268)"/><path d="M113.27 111.075 23.821 0 0 0 0 111.028 19.0568 111.028 19.0568 23.7328 89.3298 111.075 113.27 111.075Z" fill="#FFFFFF" fill-rule="evenodd" fill-opacity="1" transform="matrix(1.00072 0 0 1 1127 1268)"/><path d="M467.05 110.397C465.71 110.419 464.419 109.895 463.473 108.947 462.479 107.979 461.988 106.809 462 105.421 461.988 104.073 462.479 102.915 463.473 101.948 464.419 100.999 465.71 100.476 467.05 100.498 468.393 100.498 469.567 100.981 470.561 101.948 471.569 102.914 472.072 104.073 472.086 105.421 472.084 106.306 471.837 107.173 471.375 107.927 470.921 108.673 470.286 109.29 469.528 109.722 468.779 110.17 467.922 110.403 467.05 110.397ZM499.576 63.623 508.021 63.623 508.021 96.159C508.009 99.1481 507.362 101.706 506.097 103.856 504.819 106.007 503.05 107.647 500.777 108.805 498.518 109.95 495.87 110.537 492.862 110.537 490.111 110.537 487.645 110.04 485.45 109.073 483.255 108.107 481.512 106.656 480.234 104.747 478.942 102.838 478.309 100.458 478.309 97.6095L486.768 97.6095C486.78 98.8555 487.065 99.9377 487.606 100.841 488.14 101.734 488.92 102.454 489.853 102.914 490.821 103.398 491.932 103.641 493.184 103.641 494.54 103.641 495.702 103.361 496.645 102.787 497.587 102.227 498.311 101.387 498.815 100.268 499.305 99.1621 499.564 97.7873 499.576 96.159L499.576 63.623ZM542.768 76.3476C542.562 74.375 541.658 72.835 540.083 71.7416 538.494 70.6356 536.441 70.0868 533.922 70.0868 532.154 70.0868 530.631 70.3542 529.366 70.8764 528.1 71.4112 527.119 72.1224 526.446 73.0268 525.776 73.9298 525.44 74.9602 525.413 76.118 525.413 77.0854 525.646 77.924 526.098 78.624 526.55 79.338 527.156 79.9358 527.945 80.4188 528.755 80.9294 529.621 81.3438 530.528 81.6536 531.482 81.984 532.438 82.264 533.393 82.4936L537.796 83.5744C539.551 83.9734 541.266 84.5272 542.923 85.2292 544.516 85.8881 546.007 86.7706 547.351 87.8501 548.642 88.8891 549.699 90.1898 550.451 91.6665 551.213 93.1561 551.6 94.8991 551.6 96.9095 551.6 99.6199 550.903 101.998 549.495 104.061 548.088 106.109 546.06 107.712 543.401 108.87 540.753 110.015 537.551 110.6 533.781 110.6 530.14 110.6 526.963 110.04 524.291 108.92 521.605 107.814 519.512 106.184 518.002 104.048 516.491 101.91 515.678 99.3021 515.561 96.2361L523.929 96.2361C524.045 97.8377 524.562 99.1747 525.44 100.255 526.33 101.324 527.492 102.113 528.913 102.648 530.347 103.169 531.947 103.436 533.717 103.436 535.563 103.436 537.19 103.156 538.597 102.61 539.992 102.063 541.089 101.298 541.877 100.306 542.678 99.3259 543.078 98.1695 543.091 96.8451 543.078 95.6368 542.716 94.6317 542.019 93.8421 541.309 93.0539 540.328 92.3917 539.075 91.8583 537.642 91.2665 536.165 90.7859 534.659 90.4204L529.314 89.0709C525.453 88.0909 522.392 86.6027 520.158 84.6049 517.912 82.607 516.801 79.9611 516.801 76.6388 516.801 73.9172 517.549 71.5246 519.062 69.4764 520.558 67.4282 522.612 65.8364 525.208 64.7052 527.816 63.56 530.76 63 534.039 63 537.371 63 540.288 63.56 542.807 64.7052 545.324 65.8378 547.301 67.4156 548.733 69.426 550.167 71.4364 550.916 73.738 550.955 76.3476L542.768 76.3476Z" fill="#FFFFFF" fill-rule="nonzero" fill-opacity="1" transform="matrix(1.00072 0 0 1 1127 1268)"/></g></g></g><g clip-path="url(#clip4)"><g clip-path="url(#clip5)"><g clip-path="url(#clip6)"><path d="M310.691 35.2542C286.372 35.2542 268.837 51.115 268.837 74.9056 268.837 98.6965 288.574 114.557 312.893 114.557 327.586 114.557 340.54 108.742 348.559 98.9389L331.706 89.2021C327.257 94.0706 320.493 96.9123 312.893 96.9123 302.343 96.9123 293.377 91.4051 290.049 82.5936L351.775 82.5936C352.258 80.1266 352.545 77.5711 352.545 74.8837 352.545 51.115 335.009 35.2542 310.691 35.2542ZM289.852 67.1957C292.605 58.4064 300.138 52.8772 310.668 52.8772 321.221 52.8772 328.754 58.4064 331.487 67.1957L289.852 67.1957ZM547.894 35.2542C523.576 35.2542 506.04 51.115 506.04 74.9056 506.04 98.6965 525.778 114.557 550.097 114.557 564.789 114.557 577.743 108.742 585.76 98.9389L568.91 89.2021C564.461 94.0706 557.697 96.9123 550.097 96.9123 539.547 96.9123 530.581 91.4051 527.253 82.5936L588.979 82.5936C589.462 80.1266 589.748 77.5711 589.748 74.8837 589.748 51.115 572.213 35.2542 547.894 35.2542ZM527.078 67.1957C529.831 58.4064 537.364 52.8772 547.894 52.8772 558.447 52.8772 565.98 58.4064 568.711 67.1957L527.078 67.1957ZM441.101 74.9056C441.101 88.123 449.735 96.9342 463.127 96.9342 472.205 96.9342 479.011 92.8148 482.514 86.0962L499.431 95.8548C492.426 107.53 479.298 114.557 463.127 114.557 438.786 114.557 421.273 98.6965 421.273 74.9056 421.273 51.115 438.809 35.2542 463.127 35.2542 479.298 35.2542 492.404 42.2815 499.431 53.9566L482.514 63.7153C479.011 56.9966 472.205 52.8772 463.127 52.8772 449.757 52.8772 441.101 61.6885 441.101 74.9056ZM622.791 11.0229 622.791 112.354 602.967 112.354 602.967 11.0229 622.791 11.0229ZM81.3956 0.00863637 162.791 140.991 0 140.991 81.3956 0.00863637ZM284.895 11.0229 223.854 116.76 162.813 11.0229 185.701 11.0229 223.854 77.1085 262.008 11.0229 284.895 11.0229ZM414.664 37.4572 414.664 58.803C412.462 58.164 410.128 57.7235 407.617 57.7235 394.817 57.7235 385.587 66.5348 385.587 79.7519L385.587 112.354 365.763 112.354 365.763 37.4572 385.587 37.4572 385.587 57.7235C385.587 46.533 398.606 37.4572 414.664 37.4572Z" fill="#FFFFFF" fill-rule="nonzero" fill-opacity="1" transform="matrix(1.00355 0 0 1 1091 1563)"/></g></g></g></g></g></svg>