<svg width="3850" height="2260" xmlns="http://www.w3.org/2000/svg" xmlns:xlink="http://www.w3.org/1999/xlink" xml:space="preserve" overflow="hidden"><defs><filter id="fx0" x="-10%" y="-10%" width="120%" height="120%" filterUnits="userSpaceOnUse" primitiveUnits="userSpaceOnUse"><feComponentTransfer color-interpolation-filters="sRGB"><feFuncR type="discrete" tableValues="0.066667 0.066667"/><feFuncG type="discrete" tableValues="0.066667 0.066667"/><feFuncB type="discrete" tableValues="0.066667 0.066667"/><feFuncA type="linear" slope="0.611765" intercept="0.000000"/></feComponentTransfer><feGaussianBlur stdDeviation="15.798660 15.803603"/></filter><clipPath id="clip1"><rect x="0.537018" y="0.531612" width="853.926" height="500.937"/></clipPath><clipPath id="clip2"><rect x="0" y="0" width="855" height="502"/></clipPath><clipPath id="clip3"><rect x="0" y="0" width="855" height="502"/></clipPath><clipPath id="clip4"><rect x="1844" y="697" width="619" height="73"/></clipPath><clipPath id="clip5"><rect x="1844" y="697" width="619" height="73"/></clipPath><clipPath id="clip6"><rect x="1844" y="697" width="619" height="73"/></clipPath></defs><g transform="translate(-229 -256)"><g><g clip-path="url(#clip1)" filter="url(#fx0)" transform="matrix(4.49942 0 0 4.49801 231 259)"><g clip-path="url(#clip2)" transform="translate(7.10543e-15 0)"><g clip-path="url(#clip3)" transform="matrix(1 0 0 1 6.70552e-07 -3.54648e-06)"><path d="M48.433 70.1123C48.433 58.1444 58.1318 48.4426 70.0959 48.4426L784.904 48.4426C796.868 48.4426 806.567 58.1444 806.567 70.1123L806.567 431.888C806.567 443.856 796.868 453.557 784.904 453.557L70.0959 453.557C58.1318 453.557 48.433 443.856 48.433 431.888Z" stroke="#565656" stroke-width="1" stroke-linecap="butt" stroke-linejoin="miter" stroke-miterlimit="8" stroke-opacity="0.772549" fill="#2D2D2D" fill-rule="evenodd" fill-opacity="0.65098"/></g></g></g><path d="M560.5 627.594C560.5 577.284 601.284 536.5 651.594 536.5L3657.41 536.5C3707.72 536.5 3748.5 577.284 3748.5 627.594L3748.5 2148.41C3748.5 2198.72 3707.72 2239.5 3657.41 2239.5L651.594 2239.5C601.284 2239.5 560.5 2198.72 560.5 2148.41Z" stroke="#565656" stroke-width="4.58333" stroke-linecap="butt" stroke-linejoin="miter" stroke-miterlimit="8" stroke-opacity="0.772549" fill="#2D2D2D" fill-rule="evenodd" fill-opacity="0.65098"/><g clip-path="url(#clip4)"><g clip-path="url(#clip5)"><g clip-path="url(#clip6)"><path d="M571.296 46.347C576.716 45.4108 581.822 43.1564 586.165 39.7823L586.165 39.7823C590.172 35.5877 592.181 29.8719 591.68 24.0926 591.695 19.389 590.399 14.7743 587.938 10.7662 584.304 4.56927 577.783 0.629711 570.607 0.295412L567.029 0.295413 558.659 0 520.781 0C518.483 0 517.498 0.951887 517.498 3.28237L517.498 69.6518C517.498 71.9495 518.45 72.9342 520.781 72.9342L530.628 72.9342C532.925 72.9342 533.91 71.9823 533.91 69.6518L533.91 47.66 545.956 47.66C548.605 47.7984 551.124 48.8544 553.079 50.6469L572.182 69.8488C573.924 71.6298 576.262 72.7051 578.747 72.8686L593.419 72.8686C595.717 72.8686 596.275 71.5228 594.667 69.8816ZM568.802 32.2329 533.844 32.2329 533.844 15.4928 568.802 15.4928C572.352 15.9289 575 18.9738 574.94 22.5499L574.94 25.1429C575.002 28.726 572.357 31.7813 568.802 32.2329Z" fill="#D50C2D" fill-rule="nonzero" fill-opacity="1" transform="matrix(1.02899 0 0 1 1847.63 697)"/><path d="M502.202 57.5071 447.945 57.5071 447.945 43.8196 491.239 43.8196C493.537 43.8196 494.522 42.8677 494.522 40.5372L494.522 32.5611C494.522 30.2634 493.57 29.2787 491.239 29.2787L447.912 29.2787 447.912 15.6241 502.202 15.6241C504.5 15.6241 505.485 14.6722 505.485 12.3417L505.485 3.28237C505.485 0.984711 504.533 0 502.202 0L434.52 0C432.222 0 431.238 0.951887 431.238 3.28237L431.238 69.7175C431.238 72.0152 432.189 72.9999 434.52 72.9999L502.202 72.9999C504.5 72.9999 505.485 72.048 505.485 69.7175L505.485 60.7566C505.485 58.459 504.402 57.5071 502.202 57.5071Z" fill="#D50C2D" fill-rule="nonzero" fill-opacity="1" transform="matrix(1.02899 0 0 1 1847.63 697)"/><path d="M419.257 23.9613C419.328 19.3166 418.039 14.7525 415.548 10.8318 411.889 4.48148 405.272 0.407401 397.954 6.26062e-07L348.194 0C345.863 0 344.911 0.951887 344.911 3.28237L344.911 69.6518C344.911 71.9495 345.863 72.9342 348.194 72.9342L358.894 72.9342C361.192 72.9342 362.176 72.0152 362.176 69.6518L362.176 15.5256 390.996 15.5256C397.134 15.5256 403.108 19.5957 403.108 25.7338L403.108 69.7175C403.108 72.0152 404.06 72.9999 406.39 72.9999L416.073 72.9999C418.403 72.9999 419.355 72.048 419.355 69.7175Z" fill="#D50C2D" fill-rule="nonzero" fill-opacity="1" transform="matrix(1.02899 0 0 1 1847.63 697)"/><path d="M329.78 57.0804 283.006 57.0804 329.878 15.8867C331.78 14.4308 332.973 12.235 333.16 9.84711L333.16 3.28237C333.16 0.984711 332.176 0 329.878 0L262.031 0C259.734 0 258.749 0.951887 258.749 3.28237L258.749 12.3745C258.749 14.6722 259.701 15.6569 262.031 15.6569L305.523 15.6569 261.9 56.588C260.014 58.0574 258.825 60.2456 258.618 62.6276L258.618 69.7503C258.618 72.048 259.57 73.0327 261.9 73.0327L329.681 73.0327C331.979 73.0327 332.963 72.0808 332.963 69.7503L332.963 60.3299C333.029 58.0323 332.077 57.0804 329.78 57.0804Z" fill="#D50C2D" fill-rule="nonzero" fill-opacity="1" transform="matrix(1.02899 0 0 1 1847.63 697)"/><path d="M243.519 0 175.771 0C173.44 0 172.488 0.919063 172.488 3.28237L172.488 12.3417C172.488 14.6394 173.408 15.6241 175.771 15.6241L201.308 15.6241 201.308 69.7175C201.308 72.0152 202.26 72.9999 204.59 72.9999L215.422 72.9999C217.719 72.9999 218.704 72.048 218.704 69.7175L218.704 15.5912 243.552 15.5912C245.849 15.5912 246.834 14.6394 246.834 12.3089L246.834 3.28237C246.768 1.05036 245.817 0 243.519 0Z" fill="#D50C2D" fill-rule="nonzero" fill-opacity="1" transform="matrix(1.02899 0 0 1 1847.63 697)"/><path d="M157.258 57.5071 103.099 57.5071 103.099 43.8196 146.394 43.8196C148.691 43.8196 149.676 42.8677 149.676 40.5372L149.676 32.5611C149.676 30.2634 148.757 29.2787 146.394 29.2787L103.099 29.2787 103.099 15.6241 157.258 15.6241C159.556 15.6241 160.541 14.6722 160.541 12.3417L160.541 3.28237C160.541 0.984711 159.589 0 157.258 0L89.7071 0C87.4095 0 86.4248 0.951887 86.4248 3.28237L86.4248 69.7175C86.4248 72.0152 87.3766 72.9999 89.7071 72.9999L157.258 72.9999C159.556 72.9999 160.541 72.048 160.541 69.7175L160.541 60.7566C160.508 58.459 159.556 57.5071 157.258 57.5071Z" fill="#D50C2D" fill-rule="nonzero" fill-opacity="1" transform="matrix(1.02899 0 0 1 1847.63 697)"/><path d="M70.9976 0 60.7895 0C58.4918 0 57.5071 0.951887 57.5071 3.28237L57.5071 29.1146 16.8385 29.1146 16.8385 3.28237C16.8385 0.984711 15.8867 0 13.5562 0L3.28237 0C0.951887 0 0 0.951887 0 3.28237L0 69.7503C0 72.0808 0.951887 73.0327 3.28237 73.0327L13.5562 73.0327C15.8538 73.0327 16.8385 72.1136 16.8385 69.7503L16.8385 43.4914 57.5399 43.4914 57.5399 69.7503C57.5399 72.048 58.4918 73.0327 60.8223 73.0327L71.0304 73.0327C73.3281 73.0327 74.3128 72.0808 74.3128 69.7503L74.3128 3.28237C74.2472 1.05036 73.2953 0 70.9976 0Z" fill="#D50C2D" fill-rule="nonzero" fill-opacity="1" transform="matrix(1.02899 0 0 1 1847.63 697)"/></g></g></g></g></g></svg>