<svg width="4024" height="2255" xmlns="http://www.w3.org/2000/svg" xmlns:xlink="http://www.w3.org/1999/xlink" xml:space="preserve" overflow="hidden"><g transform="translate(-142 -169)"><g><path d="M145.5 295.583C145.5 229.263 199.263 175.5 265.583 175.5L4043.42 175.5C4109.74 175.5 4163.5 229.263 4163.5 295.583L4163.5 2300.42C4163.5 2366.74 4109.74 2420.5 4043.42 2420.5L265.583 2420.5C199.263 2420.5 145.5 2366.74 145.5 2300.42Z" stroke="#565656" stroke-width="4.58333" stroke-linecap="butt" stroke-linejoin="miter" stroke-miterlimit="8" stroke-opacity="0.772549" fill="#212121" fill-rule="evenodd" fill-opacity="0.654902"/><g><g><g><path d="M2414.81 426.481C2412.18 426.481 2409.62 425.464 2407.65 423.524L2347.92 363.796 2347.92 416.156C2347.92 421.7 2343.4 426.25 2337.83 426.25 2332.26 426.25 2327.74 421.977 2327.74 416.156L2327.74 339.474C2327.74 335.386 2330.21 331.714 2333.97 330.143 2337.74 328.573 2342.06 329.45 2344.97 332.337L2404.7 392.066 2404.7 339.474C2404.7 333.931 2409.22 329.381 2414.79 329.381 2420.36 329.381 2424.88 333.908 2424.88 339.474L2424.88 416.156C2424.88 421.7 2420.36 426.25 2414.79 426.25M2461.51 329.242 2458.74 334.416 2437.26 373.404 2434.49 378.323 2437.26 383.243 2458.74 420.96 2461.63 426.134 2517.76 426.134 2520.53 420.452 2536.56 388.163 2543.72 373.519 2527.46 373.519 2486.46 373.635C2481.15 373.566 2476.23 378.393 2476.23 383.728 2476.23 389.064 2481.12 393.891 2486.46 393.822L2511.17 393.706 2505.12 405.947 2473.39 405.947 2457.61 378.185 2473.5 349.429 2507.32 349.429 2515.17 365.597 2535.49 365.597 2522.7 334.924 2519.93 329.242 2461.49 329.242M2563.72 329.127C2558.41 329.196 2553.69 334.07 2553.79 339.336L2553.79 365.666 2573.97 365.666 2573.97 339.336C2574.04 333.977 2569.35 329.058 2563.76 329.127M2596.1 426.481C2590.56 426.481 2586.01 421.954 2586.01 416.387L2586.01 339.636C2586.01 334.093 2590.53 329.543 2596.1 329.543 2601.67 329.543 2606.19 334.07 2606.19 339.636L2606.19 392.228 2665.92 332.499C2668.81 329.612 2673.15 328.757 2676.92 330.305 2680.68 331.852 2683.15 335.548 2683.15 339.636L2683.15 416.618C2683.15 422.161 2678.63 426.712 2673.06 426.712 2667.49 426.712 2662.97 422.185 2662.97 416.618L2662.97 364.003 2603.24 423.732C2601.34 425.626 2598.78 426.688 2596.08 426.688M2757.87 378.046 2789.28 346.773C2793.21 342.847 2793.21 336.449 2789.31 332.499 2785.4 328.55 2778.98 328.573 2775.03 332.476L2743.62 363.819 2712.21 332.476C2708.28 328.55 2701.86 328.55 2697.93 332.499 2694.01 336.449 2694.01 342.847 2697.96 346.773L2729.37 378.046 2697.98 409.227C2694.05 413.154 2694.05 419.552 2697.96 423.501 2699.85 425.418 2702.42 426.504 2704.89 426.504 2707.36 426.504 2710.04 425.534 2712 423.547L2743.34 392.297 2774.69 423.547C2776.58 425.441 2779.14 426.504 2781.8 426.504 2784.46 426.504 2786.97 425.511 2788.73 423.501 2792.66 419.575 2792.66 413.177 2788.71 409.227L2757.41 378.046M2563.26 426.411C2557.94 426.342 2553.23 421.469 2553.32 416.202L2553.32 373.935 2573.51 373.935 2573.51 416.156C2573.58 421.515 2568.89 426.434 2563.3 426.365" fill="#009900" fill-rule="nonzero" fill-opacity="1"/></g></g></g><g><g><g><path d="M615.158 167.473C612.267 167.491 609.909 165.161 609.892 162.27 609.892 162.249 609.892 162.228 609.892 162.207 609.892 159.359 612.223 156.941 615.158 156.941 618.006 156.941 620.424 159.272 620.424 162.207 620.376 165.095 618.046 167.425 615.158 167.473M615.158 157.978C612.825 157.985 610.936 159.874 610.929 162.207 610.936 164.54 612.825 166.429 615.158 166.436 617.491 166.429 619.38 164.54 619.387 162.207 619.38 159.874 617.491 157.985 615.158 157.978M617.834 164.97 616.622 164.97 615.587 162.983 614.206 162.983 614.206 164.97 613.083 164.97 613.083 159.185 615.846 159.185C617.058 159.185 617.834 159.96 617.834 161.085 617.846 161.861 617.358 162.558 616.624 162.81L617.836 164.992ZM615.761 161.948C616.193 161.948 616.624 161.688 616.624 161.085 616.624 160.394 616.28 160.222 615.761 160.222L614.036 160.222 614.036 161.948 615.761 161.948ZM103.419 204.852 66.5817 204.852 66.5817 156.422 80.0493 156.422 80.0493 193.109 103.444 193.109ZM117.318 180.766 117.318 180.597C117.318 166.698 128.539 155.392 143.476 155.392 158.412 155.392 169.461 166.528 169.461 180.427L169.461 180.597C169.461 194.496 158.24 205.802 143.303 205.802 128.367 205.802 117.318 194.665 117.318 180.766M155.819 180.766 155.819 180.597C155.819 173.605 150.812 167.558 143.386 167.558 136.047 167.558 131.128 173.515 131.128 180.507L131.128 180.677C131.128 187.669 136.135 193.715 143.473 193.715 150.896 193.715 155.819 187.758 155.819 180.766M185.943 183.614 185.943 156.422 199.583 156.422 199.583 183.355C199.583 190.347 203.121 193.631 208.477 193.631 213.833 193.631 217.371 190.436 217.371 183.704L217.371 156.422 231.011 156.422 231.011 183.268C231.011 198.892 222.117 205.709 208.307 205.709 194.581 205.709 185.948 198.802 185.948 183.607M251.553 156.415 270.2 156.415C287.465 156.415 297.566 166.342 297.566 180.328L297.566 180.497C297.566 194.481 287.38 204.842 269.943 204.842L251.555 204.842 251.555 156.422ZM270.457 192.93C278.486 192.93 283.834 188.527 283.834 180.672L283.834 180.502C283.834 172.732 278.483 168.244 270.457 168.244L265.018 168.244 265.018 192.848 270.457 192.848ZM330.454 176.443 353.416 176.443 353.416 187.579 330.454 187.579 330.454 204.844 317.076 204.844 317.076 156.422 355.835 156.422 355.835 168.162 330.456 168.162ZM411.341 204.847 374.504 204.847 374.504 156.422 387.882 156.422 387.882 193.109 411.366 193.109ZM446.39 156.076 459.339 156.076 479.971 204.849 465.551 204.849 462.013 196.216 443.366 196.216 439.912 204.849 425.841 204.849 446.39 156.076ZM458.217 185.771 452.866 172.071 447.428 185.798 458.217 185.798ZM497.236 156.422 520.114 156.422C527.538 156.422 532.632 158.322 535.911 161.688 538.759 164.451 540.225 168.159 540.225 172.997L540.225 173.166C540.225 180.59 536.25 185.512 530.298 188.015L541.866 204.936 526.326 204.936 516.571 190.262 510.701 190.262 510.701 204.936 497.234 204.936 497.234 156.422ZM519.533 179.644C524.108 179.644 526.697 177.4 526.697 173.949L526.697 173.779C526.697 169.982 523.934 168.084 519.445 168.084L510.641 168.084 510.641 179.652 519.535 179.652ZM572.882 175.156 596.104 175.156 596.104 185.771 572.882 185.771 572.882 193.454 598.867 193.454 598.867 204.849 559.589 204.849 559.589 156.422 598.523 156.422 598.523 167.818 572.882 167.818ZM37.2061 186.467C35.306 190.696 31.3363 193.718 26.1548 193.718 18.8163 193.718 13.8093 187.586 13.8093 180.679L13.8093 180.51C13.8093 173.518 18.7291 167.561 26.0675 167.561 31.5932 167.561 35.8222 170.929 37.5478 175.59L51.7061 175.59C49.4619 164.022 39.2733 155.474 26.1548 155.474 11.221 155.47 0 166.783 0 180.679L0 180.849C0 194.748 11.0513 205.884 25.9851 205.884 38.762 205.884 48.776 197.595 51.3643 186.544L37.2061 186.457Z" fill="#FFFFFF" fill-rule="nonzero" fill-opacity="1" transform="matrix(1.01221 0 0 1 1365 228.057)"/><path d="M387.693 133.115 582.617 133.115 582.617 79.1598 545.586 57.9248 539.197 55.162 387.695 56.1969Z" fill="#FFFFFF" fill-rule="nonzero" fill-opacity="1" transform="matrix(1.01221 0 0 1 1365 228.057)"/><path d="M515.195 126.036C517.007 119.819 516.317 114.122 513.294 109.895 510.532 106.01 505.871 103.764 500.256 103.507L393.989 102.125C393.332 102.13 392.716 101.806 392.348 101.262 392.004 100.744 391.917 100.051 392.089 99.3624 392.433 98.3276 393.47 97.5496 394.592 97.4624L501.809 96.0809C514.499 95.4751 528.311 85.2041 533.146 72.5969L539.277 56.6016C539.536 55.9109 539.621 55.2202 539.447 54.5295 532.547 23.3071 504.662 0 471.341 0 440.61 0 414.538 19.856 405.215 47.3922 398.893 42.6851 391.046 40.4993 383.202 41.2606 368.442 42.7293 356.616 54.5537 355.147 69.3155 354.803 73.1131 355.06 76.8284 355.922 80.2795 331.837 80.9702 312.59 100.652 312.59 124.909 312.59 127.09 312.759 129.223 313.021 131.38 313.191 132.415 314.056 133.193 315.093 133.193L511.225 133.193C512.347 133.193 513.406 132.417 513.728 131.292L515.197 126.026Z" fill="#F38020" fill-rule="nonzero" fill-opacity="1" transform="matrix(1.01221 0 0 1 1365 228.057)"/><path d="M549.034 57.7528 546.102 57.84C545.411 57.84 544.808 58.3587 544.551 59.0518L540.431 73.4718C538.618 79.6882 539.309 85.3859 542.331 89.6125 545.094 93.4975 549.754 95.7441 555.369 96.001L577.986 97.3824C578.643 97.3774 579.258 97.7012 579.627 98.2452 579.971 98.7638 580.058 99.5393 579.886 100.145 579.542 101.18 578.504 101.958 577.382 102.045L553.816 103.427C541.039 104.033 527.315 114.303 522.48 126.911L520.754 131.314C520.41 132.177 521.013 133.04 521.966 133.04L602.936 133.04C603.886 133.04 604.749 132.434 605.008 131.489 606.39 126.482 607.189 121.213 607.189 115.777 607.189 83.8348 581.119 57.7649 549.092 57.7649" fill="#FAAE40" fill-rule="nonzero" fill-opacity="1" transform="matrix(1.01221 0 0 1 1365 228.057)"/></g></g></g></g></g></svg>