<svg width="436" height="437" xmlns="http://www.w3.org/2000/svg" xmlns:xlink="http://www.w3.org/1999/xlink" xml:space="preserve" overflow="hidden"><defs><clipPath id="clip0"><rect x="244" y="113" width="436" height="437"/></clipPath><clipPath id="clip1"><rect x="244" y="113" width="436" height="437"/></clipPath><clipPath id="clip2"><rect x="244" y="114" width="436" height="436"/></clipPath><clipPath id="clip3"><rect x="244" y="114" width="437" height="437"/></clipPath><clipPath id="clip4"><rect x="244" y="114" width="437" height="437"/></clipPath></defs><g clip-path="url(#clip0)" transform="translate(-244 -113)"><g clip-path="url(#clip1)"><g clip-path="url(#clip2)"><g clip-path="url(#clip3)"><g clip-path="url(#clip4)"><path d="M375.763 164.049C363.482 164.049 353.4 174.132 353.4 186.43L353.4 204.161 351.892 204.161C344.726 204.211 338.926 210.002 338.866 217.168L338.866 429.391 256.898 429.391 256.898 419.036 321.281 419.036C324.829 419.027 327.702 416.153 327.712 412.605L327.712 389.37C327.712 385.815 324.836 382.932 321.281 382.921L256.88 382.921 256.88 372.657 321.263 372.657C324.818 372.646 327.694 369.763 327.694 366.208L327.694 342.991C327.694 339.436 324.818 336.553 321.263 336.542L256.88 336.542 256.88 326.205 321.263 326.205C324.818 326.194 327.694 323.311 327.694 319.756L327.694 296.575C327.684 293.027 324.81 290.154 321.263 290.144L256.88 290.144 256.88 225.053C256.88 221.491 253.993 218.604 250.431 218.604 246.876 218.614 244 221.498 244 225.053L244 296.575C244 300.13 246.876 303.013 250.431 303.024L314.814 303.024 314.814 313.306 250.431 313.306C246.876 313.317 244 316.2 244 319.756L244 342.991C244.01 346.539 246.883 349.413 250.431 349.422L314.814 349.422 314.814 359.777 250.431 359.777C246.883 359.786 244.01 362.66 244 366.208L244 389.37C244 392.926 246.876 395.809 250.431 395.819L314.814 395.819 314.814 406.174 250.431 406.174C246.883 406.184 244.01 409.058 244 412.605L244 435.822C244 439.378 246.876 442.261 250.431 442.272L338.866 442.272 338.866 443.834C338.866 450.901 344.734 456.841 351.892 456.841L353.4 456.841 353.4 477.551C353.4 489.85 363.482 499.951 375.763 499.951 388.062 499.951 398.162 489.85 398.162 477.569L398.162 456.859 406.828 456.859 406.828 477.515C406.828 489.796 416.928 499.896 429.209 499.896 441.508 499.896 451.59 489.796 451.59 477.515L451.59 456.841 460.329 456.841 460.329 477.515C460.329 489.796 470.429 499.896 482.71 499.896 494.991 499.896 505.109 489.796 505.109 477.515L505.109 456.841 513.829 456.841 513.829 477.515C513.829 489.796 523.93 499.896 536.211 499.896 548.51 499.896 558.592 489.796 558.592 477.515L558.592 456.841 567.33 456.841 567.33 477.515C567.33 489.796 577.431 499.896 589.712 499.896 601.992 499.896 612.111 489.796 612.111 477.515L612.111 456.841 620.777 456.841 620.777 477.515C620.777 489.796 630.859 499.896 643.14 499.896 655.439 499.896 665.539 489.796 665.539 477.515L665.539 456.841 666.974 456.841C674.06 456.841 680 450.973 680 443.834L680 217.168C679.931 210.028 674.17 204.25 667.029 204.161L665.539 204.161 665.539 186.376C665.539 174.095 655.439 164.013 643.158 164.031L643.14 164.031C630.859 164.049 620.777 174.15 620.777 186.43L620.777 204.161 612.111 204.161 612.111 186.358C612.111 174.095 601.992 164.013 589.712 164.049L589.693 164.049C577.413 164.049 567.349 174.15 567.349 186.43L567.349 204.161 558.592 204.161 558.592 186.43C558.592 174.132 548.51 164.049 536.211 164.049 523.93 164.049 513.829 174.132 513.829 186.43L513.829 204.161 505.109 204.161 505.109 186.43C505.109 174.132 494.991 164.049 482.71 164.049 470.429 164.049 460.329 174.132 460.329 186.43L460.329 204.161 451.609 204.161 451.609 186.43C451.609 174.132 441.508 164.049 429.209 164.049 416.928 164.049 406.828 174.132 406.828 186.43L406.828 204.161 398.162 204.161 398.162 186.43C398.162 174.132 388.062 164.049 375.763 164.049ZM375.763 177.038C380.879 176.968 385.084 181.058 385.155 186.174 385.156 186.26 385.156 186.345 385.155 186.43L385.155 204.161 366.389 204.161 366.389 186.43C366.318 181.314 370.409 177.109 375.525 177.039 375.604 177.037 375.684 177.037 375.763 177.038ZM429.209 177.038C434.325 176.968 438.53 181.058 438.601 186.174 438.603 186.26 438.603 186.345 438.601 186.43L438.601 204.161 419.835 204.161 419.835 186.43C419.764 181.314 423.855 177.109 428.971 177.039 429.051 177.037 429.129 177.037 429.209 177.038ZM482.71 177.038C487.826 176.978 492.024 181.076 492.084 186.193 492.086 186.272 492.086 186.351 492.084 186.43L492.084 204.161 473.336 204.161 473.336 186.43C473.265 181.314 477.356 177.109 482.472 177.039 482.552 177.037 482.63 177.037 482.71 177.038ZM536.211 177.038C541.327 176.968 545.532 181.058 545.603 186.174 545.605 186.26 545.605 186.345 545.603 186.43L545.603 204.161 526.837 204.161 526.837 186.43C526.766 181.314 530.857 177.109 535.973 177.039 536.053 177.037 536.131 177.037 536.211 177.038ZM589.712 177.038 589.73 177.038C594.817 176.958 599.004 181.016 599.086 186.102 599.086 186.187 599.087 186.272 599.086 186.358L599.086 204.161 580.338 204.161 580.338 186.43C580.267 181.314 584.358 177.109 589.474 177.039 589.554 177.037 589.632 177.037 589.712 177.038ZM643.158 177.057 643.176 177.057C648.263 176.976 652.45 181.034 652.532 186.12 652.532 186.205 652.534 186.291 652.532 186.376L652.532 204.161 633.784 204.161 633.784 186.43C633.724 181.314 637.822 177.117 642.938 177.057 643.013 177.056 643.085 177.056 643.158 177.057ZM353.327 218.604 665.539 218.604 665.539 442.399 353.327 442.399ZM510.105 269.052C508.512 269.025 506.977 269.648 505.854 270.778L437.257 339.448C434.97 341.73 434.964 345.434 437.246 347.721 438.345 348.824 439.84 349.444 441.399 349.44L452.662 349.44 452.662 389.861C452.662 393.091 455.282 395.71 458.512 395.71 458.517 395.71 458.525 395.71 458.53 395.71L561.535 395.71C564.765 395.71 567.385 393.091 567.385 389.861L567.385 349.44 578.666 349.44C581.896 349.445 584.521 346.833 584.527 343.601 584.531 342.044 583.911 340.549 582.808 339.448L567.258 323.843 567.258 295.994C567.269 292.763 564.656 290.136 561.426 290.126 561.421 290.126 561.413 290.126 561.408 290.126L550.672 290.126C547.441 290.116 544.815 292.727 544.804 295.957 544.804 295.97 544.804 295.981 544.804 295.994L544.804 301.444 514.138 270.778C513.074 269.706 511.635 269.088 510.124 269.052ZM366.407 456.841 385.155 456.841 385.155 477.551C385.226 482.667 381.135 486.873 376.019 486.943 375.934 486.945 375.848 486.945 375.763 486.943 370.646 487.003 366.449 482.905 366.389 477.789 366.388 477.715 366.388 477.642 366.389 477.569ZM419.817 456.841 438.601 456.841 438.601 477.515C438.661 482.631 434.563 486.829 429.447 486.889 429.367 486.891 429.289 486.891 429.209 486.889 424.093 486.949 419.896 482.851 419.835 477.735 419.834 477.66 419.834 477.588 419.835 477.515ZM473.336 456.841 492.084 456.841 492.084 477.515C492.144 482.631 488.046 486.829 482.93 486.889 482.855 486.889 482.783 486.889 482.71 486.889 477.594 486.949 473.396 482.851 473.336 477.735 473.336 477.66 473.336 477.588 473.336 477.515ZM526.837 456.841 545.603 456.841 545.603 477.515C545.663 482.631 541.565 486.829 536.449 486.889 536.369 486.891 536.291 486.891 536.211 486.889 531.095 486.949 526.897 482.851 526.837 477.735 526.837 477.66 526.837 477.588 526.837 477.515ZM580.338 456.841 599.086 456.841 599.086 477.515C599.146 482.631 595.047 486.829 589.931 486.889 589.857 486.889 589.784 486.889 589.712 486.889 584.596 486.949 580.398 482.851 580.338 477.735 580.338 477.66 580.338 477.588 580.338 477.515ZM633.766 456.841 652.532 456.841 652.532 477.515C652.592 482.631 648.494 486.829 643.378 486.889 643.298 486.891 643.22 486.891 643.14 486.889 638.024 486.949 633.826 482.851 633.766 477.735 633.766 477.66 633.766 477.588 633.766 477.515Z" fill="#FFFFFF" fill-rule="nonzero" fill-opacity="1"/></g></g></g></g></g></svg>