<svg width="631" height="315" viewBox="0 0 631 315" fill="none" xmlns="http://www.w3.org/2000/svg">
<path d="M210.333 219.203V98.2169H216.906V117.248C217.682 116.404 218.399 115.508 219.052 114.565C224.541 103.194 236.12 96.0172 248.761 96.1589C263.747 95.7127 275.926 101.251 283.082 114.565C287.636 122.837 290.143 132.076 290.391 141.511C290.64 150.946 288.624 160.304 284.513 168.803C277.845 183.724 261.376 191.142 243.745 188.417C238.258 187.951 232.975 186.121 228.379 183.093C223.782 180.065 220.019 175.935 217.432 171.082V219.198L210.333 219.203ZM216.906 141.015L218.379 155.221C220.976 171.391 230.552 180.946 245.585 182.742C252.645 183.901 259.889 182.579 266.082 179.003C272.276 175.426 277.035 169.816 279.549 163.128C285.396 149.215 284.965 133.465 278.392 119.878C275.709 113.883 271.144 108.923 265.388 105.747C259.631 102.572 252.996 101.353 246.484 102.275C240.372 102.719 234.55 105.053 229.827 108.951C225.104 112.85 221.715 118.121 220.13 124.031C218.73 129.624 217.654 135.293 216.906 141.01V141.015ZM424.6 157.458C423.603 165.976 419.541 173.844 413.17 179.596C406.799 185.349 398.552 188.595 389.963 188.732C362.399 190.118 349.464 171.843 347.408 150.754C345.978 139.301 347.84 127.679 352.776 117.243C356.212 110.084 361.841 104.203 368.849 100.452C375.856 96.7008 383.878 95.2744 391.751 96.3794C399.236 97.0146 406.332 99.984 412.033 104.867C417.735 109.751 421.754 116.301 423.522 123.59C424.922 130.231 425.953 136.943 426.609 143.698H354.217C352.876 162.818 363.167 178.19 377.753 181.897C395.921 186.359 411.449 178.5 417.086 161.254C418.337 156.828 420.619 156.203 424.647 157.458H424.6ZM354.164 137.576H418.916C418.511 117.206 405.807 102.401 388.575 102.233C369.119 101.918 355.011 116.13 354.164 137.576ZM437.982 157.904H444.329C444.562 162.573 446.081 167.086 448.717 170.949C451.354 174.811 455.007 177.873 459.273 179.797C464.631 182.204 470.463 183.374 476.336 183.219C482.209 183.065 487.972 181.59 493.195 178.904C496.042 177.624 498.427 175.502 500.028 172.826C501.628 170.149 502.367 167.046 502.145 163.936C502.308 160.937 501.488 157.967 499.809 155.475C498.129 152.984 495.682 151.107 492.837 150.129C485.854 147.535 478.429 146.107 471.315 143.829C463.912 141.725 456.673 139.082 449.656 135.922C438.193 130.336 437.483 108.58 450.46 101.692C457.105 97.9487 464.584 95.9259 472.213 95.8085C479.842 95.6911 487.379 97.4829 494.136 101.02C502.518 105.64 507.15 114.97 505.773 124.435H500.33C500.33 124.173 499.836 123.942 499.836 123.674C499.163 106.349 484.576 100.931 468.917 102.454C464.185 102.979 459.699 104.407 455.493 106.517C452.964 107.67 450.857 109.579 449.462 111.981C448.068 114.382 447.456 117.156 447.71 119.92C447.716 122.686 448.579 125.383 450.181 127.639C451.784 129.895 454.047 131.601 456.66 132.52C463.496 135.025 470.752 136.631 477.825 138.595L494.914 143.057C498.799 144.33 502.204 146.75 504.681 149.997C507.158 153.245 508.589 157.166 508.786 161.243C510.153 170.404 505.473 179.408 497.196 183.582C482.252 192.024 457.638 189.793 446.674 179.119C441.064 173.486 437.935 165.837 437.998 157.899L437.982 157.904ZM589.317 124.441H583.365C583.365 123.637 583.049 122.866 582.96 122.251C582.865 117.797 581.239 113.51 578.354 110.11C575.47 106.71 571.502 104.403 567.116 103.577C558.844 101.208 550.019 101.633 542.013 104.785C538.848 105.689 536.06 107.593 534.068 110.21C532.075 112.828 530.985 116.019 530.96 119.306C530.847 122.534 531.854 125.702 533.81 128.275C535.767 130.847 538.553 132.666 541.698 133.423L568.904 140.395C571.847 141.1 574.744 141.98 577.581 143.031C586.257 146.181 592.146 154.224 592.409 163.417C592.539 167.916 591.303 172.35 588.863 176.135C586.423 179.921 582.893 182.881 578.737 184.627C572.423 187.491 565.579 189.006 558.643 189.075C551.708 189.145 544.835 187.767 538.464 185.031C533.224 182.775 528.803 178.971 525.795 174.131C522.786 169.29 521.335 163.645 521.637 157.957H527.453C529.64 168.483 536.881 177.25 546.814 181.398C556.747 185.545 568.089 184.527 577.123 178.689C579.834 177.282 582.083 175.128 583.606 172.484C585.129 169.84 585.861 166.815 585.715 163.768C585.85 160.767 585.001 157.804 583.297 155.329C581.592 152.853 579.126 151 576.271 150.05C569.288 147.457 561.863 146.076 554.749 143.75C547.304 141.678 540.021 139.065 532.958 135.933C521.769 130.436 520.875 108.859 533.631 101.976C540.359 98.0751 547.983 95.9794 555.762 95.893C563.541 95.8065 571.21 97.7321 578.022 101.482C581.919 103.804 585.055 107.207 587.049 111.277C589.044 115.347 589.81 119.907 589.254 124.404L589.317 124.441ZM199.517 186.548C197.174 187.433 194.588 187.43 192.246 186.542C189.905 185.653 187.97 183.939 186.808 181.723L163.671 149.777L160.316 145.315L133.467 181.771C132.373 183.891 130.543 185.541 128.319 186.412C126.095 187.284 123.63 187.317 121.383 186.506L155.973 140.175L123.792 98.3114C128.566 96.5894 133.888 98.4584 136.543 102.774L160.521 135.114L184.641 102.9C185.744 100.816 187.575 99.2095 189.786 98.3858C191.998 97.562 194.435 97.5785 196.635 98.4322L184.147 114.975L167.231 136.957C166.761 137.375 166.386 137.888 166.128 138.462C165.871 139.035 165.738 139.657 165.738 140.285C165.738 140.914 165.871 141.535 166.128 142.109C166.386 142.682 166.761 143.195 167.231 143.614L199.449 186.548H199.517ZM346.382 97.8652V104.165C341.856 103.869 337.318 104.523 333.061 106.086C328.804 107.649 324.923 110.086 321.667 113.239C318.412 116.392 315.855 120.192 314.161 124.393C312.468 128.594 311.675 133.103 311.835 137.629C311.835 152.343 311.835 167.057 311.835 181.771V186.774H305.436V98.2589H311.746V116.398C319.486 103.168 331.433 98.2589 346.424 97.9019L346.382 97.8652ZM38.5594 139.597L41.3778 125.701C49.1181 98.2222 80.6681 86.7877 102.374 103.808C115.084 113.773 118.255 127.89 117.634 143.797H46.0315C44.8746 172.21 65.4084 189.367 91.6738 180.61C100.329 177.46 106.844 170.278 108.989 161.353C110.378 156.891 112.67 156.124 116.866 157.416C116.167 162.856 114.241 168.066 111.233 172.655C108.226 177.245 104.215 181.094 99.5034 183.913C91.7188 188.163 82.7873 189.847 73.9861 188.724C65.1849 187.601 56.9648 183.729 50.501 177.66C44.1069 170.483 40.2473 161.411 39.4953 151.83C39.4953 150.255 38.9695 148.785 38.6014 147.367C38.5664 144.718 38.5488 142.128 38.5488 139.597H38.5594ZM46.1208 137.676H110.872C110.467 117.08 97.4474 102.469 80.0844 102.333C60.7548 102.07 46.9254 116.361 46.0735 137.587L46.1208 137.676Z" fill="white"/>
</svg>
