<svg version="1.1" id="prefix__Layer_1" xmlns="http://www.w3.org/2000/svg" x="0" y="0" viewBox="0 0 408.77 117.64" xml:space="preserve"><style>.prefix__st2{fill:#fff}</style><path fill="none" d="M356.885 66.115h12.217v9.973h-12.217z"/><path class="prefix__st2" d="M358.929 70.674h-.7v-3.683h-1.26v-.601h3.22v.601h-1.26v3.683zM362.997 70.674l-1.242-3.577h-.023c.033.531.05 1.029.05 1.494v2.083h-.636v-4.283h.987l1.189 3.407h.018l1.225-3.407h.99v4.283h-.674v-2.118c0-.213.005-.49.016-.832s.02-.549.028-.621h-.023l-1.286 3.571h-.619z"/><g><path d="M50.328 97.669c-26.27 0-47.643-21.371-47.643-47.642S24.058 2.385 50.328 2.385s47.643 21.373 47.643 47.643-21.373 47.641-47.643 47.641z" fill="#85ea2d"/><path class="prefix__st2" d="M50.328 4.769c24.996 0 45.258 20.262 45.258 45.258 0 24.995-20.262 45.258-45.258 45.258-24.995 0-45.258-20.263-45.258-45.258S25.333 4.769 50.328 4.769m0-4.769C22.743 0 .301 22.442.301 50.027s22.442 50.027 50.027 50.027 50.028-22.442 50.028-50.027S77.913 0 50.328 0z"/><path class="prefix__st2" d="M31.802 33.854c-.154 1.712.057 3.482-.057 5.213-.135 1.732-.347 3.444-.693 5.156-.481 2.443-2.001 4.29-4.097 5.829 4.079 2.655 4.54 6.771 4.809 10.946.135 2.251.077 4.521.308 6.752.173 1.731.846 2.174 2.636 2.231.731.019 1.48 0 2.328 0v5.348c-5.29.904-9.657-.596-10.735-5.078a30.76 30.76 0 01-.654-5.002c-.116-1.789.076-3.578-.058-5.367-.385-4.906-1.02-6.56-5.713-6.791v-6.098a9.268 9.268 0 011.019-.173c2.578-.135 3.674-.924 4.232-3.463.27-1.423.424-2.866.481-4.328.193-2.789.116-5.636.596-8.406.673-3.982 3.136-5.906 7.234-6.137 1.154-.058 2.328 0 3.655 0v5.464c-.558.039-1.039.115-1.539.115-3.328-.116-3.502 1.019-3.752 3.789zm6.406 12.658h-.077a3.519 3.519 0 00-3.675 3.328c-.096 1.943 1.404 3.598 3.328 3.693h.231c1.905.116 3.539-1.347 3.655-3.251v-.192c.039-1.943-1.519-3.539-3.462-3.578zm12.062 0c-1.866-.058-3.425 1.404-3.482 3.251 0 .116 0 .212.02.327 0 2.097 1.423 3.444 3.578 3.444 2.116 0 3.444-1.385 3.444-3.559-.02-2.097-1.425-3.482-3.56-3.463zm12.351 0a3.593 3.593 0 00-3.655 3.482 3.53 3.53 0 003.539 3.539h.039c1.77.308 3.559-1.404 3.675-3.462.095-1.905-1.636-3.559-3.598-3.559zm16.948.288c-2.232-.096-3.348-.846-3.905-2.963a21.447 21.447 0 01-.635-4.136c-.154-2.578-.135-5.175-.308-7.753-.404-6.117-4.828-8.252-11.254-7.195v5.31c1.019 0 1.808 0 2.597.019 1.366.019 2.405.539 2.539 2.059.135 1.385.135 2.789.27 4.194.27 2.79.423 5.617.904 8.368.424 2.27 1.982 3.963 3.924 5.348-3.404 2.289-4.405 5.559-4.578 9.234-.096 2.52-.154 5.059-.288 7.599-.116 2.308-.923 3.058-3.251 3.116-.654.019-1.289.077-2.02.116v5.444c1.366 0 2.616.077 3.866 0 3.886-.231 6.233-2.116 7.003-5.887.327-2.078.519-4.174.577-6.271.134-1.924.116-3.867.308-5.771.288-2.982 1.654-4.213 4.636-4.405.289-.039.558-.096.828-.192v-6.099c-.501-.058-.848-.115-1.213-.135z"/></g><g><path class="prefix__st2" d="M152.273 58.122c0 4.029-1.461 7.169-4.383 9.424-2.922 2.254-6.888 3.381-11.897 3.381-5.427 0-9.602-.699-12.523-2.098v-5.135c1.878.794 3.924 1.42 6.137 1.879 2.212.459 4.404.688 6.575.688 3.548 0 6.22-.673 8.015-2.02 1.795-1.346 2.692-3.219 2.692-5.62 0-1.586-.318-2.885-.955-3.898-.637-1.012-1.702-1.946-3.194-2.802-1.493-.856-3.762-1.826-6.81-2.912-4.258-1.523-7.3-3.329-9.126-5.417-1.827-2.087-2.74-4.811-2.74-8.171 0-3.527 1.325-6.335 3.976-8.422s6.157-3.131 10.52-3.131c4.55 0 8.735.835 12.555 2.505l-1.66 4.634c-3.778-1.586-7.452-2.379-11.021-2.379-2.818 0-5.021.606-6.606 1.816-1.586 1.211-2.379 2.892-2.379 5.041 0 1.586.292 2.886.876 3.897.584 1.013 1.57 1.941 2.959 2.787 1.388.845 3.511 1.779 6.371 2.802 4.801 1.712 8.104 3.549 9.91 5.511 1.805 1.963 2.708 4.509 2.708 7.64zM185.288 70.301l-6.293-20.132c-.396-1.231-1.138-4.028-2.223-8.391h-.25c-.835 3.653-1.565 6.471-2.192 8.453L167.849 70.3h-6.011l-9.361-34.314h5.448a70241.81 70241.81 0 005.056 19.693c1.159 4.508 1.821 7.545 1.988 9.11h.25c.229-1.189.6-2.729 1.111-4.618.511-1.889.955-3.386 1.331-4.493l6.293-19.693h5.635l6.137 19.693c1.169 3.59 1.962 6.606 2.379 9.048h.25c.083-.751.308-1.91.673-3.475.365-1.565 2.541-9.988 6.528-25.266h5.385l-9.487 34.314h-6.166zM225.116 70.301l-1.033-4.884h-.25c-1.712 2.15-3.418 3.606-5.119 4.368-1.702.762-3.825 1.143-6.372 1.143-3.402 0-6.069-.876-7.999-2.63-1.931-1.753-2.896-4.247-2.896-7.482 0-6.93 5.542-10.562 16.625-10.896l5.823-.188v-2.129c0-2.692-.579-4.681-1.738-5.964-1.158-1.284-3.011-1.926-5.557-1.926-2.86 0-6.095.877-9.706 2.63l-1.597-3.977c1.691-.918 3.543-1.638 5.558-2.16a24.1 24.1 0 016.058-.782c4.091 0 7.123.908 9.095 2.724 1.973 1.816 2.959 4.728 2.959 8.735v23.419h-3.851zm-11.741-3.663c3.235 0 5.777-.887 7.624-2.661 1.847-1.774 2.771-4.258 2.771-7.452v-3.1l-5.197.219c-4.133.146-7.113.788-8.939 1.925-1.827 1.138-2.74 2.907-2.74 5.307 0 1.878.569 3.309 1.707 4.289 1.136.983 2.728 1.473 4.774 1.473zM264.598 35.987v3.287l-6.356.751c.584.731 1.106 1.686 1.565 2.865.459 1.18.689 2.51.689 3.992 0 3.36-1.148 6.042-3.444 8.046-2.296 2.004-5.448 3.006-9.456 3.006-1.023 0-1.983-.083-2.88-.25-2.213 1.169-3.319 2.641-3.319 4.414 0 .939.386 1.634 1.159 2.082.772.449 2.098.673 3.976.673h6.074c3.715 0 6.57.783 8.563 2.348s2.99 3.84 2.99 6.825c0 3.799-1.524 6.695-4.571 8.688s-7.494 2.99-13.337 2.99c-4.488 0-7.948-.835-10.379-2.505-2.432-1.67-3.647-4.028-3.647-7.076 0-2.087.667-3.893 2.003-5.416s3.214-2.557 5.636-3.1c-.876-.396-1.612-1.013-2.207-1.848-.595-.834-.893-1.805-.893-2.912 0-1.252.334-2.348 1.002-3.288.668-.939 1.722-1.847 3.162-2.724-1.774-.73-3.22-1.973-4.336-3.726-1.117-1.753-1.675-3.757-1.675-6.012 0-3.757 1.127-6.653 3.381-8.688 2.254-2.035 5.448-3.053 9.581-3.053 1.795 0 3.413.209 4.853.626h11.866zm-27.364 40.075c0 1.857.783 3.267 2.348 4.228 1.565.959 3.809 1.439 6.731 1.439 4.362 0 7.592-.652 9.69-1.956 2.098-1.305 3.146-3.074 3.146-5.308 0-1.858-.575-3.146-1.722-3.867-1.148-.72-3.309-1.08-6.481-1.08h-6.23c-2.359 0-4.195.563-5.51 1.691-1.315 1.127-1.972 2.745-1.972 4.853zm2.817-29.086c0 2.4.678 4.216 2.035 5.448 1.356 1.232 3.245 1.847 5.667 1.847 5.072 0 7.608-2.463 7.608-7.389 0-5.155-2.567-7.733-7.702-7.733-2.442 0-4.32.657-5.635 1.973-1.315 1.314-1.973 3.266-1.973 5.854zM299.137 35.987v3.287l-6.356.751c.584.731 1.106 1.686 1.565 2.865.459 1.18.689 2.51.689 3.992 0 3.36-1.148 6.042-3.444 8.046-2.296 2.004-5.448 3.006-9.456 3.006-1.023 0-1.983-.083-2.88-.25-2.213 1.169-3.319 2.641-3.319 4.414 0 .939.386 1.634 1.159 2.082.772.449 2.098.673 3.976.673h6.074c3.715 0 6.57.783 8.563 2.348s2.99 3.84 2.99 6.825c0 3.799-1.524 6.695-4.571 8.688s-7.494 2.99-13.337 2.99c-4.488 0-7.948-.835-10.379-2.505-2.432-1.67-3.647-4.028-3.647-7.076 0-2.087.667-3.893 2.003-5.416s3.214-2.557 5.636-3.1c-.876-.396-1.612-1.013-2.207-1.848-.595-.834-.893-1.805-.893-2.912 0-1.252.334-2.348 1.002-3.288.668-.939 1.722-1.847 3.162-2.724-1.774-.73-3.22-1.973-4.336-3.726-1.117-1.753-1.675-3.757-1.675-6.012 0-3.757 1.127-6.653 3.381-8.688 2.254-2.035 5.448-3.053 9.581-3.053 1.795 0 3.413.209 4.853.626h11.866zm-27.364 40.075c0 1.857.783 3.267 2.348 4.228 1.565.959 3.809 1.439 6.731 1.439 4.362 0 7.592-.652 9.69-1.956 2.098-1.305 3.146-3.074 3.146-5.308 0-1.858-.575-3.146-1.722-3.867-1.148-.72-3.309-1.08-6.481-1.08h-6.23c-2.359 0-4.195.563-5.51 1.691-1.315 1.127-1.972 2.745-1.972 4.853zm2.817-29.086c0 2.4.678 4.216 2.035 5.448 1.356 1.232 3.245 1.847 5.667 1.847 5.072 0 7.608-2.463 7.608-7.389 0-5.155-2.567-7.733-7.702-7.733-2.442 0-4.32.657-5.635 1.973-1.315 1.314-1.973 3.266-1.973 5.854zM316.778 70.927c-5.072 0-9.075-1.544-12.007-4.634-2.933-3.089-4.399-7.378-4.399-12.868 0-5.531 1.362-9.925 4.086-13.181 2.724-3.256 6.381-4.884 10.974-4.884 4.3 0 7.702 1.415 10.207 4.243 2.505 2.828 3.757 6.559 3.757 11.192v3.288h-23.638c.104 4.028 1.122 7.086 3.052 9.173 1.931 2.087 4.649 3.131 8.156 3.131 3.694 0 7.347-.772 10.958-2.317v4.634c-1.837.793-3.575 1.362-5.213 1.706-1.638.345-3.616.517-5.933.517zm-1.408-31.215c-2.755 0-4.952.897-6.591 2.692-1.639 1.795-2.604 4.279-2.896 7.452h17.94c0-3.277-.73-5.787-2.191-7.53-1.462-1.742-3.549-2.614-6.262-2.614zM350.898 35.36c1.523 0 2.891.125 4.102.375l-.72 4.822c-1.42-.313-2.672-.469-3.757-.469-2.776 0-5.15 1.127-7.123 3.381-1.973 2.254-2.959 5.062-2.959 8.422v18.41h-5.197V35.987h4.29l.595 6.355h.25c1.273-2.233 2.807-3.955 4.603-5.166 1.793-1.21 3.765-1.816 5.916-1.816z"/><g><path class="prefix__st2" d="M255.857 96.638s-3.43-.391-4.85-.391c-2.058 0-3.111.735-3.111 2.18 0 1.568.882 1.935 3.748 2.719 3.528.98 4.801 1.911 4.801 4.777 0 3.675-2.302 5.267-5.609 5.267-2.18 0-5.487-.662-5.487-.662l.269-2.18s3.307.441 5.046.441c2.082 0 3.037-.931 3.037-2.695 0-1.421-.759-1.911-3.332-2.523-3.625-.93-5.193-2.033-5.193-4.948 0-3.381 2.229-4.777 5.585-4.777 2.131 0 5.316.587 5.316.587l-.22 2.205zM262.967 94.14h4.728l3.748 13.105 3.748-13.105h4.752v16.78H277.2V96.418h-.144l-4.191 13.816h-2.842l-4.192-13.816h-.145v14.502h-2.719V94.14zM322.057 94.14h12.248v2.425h-4.728v14.355h-2.743V96.565h-4.777V94.14zM346.137 94.14c3.332 0 5.12 1.249 5.12 4.36 0 2.033-.637 3.037-1.984 3.772 1.445.563 2.4 1.592 2.4 3.895 0 3.43-2.082 4.753-5.34 4.753h-6.566V94.14h6.37zm-3.65 2.352v4.802h3.601c1.666 0 2.4-.833 2.4-2.475 0-1.616-.833-2.327-2.498-2.327h-3.503zm0 7.104v4.973h3.7c1.69 0 2.694-.539 2.694-2.548 0-1.911-1.421-2.425-2.743-2.425h-3.651zM358.414 94.14h10.583v2.376h-7.864v4.752h6.394v2.328h-6.394v4.924h7.864v2.4h-10.583V94.14zM378.747 94.14h5.413l4.164 16.78h-2.743l-1.239-4.924h-5.777l-1.239 4.924h-2.719l4.14-16.78zm.361 9.456h4.707l-1.737-7.178h-1.225l-1.745 7.178zM397.096 105.947v4.973h-2.719V94.14h6.37c3.699 0 5.683 2.119 5.683 5.842 0 2.376-.955 4.52-2.743 5.352l2.768 5.585h-2.989l-2.425-4.973h-3.945zm3.651-9.455h-3.65v7.105h3.7c2.058 0 2.841-1.85 2.841-3.589-.001-1.912-.931-3.516-2.891-3.516zM290.013 94.14h5.413l4.164 16.78h-2.743l-1.239-4.924h-5.777l-1.239 4.924h-2.719l4.14-16.78zm.361 9.456h4.707l-1.737-7.178h-1.225l-1.745 7.178zM308.362 105.947v4.973h-2.719V94.14h6.369c3.699 0 5.683 2.119 5.683 5.842 0 2.376-.955 4.52-2.743 5.352l2.768 5.585h-2.989l-2.425-4.973h-3.944zm3.65-9.455h-3.65v7.105h3.699c2.058 0 2.841-1.85 2.841-3.589 0-1.912-.93-3.516-2.89-3.516z"/><g><path class="prefix__st2" d="M130.606 107.643c0 1.085-.393 1.931-1.18 2.537s-1.854.91-3.202.91c-1.461 0-2.584-.188-3.371-.564v-1.383a8.793 8.793 0 001.652.506 8.672 8.672 0 001.77.186c.955 0 1.674-.181 2.158-.544.483-.362.725-.866.725-1.512 0-.428-.086-.777-.257-1.05s-.458-.523-.859-.754-1.013-.491-1.833-.784c-1.146-.41-1.965-.896-2.457-1.458-.491-.562-.737-1.294-.737-2.199 0-.949.357-1.705 1.07-2.267s1.657-.843 2.832-.843c1.225 0 2.351.225 3.379.674l-.447 1.247c-1.017-.427-2.005-.64-2.966-.64-.758 0-1.351.163-1.778.488-.427.326-.64.778-.64 1.356 0 .428.079.777.236 1.05s.423.522.796.75.945.479 1.715.754c1.292.461 2.181.955 2.667 1.483.484.53.727 1.215.727 2.057zM134.447 101.686v5.991c0 .753.171 1.314.514 1.686.342.371.879.556 1.609.556.966 0 1.673-.264 2.12-.792.446-.527.67-1.391.67-2.587v-4.854h1.399v9.235h-1.155l-.202-1.238h-.076a2.796 2.796 0 01-1.192 1.045c-.509.241-1.089.362-1.74.362-1.124 0-1.965-.267-2.524-.801-.559-.533-.839-1.388-.839-2.562v-6.042h1.416zM148.206 111.09c-.601 0-1.15-.111-1.647-.333a3.102 3.102 0 01-1.251-1.023h-.101c.067.539.101 1.05.101 1.533v3.801h-1.398v-13.382h1.137l.194 1.264h.067c.36-.506.778-.871 1.256-1.096s1.025-.337 1.643-.337c1.225 0 2.17.419 2.836 1.256s.999 2.011.999 3.522c0 1.517-.338 2.695-1.016 3.535-.678.84-1.618 1.26-2.82 1.26zm-.202-8.384c-.944 0-1.626.261-2.048.783s-.638 1.354-.649 2.494v.312c0 1.298.216 2.226.649 2.785.433.559 1.126.838 2.082.838.798 0 1.423-.322 1.875-.969.452-.646.679-1.536.679-2.671 0-1.152-.227-2.035-.679-2.65s-1.089-.922-1.909-.922zM159.04 111.09c-.601 0-1.15-.111-1.647-.333a3.102 3.102 0 01-1.251-1.023h-.101c.067.539.101 1.05.101 1.533v3.801h-1.398v-13.382h1.137l.194 1.264h.067c.36-.506.778-.871 1.256-1.096s1.025-.337 1.643-.337c1.225 0 2.17.419 2.836 1.256s.999 2.011.999 3.522c0 1.517-.338 2.695-1.016 3.535-.678.84-1.618 1.26-2.82 1.26zm-.202-8.384c-.944 0-1.626.261-2.048.783s-.638 1.354-.649 2.494v.312c0 1.298.216 2.226.649 2.785.433.559 1.126.838 2.082.838.798 0 1.423-.322 1.875-.969.452-.646.679-1.536.679-2.671 0-1.152-.227-2.035-.679-2.65s-1.089-.922-1.909-.922zM173.613 106.295c0 1.506-.379 2.681-1.138 3.526-.758.846-1.806 1.269-3.143 1.269-.826 0-1.559-.194-2.2-.582-.64-.388-1.135-.943-1.483-1.668-.349-.725-.522-1.573-.522-2.545 0-1.506.376-2.679 1.129-3.519s1.798-1.26 3.135-1.26c1.292 0 2.318.43 3.08 1.289.762.861 1.142 2.024 1.142 3.49zm-7.037 0c0 1.18.236 2.078.708 2.696.472.618 1.166.927 2.082.927.916 0 1.611-.308 2.085-.923.475-.614.712-1.515.712-2.7 0-1.175-.238-2.066-.712-2.676s-1.175-.914-2.103-.914c-.916 0-1.606.3-2.073.901s-.699 1.498-.699 2.689zM180.526 101.517c.41 0 .778.033 1.104.101l-.194 1.298a4.778 4.778 0 00-1.011-.126c-.748 0-1.386.304-1.917.91-.531.606-.796 1.362-.796 2.267v4.955h-1.398v-9.235h1.154l.16 1.71h.067c.343-.601.755-1.064 1.239-1.391a2.782 2.782 0 011.592-.489zM187.363 109.936c.247 0 .486-.019.716-.055a4.83 4.83 0 00.548-.114v1.07c-.152.073-.375.134-.67.181a5.012 5.012 0 01-.796.072c-1.787 0-2.68-.941-2.68-2.823v-5.494h-1.323v-.675l1.323-.581.59-1.972h.809v2.141h2.68v1.087h-2.68v5.436c0 .556.132.982.396 1.28.264.298.627.447 1.087.447zM194.539 111.09c-1.365 0-2.442-.416-3.231-1.247-.79-.832-1.184-1.986-1.184-3.464 0-1.488.366-2.671 1.1-3.548.733-.876 1.718-1.314 2.954-1.314 1.157 0 2.073.381 2.747 1.142.674.762 1.011 1.766 1.011 3.013v.885h-6.362c.028 1.085.302 1.907.822 2.47.52.562 1.251.843 2.195.843.994 0 1.978-.208 2.949-.624v1.247a7.306 7.306 0 01-1.403.459 7.973 7.973 0 01-1.598.138zm-.379-8.402c-.742 0-1.333.242-1.774.726-.441.482-.701 1.151-.78 2.005h4.829c0-.882-.196-1.558-.59-2.026-.393-.47-.955-.705-1.685-.705zM206.951 109.683h-.076c-.646.938-1.612 1.407-2.899 1.407-1.208 0-2.147-.413-2.819-1.239-.671-.825-1.007-2-1.007-3.522s.337-2.705 1.011-3.548c.674-.843 1.612-1.264 2.814-1.264 1.253 0 2.213.455 2.882 1.365h.109l-.059-.666-.034-.648v-3.759h1.399v13.112h-1.138l-.183-1.238zm-2.797.236c.955 0 1.647-.26 2.077-.779s.645-1.358.645-2.516v-.295c0-1.309-.218-2.242-.653-2.802-.436-.559-1.131-.839-2.086-.839-.82 0-1.448.319-1.883.957-.436.638-.653 1.538-.653 2.701 0 1.18.216 2.07.649 2.671.432.602 1.067.902 1.904.902zM220.713 101.534c1.214 0 2.156.415 2.828 1.243.671.829 1.007 2.001 1.007 3.519 0 1.517-.338 2.695-1.016 3.535-.677.84-1.617 1.26-2.819 1.26-.601 0-1.15-.111-1.647-.333a3.102 3.102 0 01-1.251-1.023h-.101l-.295 1.188h-1.002V97.809h1.398v3.186c0 .714-.022 1.354-.067 1.921h.067c.65-.921 1.617-1.382 2.898-1.382zm-.203 1.172c-.955 0-1.643.273-2.064.821s-.632 1.471-.632 2.769.216 2.226.649 2.785c.433.559 1.126.838 2.082.838.86 0 1.5-.312 1.921-.939.421-.626.632-1.526.632-2.7 0-1.203-.211-2.099-.632-2.688s-1.074-.886-1.956-.886zM225.759 101.686h1.5l2.022 5.267c.443 1.202.719 2.07.826 2.604h.067c.073-.286.226-.776.459-1.471.233-.693.996-2.827 2.288-6.399h1.5l-3.969 10.517c-.394 1.039-.853 1.776-1.378 2.212-.525.436-1.17.653-1.934.653-.427 0-.849-.048-1.264-.144v-1.121c.309.068.654.102 1.037.102.96 0 1.646-.539 2.056-1.618l.514-1.314-3.724-9.288z"/></g></g></g></svg>