<svg width="2500" height="566" viewBox="0 0 2500 566" fill="none" xmlns="http://www.w3.org/2000/svg">
<path d="M1247.17 141.517C1149.55 141.517 1079.16 205.185 1079.16 300.685C1079.16 396.186 1158.39 459.854 1256.01 459.854C1314.99 459.854 1366.99 436.509 1399.18 397.159L1331.53 358.074C1313.67 377.617 1286.52 389.024 1256.01 389.024C1213.66 389.024 1177.67 366.917 1164.31 331.546H1412.09C1414.03 321.643 1415.18 311.385 1415.18 300.597C1415.18 205.185 1344.79 141.517 1247.17 141.517ZM1163.52 269.736C1174.57 234.454 1204.81 212.259 1247.08 212.259C1289.44 212.259 1319.68 234.454 1330.65 269.736H1163.52ZM2199.35 141.517C2101.73 141.517 2031.34 205.185 2031.34 300.685C2031.34 396.186 2110.57 459.854 2208.19 459.854C2267.17 459.854 2319.17 436.509 2351.35 397.159L2283.71 358.074C2265.85 377.617 2238.7 389.024 2208.19 389.024C2165.84 389.024 2129.85 366.917 2116.49 331.546H2364.27C2366.21 321.643 2367.36 311.385 2367.36 300.597C2367.36 205.185 2296.97 141.517 2199.35 141.517ZM2115.79 269.736C2126.84 234.454 2157.08 212.259 2199.35 212.259C2241.71 212.259 2271.95 234.454 2282.91 269.736H2115.79ZM1770.66 300.685C1770.66 353.742 1805.32 389.112 1859.08 389.112C1895.52 389.112 1922.84 372.576 1936.9 345.606L2004.81 384.779C1976.69 431.645 1923.99 459.854 1859.08 459.854C1761.37 459.854 1691.07 396.186 1691.07 300.685C1691.07 205.185 1761.46 141.517 1859.08 141.517C1923.99 141.517 1976.6 169.726 2004.81 216.592L1936.9 255.765C1922.84 228.795 1895.52 212.259 1859.08 212.259C1805.41 212.259 1770.66 247.629 1770.66 300.685ZM2500 44.248V451.011H2420.42V44.248H2500ZM326.737 0.034668L653.473 565.966H0L326.737 0.034668ZM1143.62 44.248L898.592 468.696L653.562 44.248H745.437L898.592 309.528L1051.75 44.248H1143.62ZM1664.54 150.36V236.046C1655.7 233.481 1646.33 231.713 1636.25 231.713C1584.87 231.713 1547.82 267.083 1547.82 320.139V451.011H1468.24V150.36H1547.82V231.713C1547.82 186.792 1600.08 150.36 1664.54 150.36Z" fill="white"/>
</svg>
